<?xml version="1.0" encoding="UTF-8" standalone="no"?>
<svg
   xmlns:dc="http://purl.org/dc/elements/1.1/"
   xmlns:cc="http://creativecommons.org/ns#"
   xmlns:rdf="http://www.w3.org/1999/02/22-rdf-syntax-ns#"
   xmlns:svg="http://www.w3.org/2000/svg"
   xmlns="http://www.w3.org/2000/svg"
   viewBox="0 0 2560 1440"
   height="1440"
   width="2560"
   xml:space="preserve"
   id="svg2"
   version="1.1"><metadata
     id="metadata8"><rdf:RDF><cc:Work
         rdf:about=""><dc:format>image/svg+xml</dc:format><dc:type
           rdf:resource="http://purl.org/dc/dcmitype/StillImage" /></cc:Work></rdf:RDF></metadata><defs
     id="defs6"><clipPath
       id="clipPath20"
       clipPathUnits="userSpaceOnUse"><path
         id="path18"
         d="M 0,0 H 1920 V 1080 H 0 Z" /></clipPath></defs><g
     transform="matrix(1.3333333,0,0,-1.3333333,0,1440)"
     id="g10"><g
       id="g12" /><g
       id="g14"><g
         clip-path="url(#clipPath20)"
         id="g16"><g
           transform="matrix(1,0,0,-1,792.9292,812.9053)"
           id="g22"><path
             id="path24"
             style="fill:none;stroke:#05a89d;stroke-width:8;stroke-linecap:butt;stroke-linejoin:miter;stroke-miterlimit:4;stroke-dasharray:none;stroke-opacity:1"
             d="m 85.35534,14.64466 c 19.52626,19.52622 19.52626,51.18446 0,70.71068 -19.52622,19.52626 -51.18446,19.52626 -70.71068,0 -19.526214,-19.52622 -19.526214,-51.18446 0,-70.71068 19.52622,-19.526214 51.18446,-19.526214 70.71068,0 z" /></g><g
           transform="matrix(1,0,0,-1,1027.071,515.6982)"
           id="g26"><path
             id="path28"
             style="fill:none;stroke:#05a89d;stroke-width:8;stroke-linecap:butt;stroke-linejoin:miter;stroke-miterlimit:4;stroke-dasharray:none;stroke-opacity:1"
             d="m 85.35534,14.64466 c 19.52626,19.52622 19.52626,51.18446 0,70.71068 -19.52622,19.52626 -51.18446,19.52626 -70.71068,0 -19.526214,-19.52622 -19.526214,-51.18446 0,-70.71068 19.52622,-19.526214 51.18446,-19.526214 70.71068,0 z" /></g><g
           transform="matrix(1,0,0,-1,792.9292,515.6982)"
           id="g30"><path
             id="path32"
             style="fill:none;stroke:#05a89d;stroke-width:8;stroke-linecap:butt;stroke-linejoin:miter;stroke-miterlimit:4;stroke-dasharray:none;stroke-opacity:1"
             d="m 85.35534,14.64466 c 19.52626,19.52622 19.52626,51.18446 0,70.71068 -19.52622,19.52626 -51.18446,19.52626 -70.71068,0 -19.526214,-19.52622 -19.526214,-51.18446 0,-70.71068 19.52622,-19.526214 51.18446,-19.526214 70.71068,0 z" /></g><g
           transform="matrix(1,0,0,-1,792.9292,664.3018)"
           id="g34"><path
             id="path36"
             style="fill:none;stroke:#05a89d;stroke-width:8;stroke-linecap:butt;stroke-linejoin:miter;stroke-miterlimit:4;stroke-dasharray:none;stroke-opacity:1"
             d="m 85.35534,14.64466 c 19.52626,19.52622 19.52626,51.18446 0,70.71068 -19.52622,19.52626 -51.18446,19.52626 -70.71068,0 -19.526214,-19.52622 -19.526214,-51.18446 0,-70.71068 19.52622,-19.526214 51.18446,-19.526214 70.71068,0 z" /></g><g
           transform="matrix(1,0,0,-1,792.9292,367.0947)"
           id="g38"><path
             id="path40"
             style="fill:none;stroke:#05a89d;stroke-width:8;stroke-linecap:butt;stroke-linejoin:miter;stroke-miterlimit:4;stroke-dasharray:none;stroke-opacity:1"
             d="m 85.35534,14.64466 c 19.52626,19.52622 19.52626,51.18446 0,70.71068 -19.52622,19.52626 -51.18446,19.52626 -70.71068,0 -19.526214,-19.52622 -19.526214,-51.18446 0,-70.71068 19.52622,-19.526214 51.18446,-19.526214 70.71068,0 z" /></g><g
           transform="matrix(1,0,0,-1,1027.071,667.5267)"
           id="g42"><path
             id="path44"
             style="fill:none;stroke:#05a89d;stroke-width:8;stroke-linecap:butt;stroke-linejoin:miter;stroke-miterlimit:4;stroke-dasharray:none;stroke-opacity:1"
             d="m 85.35534,14.64466 c 19.52626,19.52622 19.52626,51.18446 0,70.71068 -19.52622,19.52626 -51.18446,19.52626 -70.71068,0 -19.526214,-19.52622 -19.526214,-51.18446 0,-70.71068 19.52622,-19.526214 51.18446,-19.526214 70.71068,0 z" /></g><g
           transform="matrix(1,0,0,-1,896.9027,616.7833)"
           id="g46"><path
             id="path48"
             style="fill:none;stroke:#ffffff;stroke-width:7;stroke-linecap:butt;stroke-linejoin:miter;stroke-miterlimit:4;stroke-dasharray:none;stroke-opacity:1"
             d="M 126.1946,0 0,1.738134" /></g><g
           transform="matrix(1,0,0,-1,876.1288,574.9271)"
           id="g50"><path
             id="path52"
             style="fill:none;stroke:#ffffff;stroke-width:7;stroke-linecap:butt;stroke-linejoin:miter;stroke-miterlimit:4;stroke-dasharray:none;stroke-opacity:1"
             d="M 167.7421,0 0,215.2333" /></g><g
           transform="matrix(1,0,0,-1,888.815,734.4148)"
           id="g54"><path
             id="path56"
             style="fill:none;stroke:#ffffff;stroke-width:7;stroke-linecap:butt;stroke-linejoin:miter;stroke-miterlimit:4;stroke-dasharray:none;stroke-opacity:1"
             d="M 142.3701,88.39761 0,0" /></g><g
           transform="matrix(1,0,0,-1,888.5312,585.3593)"
           id="g58"><path
             id="path60"
             style="fill:none;stroke:#ffffff;stroke-width:7;stroke-linecap:butt;stroke-linejoin:miter;stroke-miterlimit:4;stroke-dasharray:none;stroke-opacity:1"
             d="M 142.9376,90.7187 0,0" /></g><g
           transform="matrix(1,0,0,-1,896.9078,465.6982)"
           id="g62"><path
             id="path64"
             style="fill:none;stroke:#ffffff;stroke-width:7;stroke-linecap:butt;stroke-linejoin:miter;stroke-miterlimit:4;stroke-dasharray:none;stroke-opacity:1"
             d="M 126.1844,0 H 0" /></g><g
           transform="matrix(1,0,0,-1,888.5312,436.7558)"
           id="g66"><path
             id="path68"
             style="fill:none;stroke:#ffffff;stroke-width:7;stroke-linecap:butt;stroke-linejoin:miter;stroke-miterlimit:4;stroke-dasharray:none;stroke-opacity:1"
             d="M 0,90.71868 142.9375,0" /></g><g
           transform="matrix(1,0,0,-1,876.3517,720.4804)"
           id="g70"><path
             id="path72"
             style="fill:none;stroke:#ffffff;stroke-width:7;stroke-linecap:butt;stroke-linejoin:miter;stroke-miterlimit:4;stroke-dasharray:none;stroke-opacity:1"
             d="M 167.2968,212.3578 0,0" /></g><g
           transform="matrix(1,0,0,-1,888.2466,588.1407)"
           id="g74"><path
             id="path76"
             style="fill:none;stroke:#ffffff;stroke-width:7;stroke-linecap:butt;stroke-linejoin:miter;stroke-miterlimit:4;stroke-dasharray:none;stroke-opacity:1"
             d="M 143.5068,0 0,93.05658" /></g></g></g></g></svg>