<?xml version="1.0" encoding="UTF-8" standalone="no"?>
<svg
   xmlns:dc="http://purl.org/dc/elements/1.1/"
   xmlns:cc="http://creativecommons.org/ns#"
   xmlns:rdf="http://www.w3.org/1999/02/22-rdf-syntax-ns#"
   xmlns:svg="http://www.w3.org/2000/svg"
   xmlns="http://www.w3.org/2000/svg"
   viewBox="0 0 2560 1440"
   height="1440"
   width="2560"
   xml:space="preserve"
   id="svg2"
   version="1.1"><metadata
     id="metadata8"><rdf:RDF><cc:Work
         rdf:about=""><dc:format>image/svg+xml</dc:format><dc:type
           rdf:resource="http://purl.org/dc/dcmitype/StillImage" /></cc:Work></rdf:RDF></metadata><defs
     id="defs6"><clipPath
       id="clipPath20"
       clipPathUnits="userSpaceOnUse"><path
         id="path18"
         d="M 0,0 H 1920 V 1080 H 0 Z" /></clipPath></defs><g
     transform="matrix(1.3333333,0,0,-1.3333333,0,1440)"
     id="g10"><g
       id="g12" /><g
       id="g14"><g
         clip-path="url(#clipPath20)"
         id="g16"><g
           transform="matrix(1,0,0,-1,675.8583,663.6035)"
           id="g22"><path
             id="path24"
             style="fill:none;stroke:#05a89d;stroke-width:8;stroke-linecap:butt;stroke-linejoin:miter;stroke-miterlimit:4;stroke-dasharray:none;stroke-opacity:1"
             d="m 85.35534,14.64466 c 19.52626,19.52622 19.52626,51.18446 0,70.71068 -19.52622,19.52626 -51.18446,19.52626 -70.71068,0 -19.526214,-19.52622 -19.526214,-51.18446 0,-70.71068 19.52622,-19.526214 51.18446,-19.526214 70.71068,0 z" /></g><g
           transform="matrix(1,0,0,-1,675.8583,366.3965)"
           id="g26"><path
             id="path28"
             style="fill:none;stroke:#05a89d;stroke-width:8;stroke-linecap:butt;stroke-linejoin:miter;stroke-miterlimit:4;stroke-dasharray:none;stroke-opacity:1"
             d="m 85.35534,14.64466 c 19.52626,19.52622 19.52626,51.18446 0,70.71068 -19.52622,19.52626 -51.18446,19.52626 -70.71068,0 -19.526214,-19.52622 -19.526214,-51.18446 0,-70.71068 19.52622,-19.526214 51.18446,-19.526214 70.71068,0 z" /></g><g
           transform="matrix(1,0,0,-1,910,440.1022)"
           id="g30"><path
             id="path32"
             style="fill:none;stroke:#05a89d;stroke-width:8;stroke-linecap:butt;stroke-linejoin:miter;stroke-miterlimit:4;stroke-dasharray:none;stroke-opacity:1"
             d="m 85.35534,14.64466 c 19.52626,19.52622 19.52626,51.18446 0,70.71068 -19.52622,19.52626 -51.18446,19.52626 -70.71068,0 -19.526214,-19.52622 -19.526214,-51.18446 0,-70.71068 19.52622,-19.526214 51.18446,-19.526214 70.71068,0 z" /></g><g
           transform="matrix(1,0,0,-1,910,739.8978)"
           id="g34"><path
             id="path36"
             style="fill:none;stroke:#05a89d;stroke-width:8;stroke-linecap:butt;stroke-linejoin:miter;stroke-miterlimit:4;stroke-dasharray:none;stroke-opacity:1"
             d="m 85.35534,14.64466 c 19.52626,19.52622 19.52626,51.18446 0,70.71068 -19.52622,19.52626 -51.18446,19.52626 -70.71068,0 -19.526214,-19.52622 -19.526214,-51.18446 0,-70.71068 19.52622,-19.526214 51.18446,-19.526214 70.71068,0 z" /></g><g
           transform="matrix(1,0,0,-1,1144.142,663.6035)"
           id="g38"><path
             id="path40"
             style="fill:none;stroke:#05a89d;stroke-width:8;stroke-linecap:butt;stroke-linejoin:miter;stroke-miterlimit:4;stroke-dasharray:none;stroke-opacity:1"
             d="m 85.35534,14.64466 c 19.52626,19.52622 19.52626,51.18446 0,70.71068 -19.52622,19.52626 -51.18446,19.52626 -70.71068,0 -19.526214,-19.52622 -19.526214,-51.18446 0,-70.71068 19.52622,-19.526214 51.18446,-19.526214 70.71068,0 z" /></g><g
           transform="matrix(1,0,0,-1,1144.142,515)"
           id="g42"><path
             id="path44"
             style="fill:none;stroke:#05a89d;stroke-width:8;stroke-linecap:butt;stroke-linejoin:miter;stroke-miterlimit:4;stroke-dasharray:none;stroke-opacity:1"
             d="m 85.35534,14.64466 c 19.52626,19.52622 19.52626,51.18446 0,70.71068 -19.52622,19.52626 -51.18446,19.52626 -70.71068,0 -19.526214,-19.52622 -19.526214,-51.18446 0,-70.71068 19.52622,-19.526214 51.18446,-19.526214 70.71068,0 z" /></g><g
           transform="matrix(1,0,0,-1,777.3642,373.8886)"
           id="g46"><path
             id="path48"
             style="fill:none;stroke:#ffffff;stroke-width:7;stroke-linecap:butt;stroke-linejoin:miter;stroke-miterlimit:4;stroke-dasharray:none;stroke-opacity:1"
             d="M 131.1299,0 0,41.27855" /></g><g
           transform="matrix(1,0,0,-1,1011.431,448.5482)"
           id="g50"><path
             id="path52"
             style="fill:none;stroke:#ffffff;stroke-width:7;stroke-linecap:butt;stroke-linejoin:miter;stroke-miterlimit:4;stroke-dasharray:none;stroke-opacity:1"
             d="M 0,41.99421 131.2802,0" /></g><g
           transform="matrix(1,0,0,-1,1011.342,673.1683)"
           id="g54"><path
             id="path56"
             style="fill:none;stroke:#ffffff;stroke-width:7;stroke-linecap:butt;stroke-linejoin:miter;stroke-miterlimit:4;stroke-dasharray:none;stroke-opacity:1"
             d="M 131.4585,42.83529 0,0" /></g><g
           transform="matrix(1,0,0,-1,777.1999,673.1683)"
           id="g58"><path
             id="path60"
             style="fill:none;stroke:#ffffff;stroke-width:7;stroke-linecap:butt;stroke-linejoin:miter;stroke-miterlimit:4;stroke-dasharray:none;stroke-opacity:1"
             d="M 131.4585,0 0,42.83528" /></g><g
           transform="matrix(1,0,0,-1,754.5452,644.1351)"
           id="g62"><path
             id="path64"
             style="fill:none;stroke:#ffffff;stroke-width:7;stroke-linecap:butt;stroke-linejoin:miter;stroke-miterlimit:4;stroke-dasharray:none;stroke-opacity:1"
             d="M 176.7669,0 0,281.9775" /></g><g
           transform="matrix(1,0,0,-1,764.9233,576.3138)"
           id="g66"><path
             id="path68"
             style="fill:none;stroke:#ffffff;stroke-width:7;stroke-linecap:butt;stroke-linejoin:miter;stroke-miterlimit:4;stroke-dasharray:none;stroke-opacity:1"
             d="M 156.0117,148.9219 0,0" /></g><g
           transform="matrix(1,0,0,-1,999.065,576.3139)"
           id="g70"><path
             id="path72"
             style="fill:none;stroke:#ffffff;stroke-width:7;stroke-linecap:butt;stroke-linejoin:miter;stroke-miterlimit:4;stroke-dasharray:none;stroke-opacity:1"
             d="M 0,148.9219 156.0118,0" /></g><g
           transform="matrix(1,0,0,-1,998.9487,652.4868)"
           id="g74"><path
             id="path76"
             style="fill:none;stroke:#ffffff;stroke-width:7;stroke-linecap:butt;stroke-linejoin:miter;stroke-miterlimit:4;stroke-dasharray:none;stroke-opacity:1"
             d="M 156.2443,150.0757 0,0" /></g></g></g></g></svg>