<?xml version="1.0" encoding="UTF-8" standalone="no"?>
<svg
   xmlns:dc="http://purl.org/dc/elements/1.1/"
   xmlns:cc="http://creativecommons.org/ns#"
   xmlns:rdf="http://www.w3.org/1999/02/22-rdf-syntax-ns#"
   xmlns:svg="http://www.w3.org/2000/svg"
   xmlns="http://www.w3.org/2000/svg"
   viewBox="0 0 2560 1440"
   height="1440"
   width="2560"
   xml:space="preserve"
   id="svg2"
   version="1.1"><metadata
     id="metadata8"><rdf:RDF><cc:Work
         rdf:about=""><dc:format>image/svg+xml</dc:format><dc:type
           rdf:resource="http://purl.org/dc/dcmitype/StillImage" /></cc:Work></rdf:RDF></metadata><defs
     id="defs6"><clipPath
       id="clipPath20"
       clipPathUnits="userSpaceOnUse"><path
         id="path18"
         d="M 0,0 H 1920 V 1080 H 0 Z" /></clipPath><clipPath
       id="clipPath34"
       clipPathUnits="userSpaceOnUse"><path
         id="path32"
         d="M 404.7555,435.5345 H 708.0463 V 597.2501 H 404.7555 Z" /></clipPath><clipPath
       id="clipPath48"
       clipPathUnits="userSpaceOnUse"><path
         id="path46"
         d="M 0,0 H 1920 V 1080 H 0 Z" /></clipPath><clipPath
       id="clipPath60"
       clipPathUnits="userSpaceOnUse"><path
         id="path58"
         d="m 808.3514,435.5345 h 303.2908 V 597.2501 H 808.3514 Z" /></clipPath><clipPath
       id="clipPath74"
       clipPathUnits="userSpaceOnUse"><path
         id="path72"
         d="M 0,0 H 1920 V 1080 H 0 Z" /></clipPath><clipPath
       id="clipPath86"
       clipPathUnits="userSpaceOnUse"><path
         id="path84"
         d="m 1211.947,435.5345 h 303.2908 V 597.2501 H 1211.947 Z" /></clipPath><clipPath
       id="clipPath100"
       clipPathUnits="userSpaceOnUse"><path
         id="path98"
         d="M 0,0 H 1920 V 1080 H 0 Z" /></clipPath><clipPath
       id="clipPath138"
       clipPathUnits="userSpaceOnUse"><path
         id="path136"
         d="M 404.7555,805.0345 H 708.0463 V 966.7501 H 404.7555 Z" /></clipPath><clipPath
       id="clipPath152"
       clipPathUnits="userSpaceOnUse"><path
         id="path150"
         d="M 0,0 H 1920 V 1080 H 0 Z" /></clipPath><clipPath
       id="clipPath164"
       clipPathUnits="userSpaceOnUse"><path
         id="path162"
         d="m 808.3514,805.0345 h 303.2908 V 966.7501 H 808.3514 Z" /></clipPath><clipPath
       id="clipPath178"
       clipPathUnits="userSpaceOnUse"><path
         id="path176"
         d="M 0,0 H 1920 V 1080 H 0 Z" /></clipPath><clipPath
       id="clipPath190"
       clipPathUnits="userSpaceOnUse"><path
         id="path188"
         d="m 1211.948,805.0345 h 303.2908 V 966.7501 H 1211.948 Z" /></clipPath><clipPath
       id="clipPath204"
       clipPathUnits="userSpaceOnUse"><path
         id="path202"
         d="M 0,0 H 1920 V 1080 H 0 Z" /></clipPath><clipPath
       id="clipPath228"
       clipPathUnits="userSpaceOnUse"><path
         id="path226"
         d="m 404.7555,14.88785 h 303.2908 v 161.7156 H 404.7555 Z" /></clipPath><clipPath
       id="clipPath242"
       clipPathUnits="userSpaceOnUse"><path
         id="path240"
         d="M 0,0 H 1920 V 1080 H 0 Z" /></clipPath><clipPath
       id="clipPath254"
       clipPathUnits="userSpaceOnUse"><path
         id="path252"
         d="m 808.3514,14.88785 h 303.2908 v 161.7156 H 808.3514 Z" /></clipPath><clipPath
       id="clipPath268"
       clipPathUnits="userSpaceOnUse"><path
         id="path266"
         d="M 0,0 H 1920 V 1080 H 0 Z" /></clipPath></defs><g
     transform="matrix(1.3333333,0,0,-1.3333333,0,1440)"
     id="g10"><g
       id="g12" /><g
       id="g14"><g
         clip-path="url(#clipPath20)"
         id="g16"><path
           id="path22"
           style="fill:#ffffff;fill-opacity:1;fill-rule:nonzero;stroke:none"
           d="M 0,0 H 1920 V 1080 H 0 Z" /><g
           transform="matrix(1,0,0,-1,408.2915,597.2501)"
           id="g24"><path
             id="path26"
             style="fill:none;stroke:#05a89d;stroke-width:4;stroke-linecap:butt;stroke-linejoin:miter;stroke-miterlimit:4;stroke-dasharray:none;stroke-opacity:1"
             d="M 37.08135,0 H 259.1437 c 10.8815,0 17.4104,0 21.763,1.817151 6.2746,2.283784 11.2174,7.226564 13.5012,13.501209 1.8171,4.3526 1.8171,10.88149 1.8171,21.76299 v 87.55295 c 0,10.8815 0,17.4103 -1.8171,21.7629 -2.2838,6.2747 -7.2266,11.2175 -13.5012,13.5013 -4.3526,1.8171 -10.8815,1.8171 -21.763,1.8171 H 37.08135 c -10.8815,0 -17.41039,0 -21.76299,-1.8171 C 9.043715,157.6147 4.100935,152.6719 1.817151,146.3972 0,142.0446 0,135.5158 0,124.6343 V 37.08135 C 0,26.19985 0,19.67096 1.817151,15.31836 4.100935,9.043715 9.043715,4.100935 15.31836,1.817151 19.67096,0 26.19985,0 37.08135,0 Z" /></g></g></g><g
       id="g28"><g
         clip-path="url(#clipPath34)"
         id="g30"><g
           transform="translate(498.2888,504.8604)"
           id="g36"><text
             id="text40"
             style="font-variant:normal;font-weight:500;font-size:32px;font-family:HelveticaNeue;-inkscape-font-specification:HelveticaNeue-Medium;writing-mode:lr-tb;fill:#05a89d;fill-opacity:1;fill-rule:nonzero;stroke:none"
             transform="scale(1,-1)"><tspan
               id="tspan38"
               y="0"
               x="0 16.032 27.296 45.088001 52.799999 71.167999 78.879997 97.248001">Training</tspan></text>
</g></g></g><g
       id="g42"><g
         clip-path="url(#clipPath48)"
         id="g44"><g
           transform="matrix(1,0,0,-1,811.8875,597.2501)"
           id="g50"><path
             id="path52"
             style="fill:none;stroke:#05a89d;stroke-width:4;stroke-linecap:butt;stroke-linejoin:miter;stroke-miterlimit:4;stroke-dasharray:none;stroke-opacity:1"
             d="M 37.08135,0 H 259.1437 c 10.8815,0 17.4104,0 21.763,1.817151 6.2746,2.283784 11.2174,7.226564 13.5012,13.501209 1.8171,4.3526 1.8171,10.88149 1.8171,21.76299 v 87.55295 c 0,10.8815 0,17.4103 -1.8171,21.7629 -2.2838,6.2747 -7.2266,11.2175 -13.5012,13.5013 -4.3526,1.8171 -10.8815,1.8171 -21.763,1.8171 H 37.08135 c -10.8815,0 -17.41039,0 -21.76299,-1.8171 C 9.043715,157.6147 4.100935,152.6719 1.817151,146.3972 0,142.0446 0,135.5158 0,124.6343 V 37.08135 C 0,26.19985 0,19.67096 1.817151,15.31836 4.100935,9.043715 9.043715,4.100935 15.31836,1.817151 19.67096,0 26.19985,0 37.08135,0 Z" /></g></g></g><g
       id="g54"><g
         clip-path="url(#clipPath60)"
         id="g56"><g
           transform="translate(902.7968,504.8604)"
           id="g62"><text
             id="text66"
             style="font-variant:normal;font-weight:500;font-size:32px;font-family:HelveticaNeue;-inkscape-font-specification:HelveticaNeue-Medium;writing-mode:lr-tb;fill:#05a89d;fill-opacity:1;fill-rule:nonzero;stroke:none"
             transform="scale(1,-1)"><tspan
               id="tspan64"
               y="0"
               x="0 21.344 32.608002 50.976002 69.344002 77.056 95.424004">Pruning</tspan></text>
</g></g></g><g
       id="g68"><g
         clip-path="url(#clipPath74)"
         id="g70"><g
           transform="matrix(1,0,0,-1,1215.483,597.2501)"
           id="g76"><path
             id="path78"
             style="fill:none;stroke:#05a89d;stroke-width:4;stroke-linecap:butt;stroke-linejoin:miter;stroke-miterlimit:4;stroke-dasharray:none;stroke-opacity:1"
             d="M 37.08135,0 H 259.1437 c 10.8815,0 17.4104,0 21.763,1.817151 6.2746,2.283784 11.2174,7.226564 13.5012,13.501209 1.8171,4.3526 1.8171,10.88149 1.8171,21.76299 v 87.55295 c 0,10.8815 0,17.4103 -1.8171,21.7629 -2.2838,6.2747 -7.2266,11.2175 -13.5012,13.5013 -4.3526,1.8171 -10.8815,1.8171 -21.763,1.8171 H 37.08135 c -10.8815,0 -17.41039,0 -21.76299,-1.8171 C 9.043715,157.6147 4.100935,152.6719 1.817151,146.3972 0,142.0446 0,135.5158 0,124.6343 V 37.08135 C 0,26.19985 0,19.67096 1.817151,15.31836 4.100935,9.043715 9.043715,4.100935 15.31836,1.817151 19.67096,0 26.19985,0 37.08135,0 Z" /></g></g></g><g
       id="g80"><g
         clip-path="url(#clipPath86)"
         id="g82"><g
           transform="translate(1279.721,504.8604)"
           id="g88"><text
             id="text92"
             style="font-variant:normal;font-weight:500;font-size:32px;font-family:HelveticaNeue;-inkscape-font-specification:HelveticaNeue-Medium;writing-mode:lr-tb;fill:#05a89d;fill-opacity:1;fill-rule:nonzero;stroke:none"
             transform="scale(1,-1)"><tspan
               id="tspan90"
               y="0"
               x="0 18.976 26.688 45.056 62.848 75.295998 85.952003 104.32 122.688 130.39999 148.76801">Fine-tuning</tspan></text>
</g></g></g><g
       id="g94"><g
         clip-path="url(#clipPath100)"
         id="g96"><g
           transform="matrix(1,0,0,-1,706.5102,516.3923)"
           id="g102"><path
             id="path104"
             style="fill:none;stroke:#434343;stroke-width:2;stroke-linecap:butt;stroke-linejoin:miter;stroke-miterlimit:4;stroke-dasharray:none;stroke-opacity:1"
             d="m 0,0 c 31.25908,0 62.51815,0 93.77723,0 h 1" /></g><path
           id="path106"
           style="fill:#434343;fill-opacity:1;fill-rule:nonzero;stroke:none"
           d="m 800.2875,511.5923 9.6,4.8 -9.6,4.8 z" /><g
           transform="matrix(1,0,0,-1,1110.106,516.3923)"
           id="g108"><path
             id="path110"
             style="fill:none;stroke:#434343;stroke-width:2;stroke-linecap:butt;stroke-linejoin:miter;stroke-miterlimit:4;stroke-dasharray:none;stroke-opacity:1"
             d="m 0,0 c 31.25907,0 62.51813,0 93.7772,0 h 1" /></g><path
           id="path112"
           style="fill:#434343;fill-opacity:1;fill-rule:nonzero;stroke:none"
           d="m 1203.883,511.5923 9.6,4.8 -9.6,4.8 z" /><g
           transform="matrix(0,-1,-1,0,960,650.1552)"
           id="g114"><path
             id="path116"
             style="fill:none;stroke:#434343;stroke-width:2;stroke-linecap:butt;stroke-linejoin:miter;stroke-miterlimit:4;stroke-dasharray:none;stroke-opacity:1"
             d="m 0,0 h 43.42298 1" /></g><path
           id="path118"
           style="fill:#434343;fill-opacity:1;fill-rule:nonzero;stroke:none"
           d="m 955.2,606.7322 4.8,-9.6 4.8,9.6 z" /><g
           transform="matrix(1,0,0,-1,959.3333,650.4656)"
           id="g120"><path
             id="path122"
             style="fill:none;stroke:#434343;stroke-width:2;stroke-linecap:butt;stroke-linejoin:miter;stroke-miterlimit:4;stroke-dasharray:none;stroke-opacity:1"
             d="M 0,0 H 404.6521" /></g><g
           transform="matrix(0,-1,-1,0,1363.596,650.1552)"
           id="g124"><path
             id="path126"
             style="fill:none;stroke:#434343;stroke-width:2;stroke-linecap:butt;stroke-linejoin:miter;stroke-miterlimit:4;stroke-dasharray:none;stroke-opacity:1"
             d="M 0,0 H 53.02298" /></g><g
           transform="matrix(1,0,0,-1,408.2915,966.7501)"
           id="g128"><path
             id="path130"
             style="fill:none;stroke:#05a89d;stroke-width:4;stroke-linecap:butt;stroke-linejoin:miter;stroke-miterlimit:4;stroke-dasharray:none;stroke-opacity:1"
             d="M 37.08135,0 H 259.1437 c 10.8815,0 17.4104,0 21.763,1.817151 6.2746,2.283784 11.2174,7.226564 13.5012,13.501209 1.8171,4.3526 1.8171,10.88149 1.8171,21.76299 v 87.55295 c 0,10.8815 0,17.4103 -1.8171,21.7629 -2.2838,6.2747 -7.2266,11.2175 -13.5012,13.5013 -4.3526,1.8171 -10.8815,1.8171 -21.763,1.8171 H 37.08135 c -10.8815,0 -17.41039,0 -21.76299,-1.8171 C 9.043715,157.6147 4.100935,152.6719 1.817151,146.3972 0,142.0446 0,135.5158 0,124.6343 V 37.08135 C 0,26.19985 0,19.67096 1.817151,15.31836 4.100935,9.043715 9.043715,4.100935 15.31836,1.817151 19.67096,0 26.19985,0 37.08135,0 Z" /></g></g></g><g
       id="g132"><g
         clip-path="url(#clipPath138)"
         id="g134"><g
           transform="translate(498.2888,874.3604)"
           id="g140"><text
             id="text144"
             style="font-variant:normal;font-weight:500;font-size:32px;font-family:HelveticaNeue;-inkscape-font-specification:HelveticaNeue-Medium;writing-mode:lr-tb;fill:#05a89d;fill-opacity:1;fill-rule:nonzero;stroke:none"
             transform="scale(1,-1)"><tspan
               id="tspan142"
               y="0"
               x="0 16.032 27.296 45.088001 52.799999 71.167999 78.879997 97.248001">Training</tspan></text>
</g></g></g><g
       id="g146"><g
         clip-path="url(#clipPath152)"
         id="g148"><g
           transform="matrix(1,0,0,-1,811.8875,966.7501)"
           id="g154"><path
             id="path156"
             style="fill:none;stroke:#05a89d;stroke-width:4;stroke-linecap:butt;stroke-linejoin:miter;stroke-miterlimit:4;stroke-dasharray:none;stroke-opacity:1"
             d="M 37.08135,0 H 259.1437 c 10.8815,0 17.4104,0 21.763,1.817151 6.2746,2.283784 11.2174,7.226564 13.5012,13.501209 1.8171,4.3526 1.8171,10.88149 1.8171,21.76299 v 87.55295 c 0,10.8815 0,17.4103 -1.8171,21.7629 -2.2838,6.2747 -7.2266,11.2175 -13.5012,13.5013 -4.3526,1.8171 -10.8815,1.8171 -21.763,1.8171 H 37.08135 c -10.8815,0 -17.41039,0 -21.76299,-1.8171 C 9.043715,157.6147 4.100935,152.6719 1.817151,146.3972 0,142.0446 0,135.5158 0,124.6343 V 37.08135 C 0,26.19985 0,19.67096 1.817151,15.31836 4.100935,9.043715 9.043715,4.100935 15.31836,1.817151 19.67096,0 26.19985,0 37.08135,0 Z" /></g></g></g><g
       id="g158"><g
         clip-path="url(#clipPath164)"
         id="g160"><g
           transform="translate(902.7968,874.3604)"
           id="g166"><text
             id="text170"
             style="font-variant:normal;font-weight:500;font-size:32px;font-family:HelveticaNeue;-inkscape-font-specification:HelveticaNeue-Medium;writing-mode:lr-tb;fill:#05a89d;fill-opacity:1;fill-rule:nonzero;stroke:none"
             transform="scale(1,-1)"><tspan
               id="tspan168"
               y="0"
               x="0 21.344 32.608002 50.976002 69.344002 77.056 95.424004">Pruning</tspan></text>
</g></g></g><g
       id="g172"><g
         clip-path="url(#clipPath178)"
         id="g174"><g
           transform="matrix(1,0,0,-1,1215.484,966.7501)"
           id="g180"><path
             id="path182"
             style="fill:none;stroke:#05a89d;stroke-width:4;stroke-linecap:butt;stroke-linejoin:miter;stroke-miterlimit:4;stroke-dasharray:none;stroke-opacity:1"
             d="M 37.08135,0 H 259.1437 c 10.8815,0 17.4104,0 21.763,1.817151 6.2746,2.283784 11.2174,7.226564 13.5012,13.501209 1.8171,4.3526 1.8171,10.88149 1.8171,21.76299 v 87.55295 c 0,10.8815 0,17.4103 -1.8171,21.7629 -2.2838,6.2747 -7.2266,11.2175 -13.5012,13.5013 -4.3526,1.8171 -10.8815,1.8171 -21.763,1.8171 H 37.08135 c -10.8815,0 -17.41039,0 -21.76299,-1.8171 C 9.043715,157.6147 4.100935,152.6719 1.817151,146.3972 0,142.0446 0,135.5158 0,124.6343 V 37.08135 C 0,26.19985 0,19.67096 1.817151,15.31836 4.100935,9.043715 9.043715,4.100935 15.31836,1.817151 19.67096,0 26.19985,0 37.08135,0 Z" /></g></g></g><g
       id="g184"><g
         clip-path="url(#clipPath190)"
         id="g186"><g
           transform="translate(1279.721,874.3604)"
           id="g192"><text
             id="text196"
             style="font-variant:normal;font-weight:500;font-size:32px;font-family:HelveticaNeue;-inkscape-font-specification:HelveticaNeue-Medium;writing-mode:lr-tb;fill:#05a89d;fill-opacity:1;fill-rule:nonzero;stroke:none"
             transform="scale(1,-1)"><tspan
               id="tspan194"
               y="0"
               x="0 18.976 26.688 45.056 62.848 75.295998 85.952003 104.32 122.688 130.39999 148.76801">Fine-tuning</tspan></text>
</g></g></g><g
       id="g198"><g
         clip-path="url(#clipPath204)"
         id="g200"><g
           transform="matrix(1,0,0,-1,706.5102,885.8923)"
           id="g206"><path
             id="path208"
             style="fill:none;stroke:#434343;stroke-width:2;stroke-linecap:butt;stroke-linejoin:miter;stroke-miterlimit:4;stroke-dasharray:none;stroke-opacity:1"
             d="m 0,0 c 31.25908,0 62.51815,0 93.77723,0 h 1" /></g><path
           id="path210"
           style="fill:#434343;fill-opacity:1;fill-rule:nonzero;stroke:none"
           d="m 800.2875,881.0923 9.6,4.8 -9.6,4.8 z" /><g
           transform="matrix(1,0,0,-1,1110.106,885.8923)"
           id="g212"><path
             id="path214"
             style="fill:none;stroke:#434343;stroke-width:2;stroke-linecap:butt;stroke-linejoin:miter;stroke-miterlimit:4;stroke-dasharray:none;stroke-opacity:1"
             d="m 0,0 c 31.25911,0 62.51821,0 93.77732,0 h 1" /></g><path
           id="path216"
           style="fill:#434343;fill-opacity:1;fill-rule:nonzero;stroke:none"
           d="m 1203.884,881.0923 9.6,4.8 -9.6,4.8 z" /><g
           transform="matrix(1,0,0,-1,408.2915,176.6035)"
           id="g218"><path
             id="path220"
             style="fill:none;stroke:#05a89d;stroke-width:4;stroke-linecap:butt;stroke-linejoin:miter;stroke-miterlimit:4;stroke-dasharray:none;stroke-opacity:1"
             d="M 37.08135,0 H 259.1437 c 10.8815,0 17.4104,0 21.763,1.817151 6.2746,2.283784 11.2174,7.226564 13.5012,13.501209 1.8171,4.3526 1.8171,10.88149 1.8171,21.76299 v 87.55295 c 0,10.8815 0,17.4103 -1.8171,21.7629 -2.2838,6.2747 -7.2266,11.2175 -13.5012,13.5013 -4.3526,1.8171 -10.8815,1.8171 -21.763,1.8171 H 37.08135 c -10.8815,0 -17.41039,0 -21.76299,-1.8171 C 9.043715,157.6147 4.100935,152.6719 1.817151,146.3972 0,142.0446 0,135.5158 0,124.6343 V 37.08135 C 0,26.19985 0,19.67096 1.817151,15.31836 4.100935,9.043715 9.043715,4.100935 15.31836,1.817151 19.67096,0 26.19985,0 37.08135,0 Z" /></g></g></g><g
       id="g222"><g
         clip-path="url(#clipPath228)"
         id="g224"><g
           transform="translate(498.2889,84.21381)"
           id="g230"><text
             id="text234"
             style="font-variant:normal;font-weight:500;font-size:32px;font-family:HelveticaNeue;-inkscape-font-specification:HelveticaNeue-Medium;writing-mode:lr-tb;fill:#05a89d;fill-opacity:1;fill-rule:nonzero;stroke:none"
             transform="scale(1,-1)"><tspan
               id="tspan232"
               y="0"
               x="0 16.032 27.296 45.088001 52.799999 71.167999 78.879997 97.248001">Training</tspan></text>
</g></g></g><g
       id="g236"><g
         clip-path="url(#clipPath242)"
         id="g238"><g
           transform="matrix(1,0,0,-1,811.8875,176.6035)"
           id="g244"><path
             id="path246"
             style="fill:none;stroke:#05a89d;stroke-width:4;stroke-linecap:butt;stroke-linejoin:miter;stroke-miterlimit:4;stroke-dasharray:none;stroke-opacity:1"
             d="M 37.08135,0 H 259.1437 c 10.8815,0 17.4104,0 21.763,1.817151 6.2746,2.283784 11.2174,7.226564 13.5012,13.501209 1.8171,4.3526 1.8171,10.88149 1.8171,21.76299 v 87.55295 c 0,10.8815 0,17.4103 -1.8171,21.7629 -2.2838,6.2747 -7.2266,11.2175 -13.5012,13.5013 -4.3526,1.8171 -10.8815,1.8171 -21.763,1.8171 H 37.08135 c -10.8815,0 -17.41039,0 -21.76299,-1.8171 C 9.043715,157.6147 4.100935,152.6719 1.817151,146.3972 0,142.0446 0,135.5158 0,124.6343 V 37.08135 C 0,26.19985 0,19.67096 1.817151,15.31836 4.100935,9.043715 9.043715,4.100935 15.31836,1.817151 19.67096,0 26.19985,0 37.08135,0 Z" /></g></g></g><g
       id="g248"><g
         clip-path="url(#clipPath254)"
         id="g250"><g
           transform="translate(902.7968,84.21381)"
           id="g256"><text
             id="text260"
             style="font-variant:normal;font-weight:500;font-size:32px;font-family:HelveticaNeue;-inkscape-font-specification:HelveticaNeue-Medium;writing-mode:lr-tb;fill:#05a89d;fill-opacity:1;fill-rule:nonzero;stroke:none"
             transform="scale(1,-1)"><tspan
               id="tspan258"
               y="0"
               x="0 21.344 32.608002 50.976002 69.344002 77.056 95.424004">Pruning</tspan></text>
</g></g></g><g
       id="g262"><g
         clip-path="url(#clipPath268)"
         id="g264"><g
           transform="matrix(1,0,0,-1,706.5103,95.74565)"
           id="g270"><path
             id="path272"
             style="fill:none;stroke:#434343;stroke-width:2;stroke-linecap:butt;stroke-linejoin:miter;stroke-miterlimit:4;stroke-dasharray:none;stroke-opacity:1"
             d="m 0,0 c 31.25907,0 62.51813,0 93.7772,0 h 1" /></g><path
           id="path274"
           style="fill:#434343;fill-opacity:1;fill-rule:nonzero;stroke:none"
           d="m 800.2875,90.94565 9.6,4.8 -9.6,4.80005 z" /><g
           transform="matrix(0,-1,-1,0,556,231.6552)"
           id="g276"><path
             id="path278"
             style="fill:none;stroke:#434343;stroke-width:2;stroke-linecap:butt;stroke-linejoin:miter;stroke-miterlimit:4;stroke-dasharray:none;stroke-opacity:1"
             d="m 0,0 h 43.42298 1" /></g><path
           id="path280"
           style="fill:#434343;fill-opacity:1;fill-rule:nonzero;stroke:none"
           d="m 551.2,188.2322 4.8,-9.6 4.8,9.6 z" /><g
           transform="matrix(1,0,0,-1,555.3333,231.9656)"
           id="g282"><path
             id="path284"
             style="fill:none;stroke:#434343;stroke-width:2;stroke-linecap:butt;stroke-linejoin:miter;stroke-miterlimit:4;stroke-dasharray:none;stroke-opacity:1"
             d="M 0,0 H 404.6521" /></g><g
           transform="matrix(0,-1,-1,0,960,231.6552)"
           id="g286"><path
             id="path288"
             style="fill:none;stroke:#434343;stroke-width:2;stroke-linecap:butt;stroke-linejoin:miter;stroke-miterlimit:4;stroke-dasharray:none;stroke-opacity:1"
             d="M 0,0 H 53.02298" /></g><g
           transform="translate(417.452,1032.396)"
           id="g290"><text
             id="text294"
             style="font-variant:normal;font-weight:normal;font-size:48px;font-family:HelveticaNeue;-inkscape-font-specification:HelveticaNeue;writing-mode:lr-tb;fill:#434343;fill-opacity:1;fill-rule:nonzero;stroke:none"
             transform="scale(1,-1)"><tspan
               id="tspan292"
               y="0"
               x="0 36.48 63.167999 88.944 107.616 131.616 158.304 185.856 200.976 214.32001 245.424 261.40799 288.09601 314.784 325.44 352.12799">One-shot Pruning</tspan></text>
</g><g
           transform="translate(410.62,643.8959)"
           id="g296"><text
             id="text300"
             style="font-variant:normal;font-weight:normal;font-size:48px;font-family:HelveticaNeue;-inkscape-font-specification:HelveticaNeue;writing-mode:lr-tb;fill:#434343;fill-opacity:1;fill-rule:nonzero;stroke:none"
             transform="scale(1,-1)"><tspan
               id="tspan298"
               y="0"
               x="0 12.432 27.552 53.327999 69.311996 95.087997 110.208 120.864 144.864 170.64 183.98399 215.088 231.07201 257.76001 284.448 295.104 321.79199">Iterative Pruning</tspan></text>
</g><g
           transform="translate(403.232,274.3959)"
           id="g302"><text
             id="text306"
             style="font-variant:normal;font-weight:normal;font-size:48px;font-family:HelveticaNeue;-inkscape-font-specification:HelveticaNeue;writing-mode:lr-tb;fill:#434343;fill-opacity:1;fill-rule:nonzero;stroke:none"
             transform="scale(1,-1)"><tspan
               id="tspan304"
               y="0"
               x="0 31.104 57.792 72.912003 100.464 141.408 167.18401 182.304 208.08 236.54401 249.888 286.32001 302.30399 328.07999 356.54401 383.23199 409.008 419.664 433.008 464.112 480.09601 506.784 533.47198 544.12799 570.81598">Automated Gradual Pruning</tspan></text>
</g></g></g></g></svg>