<?xml version="1.0" encoding="UTF-8"?>
<!DOCTYPE svg PUBLIC "-//W3C//DTD SVG 1.1//EN" "http://www.w3.org/Graphics/SVG/1.1/DTD/svg11.dtd">
<svg xmlns="http://www.w3.org/2000/svg" version="1.1" width="1920px" height="1080px" style="shape-rendering:geometricPrecision; text-rendering:geometricPrecision; image-rendering:optimizeQuality; fill-rule:evenodd; clip-rule:evenodd" xmlns:xlink="http://www.w3.org/1999/xlink">
<g><path style="opacity:0.024" fill="#55aa7e" d="M 749.5,263.5 C 751.5,263.5 753.5,263.5 755.5,263.5C 755.5,265.5 755.5,267.5 755.5,269.5C 755.5,267.5 755.5,265.5 755.5,263.5C 753.5,263.5 751.5,263.5 749.5,263.5 Z"/></g>
<g><path style="opacity:0.753" fill="#4aa59d" d="M 749.5,263.5 C 749.5,265.5 749.5,267.5 749.5,269.5C 751.5,269.5 753.5,269.5 755.5,269.5C 757.5,269.5 759.5,269.5 761.5,269.5C 761.5,271.5 761.5,273.5 761.5,275.5C 763.5,275.5 765.5,275.5 767.5,275.5C 767.5,277.5 767.5,279.5 767.5,281.5C 769.5,281.5 771.5,281.5 773.5,281.5C 773.5,283.5 773.5,285.5 773.5,287.5C 775.5,287.5 777.5,287.5 779.5,287.5C 779.5,293.5 779.5,299.5 779.5,305.5C 781.5,305.5 783.5,305.5 785.5,305.5C 785.5,311.5 785.5,317.5 785.5,323.5C 783.5,323.5 781.5,323.5 779.5,323.5C 779.5,325.5 779.5,327.5 779.5,329.5C 777.5,329.5 775.5,329.5 773.5,329.5C 773.5,333.5 773.5,337.5 773.5,341.5C 773.5,345.5 773.5,349.5 773.5,353.5C 769.5,353.5 765.5,353.5 761.5,353.5C 761.5,355.5 761.5,357.5 761.5,359.5C 759.5,359.5 757.5,359.5 755.5,359.5C 755.5,361.5 755.5,363.5 755.5,365.5C 753.5,365.5 751.5,365.5 749.5,365.5C 749.5,367.5 749.5,369.5 749.5,371.5C 745.5,371.5 741.5,371.5 737.5,371.5C 735.5,371.5 733.5,371.5 731.5,371.5C 731.5,373.5 731.5,375.5 731.5,377.5C 725.5,377.5 719.5,377.5 713.5,377.5C 713.5,375.5 713.5,373.5 713.5,371.5C 709.5,371.5 705.5,371.5 701.5,371.5C 701.5,369.5 701.5,367.5 701.5,365.5C 699.5,365.5 697.5,365.5 695.5,365.5C 693.5,365.5 691.5,365.5 689.5,365.5C 689.5,363.5 689.5,361.5 689.5,359.5C 687.5,359.5 685.5,359.5 683.5,359.5C 683.5,357.5 683.5,355.5 683.5,353.5C 681.5,353.5 679.5,353.5 677.5,353.5C 677.5,351.5 677.5,349.5 677.5,347.5C 675.5,347.5 673.5,347.5 671.5,347.5C 671.5,341.5 671.5,335.5 671.5,329.5C 669.5,329.5 667.5,329.5 665.5,329.5C 665.5,321.5 665.5,313.5 665.5,305.5C 667.5,305.5 669.5,305.5 671.5,305.5C 671.5,299.5 671.5,293.5 671.5,287.5C 673.5,287.5 675.5,287.5 677.5,287.5C 677.5,285.5 677.5,283.5 677.5,281.5C 679.5,281.5 681.5,281.5 683.5,281.5C 683.5,279.5 683.5,277.5 683.5,275.5C 685.5,275.5 687.5,275.5 689.5,275.5C 689.5,273.5 689.5,271.5 689.5,269.5C 691.5,269.5 693.5,269.5 695.5,269.5C 695.5,267.5 695.5,265.5 695.5,263.5C 701.5,263.5 707.5,263.5 713.5,263.5C 713.5,261.5 713.5,259.5 713.5,257.5C 721.5,257.5 729.5,257.5 737.5,257.5C 737.5,259.5 737.5,261.5 737.5,263.5C 741.5,263.5 745.5,263.5 749.5,263.5 Z M 767.5,329.5 C 765.5,329.5 763.5,329.5 761.5,329.5C 761.5,331.5 761.5,333.5 761.5,335.5C 761.5,337.5 761.5,339.5 761.5,341.5C 759.5,341.5 757.5,341.5 755.5,341.5C 755.5,343.5 755.5,345.5 755.5,347.5C 753.5,347.5 751.5,347.5 749.5,347.5C 749.5,349.5 749.5,351.5 749.5,353.5C 747.5,353.5 745.5,353.5 743.5,353.5C 741.5,353.5 739.5,353.5 737.5,353.5C 737.5,355.5 737.5,357.5 737.5,359.5C 727.5,359.5 717.5,359.5 707.5,359.5C 707.5,357.5 707.5,355.5 707.5,353.5C 705.5,353.5 703.5,353.5 701.5,353.5C 701.5,351.5 701.5,349.5 701.5,347.5C 699.5,347.5 697.5,347.5 695.5,347.5C 695.5,345.5 695.5,343.5 695.5,341.5C 693.5,341.5 691.5,341.5 689.5,341.5C 689.5,339.5 689.5,337.5 689.5,335.5C 687.5,335.5 685.5,335.5 683.5,335.5C 683.5,323.5 683.5,311.5 683.5,299.5C 685.5,299.5 687.5,299.5 689.5,299.5C 689.5,297.5 689.5,295.5 689.5,293.5C 691.5,293.5 693.5,293.5 695.5,293.5C 695.5,291.5 695.5,289.5 695.5,287.5C 697.5,287.5 699.5,287.5 701.5,287.5C 701.5,285.5 701.5,283.5 701.5,281.5C 703.5,281.5 705.5,281.5 707.5,281.5C 707.5,279.5 707.5,277.5 707.5,275.5C 719.5,275.5 731.5,275.5 743.5,275.5C 743.5,277.5 743.5,279.5 743.5,281.5C 745.5,281.5 747.5,281.5 749.5,281.5C 749.5,283.5 749.5,285.5 749.5,287.5C 751.5,287.5 753.5,287.5 755.5,287.5C 755.5,289.5 755.5,291.5 755.5,293.5C 757.5,293.5 759.5,293.5 761.5,293.5C 761.5,295.5 761.5,297.5 761.5,299.5C 763.5,299.5 765.5,299.5 767.5,299.5C 767.5,309.5 767.5,319.5 767.5,329.5 Z"/></g>
<g><path style="opacity:0.004" fill="#00fffe" d="M 767.5,329.5 C 767.5,331.5 767.5,333.5 767.5,335.5C 765.5,335.5 763.5,335.5 761.5,335.5C 761.5,333.5 761.5,331.5 761.5,329.5C 763.5,329.5 765.5,329.5 767.5,329.5 Z"/></g>
<g><path style="opacity:0.493" fill="#fefffe" d="M 779.5,329.5 C 785.5,329.5 791.5,329.5 797.5,329.5C 797.5,331.5 797.5,333.5 797.5,335.5C 805.5,335.5 813.5,335.5 821.5,335.5C 821.5,337.5 821.5,339.5 821.5,341.5C 827.5,341.5 833.5,341.5 839.5,341.5C 839.5,343.5 839.5,345.5 839.5,347.5C 845.5,347.5 851.5,347.5 857.5,347.5C 857.5,349.5 857.5,351.5 857.5,353.5C 863.5,353.5 869.5,353.5 875.5,353.5C 875.5,355.5 875.5,357.5 875.5,359.5C 883.5,359.5 891.5,359.5 899.5,359.5C 899.5,361.5 899.5,363.5 899.5,365.5C 901.5,365.5 903.5,365.5 905.5,365.5C 905.5,369.5 905.5,373.5 905.5,377.5C 899.5,377.5 893.5,377.5 887.5,377.5C 887.5,375.5 887.5,373.5 887.5,371.5C 879.5,371.5 871.5,371.5 863.5,371.5C 863.5,369.5 863.5,367.5 863.5,365.5C 857.5,365.5 851.5,365.5 845.5,365.5C 845.5,363.5 845.5,361.5 845.5,359.5C 839.5,359.5 833.5,359.5 827.5,359.5C 827.5,357.5 827.5,355.5 827.5,353.5C 821.5,353.5 815.5,353.5 809.5,353.5C 809.5,351.5 809.5,349.5 809.5,347.5C 801.5,347.5 793.5,347.5 785.5,347.5C 785.5,345.5 785.5,343.5 785.5,341.5C 783.5,341.5 781.5,341.5 779.5,341.5C 779.5,337.5 779.5,333.5 779.5,329.5 Z"/></g>
<g><path style="opacity:0.016" fill="#3f7f7e" d="M 953.5,329.5 C 953.5,331.5 953.5,333.5 953.5,335.5C 951.5,335.5 949.5,335.5 947.5,335.5C 947.5,333.5 947.5,331.5 947.5,329.5C 949.5,329.5 951.5,329.5 953.5,329.5 Z"/></g>
<g><path style="opacity:0.016" fill="#3f7f7e" d="M 965.5,329.5 C 967.5,329.5 969.5,329.5 971.5,329.5C 971.5,331.5 971.5,333.5 971.5,335.5C 971.5,333.5 971.5,331.5 971.5,329.5C 969.5,329.5 967.5,329.5 965.5,329.5 Z"/></g>
<g><path style="opacity:0.431" fill="#91c8c2" d="M 779.5,329.5 C 779.5,333.5 779.5,337.5 779.5,341.5C 777.5,341.5 775.5,341.5 773.5,341.5C 773.5,337.5 773.5,333.5 773.5,329.5C 775.5,329.5 777.5,329.5 779.5,329.5 Z"/></g>
<g><path style="opacity:0.012" fill="#55aa54" d="M 935.5,335.5 C 935.5,337.5 935.5,339.5 935.5,341.5C 933.5,341.5 931.5,341.5 929.5,341.5C 929.5,339.5 929.5,337.5 929.5,335.5C 931.5,335.5 933.5,335.5 935.5,335.5 Z"/></g>
<g><path style="opacity:0.012" fill="#55aa54" d="M 983.5,335.5 C 985.5,335.5 987.5,335.5 989.5,335.5C 989.5,337.5 989.5,339.5 989.5,341.5C 989.5,339.5 989.5,337.5 989.5,335.5C 987.5,335.5 985.5,335.5 983.5,335.5 Z"/></g>
<g><path style="opacity:0.035" fill="#38aa8c" d="M 689.5,341.5 C 691.5,341.5 693.5,341.5 695.5,341.5C 695.5,343.5 695.5,345.5 695.5,347.5C 693.5,347.5 691.5,347.5 689.5,347.5C 689.5,345.5 689.5,343.5 689.5,341.5 Z"/></g>
<g><path style="opacity:0.008" fill="#007f7e" d="M 743.5,353.5 C 743.5,355.5 743.5,357.5 743.5,359.5C 741.5,359.5 739.5,359.5 737.5,359.5C 737.5,357.5 737.5,355.5 737.5,353.5C 739.5,353.5 741.5,353.5 743.5,353.5 Z"/></g>
<g><path style="opacity:0.521" fill="#fefefe" d="M 773.5,353.5 C 775.5,353.5 777.5,353.5 779.5,353.5C 779.5,355.5 779.5,357.5 779.5,359.5C 781.5,359.5 783.5,359.5 785.5,359.5C 785.5,361.5 785.5,363.5 785.5,365.5C 787.5,365.5 789.5,365.5 791.5,365.5C 791.5,367.5 791.5,369.5 791.5,371.5C 793.5,371.5 795.5,371.5 797.5,371.5C 797.5,373.5 797.5,375.5 797.5,377.5C 799.5,377.5 801.5,377.5 803.5,377.5C 803.5,379.5 803.5,381.5 803.5,383.5C 805.5,383.5 807.5,383.5 809.5,383.5C 809.5,385.5 809.5,387.5 809.5,389.5C 811.5,389.5 813.5,389.5 815.5,389.5C 815.5,391.5 815.5,393.5 815.5,395.5C 817.5,395.5 819.5,395.5 821.5,395.5C 821.5,397.5 821.5,399.5 821.5,401.5C 823.5,401.5 825.5,401.5 827.5,401.5C 827.5,403.5 827.5,405.5 827.5,407.5C 829.5,407.5 831.5,407.5 833.5,407.5C 833.5,409.5 833.5,411.5 833.5,413.5C 835.5,413.5 837.5,413.5 839.5,413.5C 839.5,415.5 839.5,417.5 839.5,419.5C 843.5,419.5 847.5,419.5 851.5,419.5C 851.5,417.5 851.5,415.5 851.5,413.5C 857.5,413.5 863.5,413.5 869.5,413.5C 869.5,411.5 869.5,409.5 869.5,407.5C 875.5,407.5 881.5,407.5 887.5,407.5C 887.5,405.5 887.5,403.5 887.5,401.5C 893.5,401.5 899.5,401.5 905.5,401.5C 905.5,405.5 905.5,409.5 905.5,413.5C 903.5,413.5 901.5,413.5 899.5,413.5C 899.5,415.5 899.5,417.5 899.5,419.5C 893.5,419.5 887.5,419.5 881.5,419.5C 881.5,421.5 881.5,423.5 881.5,425.5C 875.5,425.5 869.5,425.5 863.5,425.5C 863.5,427.5 863.5,429.5 863.5,431.5C 861.5,431.5 859.5,431.5 857.5,431.5C 857.5,433.5 857.5,435.5 857.5,437.5C 859.5,437.5 861.5,437.5 863.5,437.5C 863.5,439.5 863.5,441.5 863.5,443.5C 865.5,443.5 867.5,443.5 869.5,443.5C 869.5,445.5 869.5,447.5 869.5,449.5C 871.5,449.5 873.5,449.5 875.5,449.5C 875.5,451.5 875.5,453.5 875.5,455.5C 877.5,455.5 879.5,455.5 881.5,455.5C 881.5,453.5 881.5,451.5 881.5,449.5C 883.5,449.5 885.5,449.5 887.5,449.5C 887.5,447.5 887.5,445.5 887.5,443.5C 889.5,443.5 891.5,443.5 893.5,443.5C 893.5,441.5 893.5,439.5 893.5,437.5C 895.5,437.5 897.5,437.5 899.5,437.5C 899.5,435.5 899.5,433.5 899.5,431.5C 901.5,431.5 903.5,431.5 905.5,431.5C 905.5,429.5 905.5,427.5 905.5,425.5C 907.5,425.5 909.5,425.5 911.5,425.5C 913.5,425.5 915.5,425.5 917.5,425.5C 917.5,427.5 917.5,429.5 917.5,431.5C 919.5,431.5 921.5,431.5 923.5,431.5C 923.5,433.5 923.5,435.5 923.5,437.5C 925.5,437.5 927.5,437.5 929.5,437.5C 931.5,437.5 933.5,437.5 935.5,437.5C 935.5,439.5 935.5,441.5 935.5,443.5C 935.5,445.5 935.5,447.5 935.5,449.5C 933.5,449.5 931.5,449.5 929.5,449.5C 929.5,451.5 929.5,453.5 929.5,455.5C 927.5,455.5 925.5,455.5 923.5,455.5C 923.5,459.5 923.5,463.5 923.5,467.5C 921.5,467.5 919.5,467.5 917.5,467.5C 917.5,469.5 917.5,471.5 917.5,473.5C 915.5,473.5 913.5,473.5 911.5,473.5C 911.5,477.5 911.5,481.5 911.5,485.5C 913.5,485.5 915.5,485.5 917.5,485.5C 917.5,487.5 917.5,489.5 917.5,491.5C 919.5,491.5 921.5,491.5 923.5,491.5C 923.5,493.5 923.5,495.5 923.5,497.5C 921.5,497.5 919.5,497.5 917.5,497.5C 917.5,499.5 917.5,501.5 917.5,503.5C 915.5,503.5 913.5,503.5 911.5,503.5C 909.5,503.5 907.5,503.5 905.5,503.5C 905.5,501.5 905.5,499.5 905.5,497.5C 903.5,497.5 901.5,497.5 899.5,497.5C 899.5,499.5 899.5,501.5 899.5,503.5C 897.5,503.5 895.5,503.5 893.5,503.5C 893.5,505.5 893.5,507.5 893.5,509.5C 895.5,509.5 897.5,509.5 899.5,509.5C 899.5,511.5 899.5,513.5 899.5,515.5C 901.5,515.5 903.5,515.5 905.5,515.5C 905.5,519.5 905.5,523.5 905.5,527.5C 899.5,527.5 893.5,527.5 887.5,527.5C 887.5,525.5 887.5,523.5 887.5,521.5C 885.5,521.5 883.5,521.5 881.5,521.5C 881.5,525.5 881.5,529.5 881.5,533.5C 879.5,533.5 877.5,533.5 875.5,533.5C 875.5,537.5 875.5,541.5 875.5,545.5C 877.5,545.5 879.5,545.5 881.5,545.5C 881.5,549.5 881.5,553.5 881.5,557.5C 883.5,557.5 885.5,557.5 887.5,557.5C 887.5,555.5 887.5,553.5 887.5,551.5C 893.5,551.5 899.5,551.5 905.5,551.5C 905.5,555.5 905.5,559.5 905.5,563.5C 903.5,563.5 901.5,563.5 899.5,563.5C 899.5,565.5 899.5,567.5 899.5,569.5C 897.5,569.5 895.5,569.5 893.5,569.5C 893.5,571.5 893.5,573.5 893.5,575.5C 895.5,575.5 897.5,575.5 899.5,575.5C 899.5,577.5 899.5,579.5 899.5,581.5C 901.5,581.5 903.5,581.5 905.5,581.5C 905.5,579.5 905.5,577.5 905.5,575.5C 907.5,575.5 909.5,575.5 911.5,575.5C 913.5,575.5 915.5,575.5 917.5,575.5C 917.5,577.5 917.5,579.5 917.5,581.5C 919.5,581.5 921.5,581.5 923.5,581.5C 923.5,583.5 923.5,585.5 923.5,587.5C 921.5,587.5 919.5,587.5 917.5,587.5C 917.5,589.5 917.5,591.5 917.5,593.5C 915.5,593.5 913.5,593.5 911.5,593.5C 911.5,597.5 911.5,601.5 911.5,605.5C 913.5,605.5 915.5,605.5 917.5,605.5C 917.5,607.5 917.5,609.5 917.5,611.5C 919.5,611.5 921.5,611.5 923.5,611.5C 923.5,615.5 923.5,619.5 923.5,623.5C 925.5,623.5 927.5,623.5 929.5,623.5C 929.5,625.5 929.5,627.5 929.5,629.5C 931.5,629.5 933.5,629.5 935.5,629.5C 935.5,631.5 935.5,633.5 935.5,635.5C 935.5,637.5 935.5,639.5 935.5,641.5C 933.5,641.5 931.5,641.5 929.5,641.5C 927.5,641.5 925.5,641.5 923.5,641.5C 923.5,643.5 923.5,645.5 923.5,647.5C 921.5,647.5 919.5,647.5 917.5,647.5C 917.5,649.5 917.5,651.5 917.5,653.5C 915.5,653.5 913.5,653.5 911.5,653.5C 909.5,653.5 907.5,653.5 905.5,653.5C 905.5,651.5 905.5,649.5 905.5,647.5C 903.5,647.5 901.5,647.5 899.5,647.5C 899.5,645.5 899.5,643.5 899.5,641.5C 897.5,641.5 895.5,641.5 893.5,641.5C 893.5,639.5 893.5,637.5 893.5,635.5C 891.5,635.5 889.5,635.5 887.5,635.5C 887.5,633.5 887.5,631.5 887.5,629.5C 883.5,629.5 879.5,629.5 875.5,629.5C 875.5,631.5 875.5,633.5 875.5,635.5C 873.5,635.5 871.5,635.5 869.5,635.5C 869.5,637.5 869.5,639.5 869.5,641.5C 865.5,641.5 861.5,641.5 857.5,641.5C 857.5,643.5 857.5,645.5 857.5,647.5C 859.5,647.5 861.5,647.5 863.5,647.5C 863.5,649.5 863.5,651.5 863.5,653.5C 869.5,653.5 875.5,653.5 881.5,653.5C 881.5,655.5 881.5,657.5 881.5,659.5C 887.5,659.5 893.5,659.5 899.5,659.5C 899.5,661.5 899.5,663.5 899.5,665.5C 901.5,665.5 903.5,665.5 905.5,665.5C 905.5,669.5 905.5,673.5 905.5,677.5C 899.5,677.5 893.5,677.5 887.5,677.5C 887.5,675.5 887.5,673.5 887.5,671.5C 881.5,671.5 875.5,671.5 869.5,671.5C 869.5,669.5 869.5,667.5 869.5,665.5C 863.5,665.5 857.5,665.5 851.5,665.5C 851.5,663.5 851.5,661.5 851.5,659.5C 847.5,659.5 843.5,659.5 839.5,659.5C 839.5,661.5 839.5,663.5 839.5,665.5C 837.5,665.5 835.5,665.5 833.5,665.5C 833.5,667.5 833.5,669.5 833.5,671.5C 831.5,671.5 829.5,671.5 827.5,671.5C 827.5,673.5 827.5,675.5 827.5,677.5C 825.5,677.5 823.5,677.5 821.5,677.5C 821.5,679.5 821.5,681.5 821.5,683.5C 819.5,683.5 817.5,683.5 815.5,683.5C 815.5,685.5 815.5,687.5 815.5,689.5C 813.5,689.5 811.5,689.5 809.5,689.5C 809.5,691.5 809.5,693.5 809.5,695.5C 807.5,695.5 805.5,695.5 803.5,695.5C 803.5,697.5 803.5,699.5 803.5,701.5C 801.5,701.5 799.5,701.5 797.5,701.5C 797.5,703.5 797.5,705.5 797.5,707.5C 795.5,707.5 793.5,707.5 791.5,707.5C 791.5,709.5 791.5,711.5 791.5,713.5C 789.5,713.5 787.5,713.5 785.5,713.5C 785.5,715.5 785.5,717.5 785.5,719.5C 783.5,719.5 781.5,719.5 779.5,719.5C 779.5,721.5 779.5,723.5 779.5,725.5C 777.5,725.5 775.5,725.5 773.5,725.5C 771.5,725.5 769.5,725.5 767.5,725.5C 765.5,725.5 763.5,725.5 761.5,725.5C 761.5,723.5 761.5,721.5 761.5,719.5C 759.5,719.5 757.5,719.5 755.5,719.5C 755.5,717.5 755.5,715.5 755.5,713.5C 753.5,713.5 751.5,713.5 749.5,713.5C 749.5,711.5 749.5,709.5 749.5,707.5C 751.5,707.5 753.5,707.5 755.5,707.5C 755.5,703.5 755.5,699.5 755.5,695.5C 757.5,695.5 759.5,695.5 761.5,695.5C 761.5,691.5 761.5,687.5 761.5,683.5C 763.5,683.5 765.5,683.5 767.5,683.5C 767.5,681.5 767.5,679.5 767.5,677.5C 769.5,677.5 771.5,677.5 773.5,677.5C 773.5,673.5 773.5,669.5 773.5,665.5C 775.5,665.5 777.5,665.5 779.5,665.5C 779.5,663.5 779.5,661.5 779.5,659.5C 781.5,659.5 783.5,659.5 785.5,659.5C 785.5,655.5 785.5,651.5 785.5,647.5C 787.5,647.5 789.5,647.5 791.5,647.5C 791.5,645.5 791.5,643.5 791.5,641.5C 787.5,641.5 783.5,641.5 779.5,641.5C 779.5,639.5 779.5,637.5 779.5,635.5C 779.5,633.5 779.5,631.5 779.5,629.5C 779.5,627.5 779.5,625.5 779.5,623.5C 781.5,623.5 783.5,623.5 785.5,623.5C 785.5,625.5 785.5,627.5 785.5,629.5C 791.5,629.5 797.5,629.5 803.5,629.5C 803.5,625.5 803.5,621.5 803.5,617.5C 805.5,617.5 807.5,617.5 809.5,617.5C 809.5,615.5 809.5,613.5 809.5,611.5C 811.5,611.5 813.5,611.5 815.5,611.5C 815.5,607.5 815.5,603.5 815.5,599.5C 817.5,599.5 819.5,599.5 821.5,599.5C 821.5,597.5 821.5,595.5 821.5,593.5C 815.5,593.5 809.5,593.5 803.5,593.5C 803.5,595.5 803.5,597.5 803.5,599.5C 797.5,599.5 791.5,599.5 785.5,599.5C 785.5,601.5 785.5,603.5 785.5,605.5C 783.5,605.5 781.5,605.5 779.5,605.5C 779.5,603.5 779.5,601.5 779.5,599.5C 779.5,597.5 779.5,595.5 779.5,593.5C 779.5,591.5 779.5,589.5 779.5,587.5C 783.5,587.5 787.5,587.5 791.5,587.5C 791.5,585.5 791.5,583.5 791.5,581.5C 799.5,581.5 807.5,581.5 815.5,581.5C 815.5,579.5 815.5,577.5 815.5,575.5C 819.5,575.5 823.5,575.5 827.5,575.5C 827.5,573.5 827.5,571.5 827.5,569.5C 825.5,569.5 823.5,569.5 821.5,569.5C 821.5,567.5 821.5,565.5 821.5,563.5C 819.5,563.5 817.5,563.5 815.5,563.5C 815.5,561.5 815.5,559.5 815.5,557.5C 813.5,557.5 811.5,557.5 809.5,557.5C 809.5,555.5 809.5,553.5 809.5,551.5C 805.5,551.5 801.5,551.5 797.5,551.5C 797.5,553.5 797.5,555.5 797.5,557.5C 795.5,557.5 793.5,557.5 791.5,557.5C 791.5,559.5 791.5,561.5 791.5,563.5C 789.5,563.5 787.5,563.5 785.5,563.5C 785.5,565.5 785.5,567.5 785.5,569.5C 783.5,569.5 781.5,569.5 779.5,569.5C 779.5,571.5 779.5,573.5 779.5,575.5C 777.5,575.5 775.5,575.5 773.5,575.5C 773.5,577.5 773.5,579.5 773.5,581.5C 771.5,581.5 769.5,581.5 767.5,581.5C 767.5,579.5 767.5,577.5 767.5,575.5C 765.5,575.5 763.5,575.5 761.5,575.5C 761.5,573.5 761.5,571.5 761.5,569.5C 763.5,569.5 765.5,569.5 767.5,569.5C 767.5,567.5 767.5,565.5 767.5,563.5C 769.5,563.5 771.5,563.5 773.5,563.5C 773.5,561.5 773.5,559.5 773.5,557.5C 775.5,557.5 777.5,557.5 779.5,557.5C 779.5,555.5 779.5,553.5 779.5,551.5C 781.5,551.5 783.5,551.5 785.5,551.5C 785.5,549.5 785.5,547.5 785.5,545.5C 787.5,545.5 789.5,545.5 791.5,545.5C 791.5,541.5 791.5,537.5 791.5,533.5C 787.5,533.5 783.5,533.5 779.5,533.5C 779.5,531.5 779.5,529.5 779.5,527.5C 777.5,527.5 775.5,527.5 773.5,527.5C 773.5,525.5 773.5,523.5 773.5,521.5C 771.5,521.5 769.5,521.5 767.5,521.5C 767.5,519.5 767.5,517.5 767.5,515.5C 765.5,515.5 763.5,515.5 761.5,515.5C 761.5,513.5 761.5,511.5 761.5,509.5C 761.5,507.5 761.5,505.5 761.5,503.5C 763.5,503.5 765.5,503.5 767.5,503.5C 769.5,503.5 771.5,503.5 773.5,503.5C 775.5,503.5 777.5,503.5 779.5,503.5C 779.5,505.5 779.5,507.5 779.5,509.5C 781.5,509.5 783.5,509.5 785.5,509.5C 785.5,511.5 785.5,513.5 785.5,515.5C 787.5,515.5 789.5,515.5 791.5,515.5C 791.5,517.5 791.5,519.5 791.5,521.5C 793.5,521.5 795.5,521.5 797.5,521.5C 797.5,523.5 797.5,525.5 797.5,527.5C 801.5,527.5 805.5,527.5 809.5,527.5C 809.5,525.5 809.5,523.5 809.5,521.5C 811.5,521.5 813.5,521.5 815.5,521.5C 815.5,519.5 815.5,517.5 815.5,515.5C 817.5,515.5 819.5,515.5 821.5,515.5C 821.5,513.5 821.5,511.5 821.5,509.5C 823.5,509.5 825.5,509.5 827.5,509.5C 827.5,507.5 827.5,505.5 827.5,503.5C 821.5,503.5 815.5,503.5 809.5,503.5C 809.5,501.5 809.5,499.5 809.5,497.5C 803.5,497.5 797.5,497.5 791.5,497.5C 791.5,495.5 791.5,493.5 791.5,491.5C 787.5,491.5 783.5,491.5 779.5,491.5C 779.5,487.5 779.5,483.5 779.5,479.5C 779.5,477.5 779.5,475.5 779.5,473.5C 781.5,473.5 783.5,473.5 785.5,473.5C 785.5,475.5 785.5,477.5 785.5,479.5C 791.5,479.5 797.5,479.5 803.5,479.5C 803.5,481.5 803.5,483.5 803.5,485.5C 809.5,485.5 815.5,485.5 821.5,485.5C 821.5,483.5 821.5,481.5 821.5,479.5C 819.5,479.5 817.5,479.5 815.5,479.5C 815.5,475.5 815.5,471.5 815.5,467.5C 813.5,467.5 811.5,467.5 809.5,467.5C 809.5,465.5 809.5,463.5 809.5,461.5C 807.5,461.5 805.5,461.5 803.5,461.5C 803.5,457.5 803.5,453.5 803.5,449.5C 799.5,449.5 795.5,449.5 791.5,449.5C 791.5,451.5 791.5,453.5 791.5,455.5C 787.5,455.5 783.5,455.5 779.5,455.5C 779.5,453.5 779.5,451.5 779.5,449.5C 779.5,447.5 779.5,445.5 779.5,443.5C 779.5,441.5 779.5,439.5 779.5,437.5C 783.5,437.5 787.5,437.5 791.5,437.5C 791.5,435.5 791.5,433.5 791.5,431.5C 789.5,431.5 787.5,431.5 785.5,431.5C 785.5,427.5 785.5,423.5 785.5,419.5C 783.5,419.5 781.5,419.5 779.5,419.5C 779.5,417.5 779.5,415.5 779.5,413.5C 777.5,413.5 775.5,413.5 773.5,413.5C 773.5,409.5 773.5,405.5 773.5,401.5C 771.5,401.5 769.5,401.5 767.5,401.5C 767.5,399.5 767.5,397.5 767.5,395.5C 765.5,395.5 763.5,395.5 761.5,395.5C 761.5,391.5 761.5,387.5 761.5,383.5C 759.5,383.5 757.5,383.5 755.5,383.5C 755.5,381.5 755.5,379.5 755.5,377.5C 753.5,377.5 751.5,377.5 749.5,377.5C 749.5,375.5 749.5,373.5 749.5,371.5C 749.5,369.5 749.5,367.5 749.5,365.5C 751.5,365.5 753.5,365.5 755.5,365.5C 757.5,365.5 759.5,365.5 761.5,365.5C 761.5,363.5 761.5,361.5 761.5,359.5C 761.5,357.5 761.5,355.5 761.5,353.5C 765.5,353.5 769.5,353.5 773.5,353.5 Z M 773.5,377.5 C 771.5,377.5 769.5,377.5 767.5,377.5C 767.5,375.5 767.5,373.5 767.5,371.5C 769.5,371.5 771.5,371.5 773.5,371.5C 773.5,373.5 773.5,375.5 773.5,377.5 Z M 773.5,377.5 C 775.5,377.5 777.5,377.5 779.5,377.5C 779.5,379.5 779.5,381.5 779.5,383.5C 779.5,381.5 779.5,379.5 779.5,377.5C 777.5,377.5 775.5,377.5 773.5,377.5 Z M 779.5,383.5 C 781.5,383.5 783.5,383.5 785.5,383.5C 785.5,385.5 785.5,387.5 785.5,389.5C 787.5,389.5 789.5,389.5 791.5,389.5C 791.5,391.5 791.5,393.5 791.5,395.5C 793.5,395.5 795.5,395.5 797.5,395.5C 797.5,397.5 797.5,399.5 797.5,401.5C 799.5,401.5 801.5,401.5 803.5,401.5C 803.5,403.5 803.5,405.5 803.5,407.5C 807.5,407.5 811.5,407.5 815.5,407.5C 815.5,409.5 815.5,411.5 815.5,413.5C 817.5,413.5 819.5,413.5 821.5,413.5C 821.5,415.5 821.5,417.5 821.5,419.5C 823.5,419.5 825.5,419.5 827.5,419.5C 827.5,421.5 827.5,423.5 827.5,425.5C 823.5,425.5 819.5,425.5 815.5,425.5C 815.5,427.5 815.5,429.5 815.5,431.5C 811.5,431.5 807.5,431.5 803.5,431.5C 803.5,427.5 803.5,423.5 803.5,419.5C 801.5,419.5 799.5,419.5 797.5,419.5C 797.5,417.5 797.5,415.5 797.5,413.5C 795.5,413.5 793.5,413.5 791.5,413.5C 791.5,409.5 791.5,405.5 791.5,401.5C 789.5,401.5 787.5,401.5 785.5,401.5C 785.5,399.5 785.5,397.5 785.5,395.5C 783.5,395.5 781.5,395.5 779.5,395.5C 779.5,391.5 779.5,387.5 779.5,383.5 Z M 827.5,437.5 C 833.5,437.5 839.5,437.5 845.5,437.5C 845.5,439.5 845.5,441.5 845.5,443.5C 847.5,443.5 849.5,443.5 851.5,443.5C 851.5,445.5 851.5,447.5 851.5,449.5C 853.5,449.5 855.5,449.5 857.5,449.5C 857.5,451.5 857.5,453.5 857.5,455.5C 859.5,455.5 861.5,455.5 863.5,455.5C 863.5,457.5 863.5,459.5 863.5,461.5C 865.5,461.5 867.5,461.5 869.5,461.5C 869.5,463.5 869.5,465.5 869.5,467.5C 867.5,467.5 865.5,467.5 863.5,467.5C 863.5,469.5 863.5,471.5 863.5,473.5C 861.5,473.5 859.5,473.5 857.5,473.5C 857.5,475.5 857.5,477.5 857.5,479.5C 855.5,479.5 853.5,479.5 851.5,479.5C 851.5,481.5 851.5,483.5 851.5,485.5C 849.5,485.5 847.5,485.5 845.5,485.5C 845.5,487.5 845.5,489.5 845.5,491.5C 843.5,491.5 841.5,491.5 839.5,491.5C 839.5,487.5 839.5,483.5 839.5,479.5C 837.5,479.5 835.5,479.5 833.5,479.5C 833.5,475.5 833.5,471.5 833.5,467.5C 831.5,467.5 829.5,467.5 827.5,467.5C 827.5,465.5 827.5,463.5 827.5,461.5C 825.5,461.5 823.5,461.5 821.5,461.5C 821.5,457.5 821.5,453.5 821.5,449.5C 819.5,449.5 817.5,449.5 815.5,449.5C 815.5,447.5 815.5,445.5 815.5,443.5C 819.5,443.5 823.5,443.5 827.5,443.5C 827.5,441.5 827.5,439.5 827.5,437.5 Z M 911.5,449.5 C 911.5,447.5 911.5,445.5 911.5,443.5C 913.5,443.5 915.5,443.5 917.5,443.5C 917.5,445.5 917.5,447.5 917.5,449.5C 915.5,449.5 913.5,449.5 911.5,449.5 Z M 911.5,449.5 C 911.5,451.5 911.5,453.5 911.5,455.5C 909.5,455.5 907.5,455.5 905.5,455.5C 905.5,453.5 905.5,451.5 905.5,449.5C 907.5,449.5 909.5,449.5 911.5,449.5 Z M 905.5,455.5 C 905.5,459.5 905.5,463.5 905.5,467.5C 901.5,467.5 897.5,467.5 893.5,467.5C 893.5,465.5 893.5,463.5 893.5,461.5C 895.5,461.5 897.5,461.5 899.5,461.5C 899.5,459.5 899.5,457.5 899.5,455.5C 901.5,455.5 903.5,455.5 905.5,455.5 Z M 875.5,479.5 C 879.5,479.5 883.5,479.5 887.5,479.5C 887.5,485.5 887.5,491.5 887.5,497.5C 885.5,497.5 883.5,497.5 881.5,497.5C 881.5,499.5 881.5,501.5 881.5,503.5C 873.5,503.5 865.5,503.5 857.5,503.5C 857.5,501.5 857.5,499.5 857.5,497.5C 859.5,497.5 861.5,497.5 863.5,497.5C 863.5,495.5 863.5,493.5 863.5,491.5C 865.5,491.5 867.5,491.5 869.5,491.5C 869.5,489.5 869.5,487.5 869.5,485.5C 871.5,485.5 873.5,485.5 875.5,485.5C 875.5,483.5 875.5,481.5 875.5,479.5 Z M 821.5,485.5 C 823.5,485.5 825.5,485.5 827.5,485.5C 827.5,487.5 827.5,489.5 827.5,491.5C 825.5,491.5 823.5,491.5 821.5,491.5C 821.5,489.5 821.5,487.5 821.5,485.5 Z M 833.5,515.5 C 837.5,515.5 841.5,515.5 845.5,515.5C 845.5,519.5 845.5,523.5 845.5,527.5C 847.5,527.5 849.5,527.5 851.5,527.5C 851.5,531.5 851.5,535.5 851.5,539.5C 853.5,539.5 855.5,539.5 857.5,539.5C 857.5,541.5 857.5,543.5 857.5,545.5C 855.5,545.5 853.5,545.5 851.5,545.5C 851.5,547.5 851.5,549.5 851.5,551.5C 849.5,551.5 847.5,551.5 845.5,551.5C 845.5,555.5 845.5,559.5 845.5,563.5C 841.5,563.5 837.5,563.5 833.5,563.5C 833.5,561.5 833.5,559.5 833.5,557.5C 831.5,557.5 829.5,557.5 827.5,557.5C 827.5,555.5 827.5,553.5 827.5,551.5C 825.5,551.5 823.5,551.5 821.5,551.5C 821.5,549.5 821.5,547.5 821.5,545.5C 819.5,545.5 817.5,545.5 815.5,545.5C 815.5,541.5 815.5,537.5 815.5,533.5C 817.5,533.5 819.5,533.5 821.5,533.5C 821.5,531.5 821.5,529.5 821.5,527.5C 823.5,527.5 825.5,527.5 827.5,527.5C 827.5,525.5 827.5,523.5 827.5,521.5C 829.5,521.5 831.5,521.5 833.5,521.5C 833.5,519.5 833.5,517.5 833.5,515.5 Z M 857.5,515.5 C 861.5,515.5 865.5,515.5 869.5,515.5C 869.5,519.5 869.5,523.5 869.5,527.5C 867.5,527.5 865.5,527.5 863.5,527.5C 863.5,525.5 863.5,523.5 863.5,521.5C 861.5,521.5 859.5,521.5 857.5,521.5C 857.5,519.5 857.5,517.5 857.5,515.5 Z M 857.5,557.5 C 861.5,557.5 865.5,557.5 869.5,557.5C 869.5,559.5 869.5,561.5 869.5,563.5C 865.5,563.5 861.5,563.5 857.5,563.5C 857.5,561.5 857.5,559.5 857.5,557.5 Z M 863.5,575.5 C 869.5,575.5 875.5,575.5 881.5,575.5C 881.5,579.5 881.5,583.5 881.5,587.5C 883.5,587.5 885.5,587.5 887.5,587.5C 887.5,591.5 887.5,595.5 887.5,599.5C 883.5,599.5 879.5,599.5 875.5,599.5C 875.5,597.5 875.5,595.5 875.5,593.5C 873.5,593.5 871.5,593.5 869.5,593.5C 869.5,591.5 869.5,589.5 869.5,587.5C 865.5,587.5 861.5,587.5 857.5,587.5C 857.5,585.5 857.5,583.5 857.5,581.5C 859.5,581.5 861.5,581.5 863.5,581.5C 863.5,579.5 863.5,577.5 863.5,575.5 Z M 839.5,587.5 C 841.5,587.5 843.5,587.5 845.5,587.5C 845.5,589.5 845.5,591.5 845.5,593.5C 847.5,593.5 849.5,593.5 851.5,593.5C 851.5,595.5 851.5,597.5 851.5,599.5C 853.5,599.5 855.5,599.5 857.5,599.5C 857.5,601.5 857.5,603.5 857.5,605.5C 859.5,605.5 861.5,605.5 863.5,605.5C 863.5,607.5 863.5,609.5 863.5,611.5C 865.5,611.5 867.5,611.5 869.5,611.5C 869.5,613.5 869.5,615.5 869.5,617.5C 867.5,617.5 865.5,617.5 863.5,617.5C 863.5,619.5 863.5,621.5 863.5,623.5C 861.5,623.5 859.5,623.5 857.5,623.5C 857.5,625.5 857.5,627.5 857.5,629.5C 855.5,629.5 853.5,629.5 851.5,629.5C 851.5,631.5 851.5,633.5 851.5,635.5C 849.5,635.5 847.5,635.5 845.5,635.5C 845.5,637.5 845.5,639.5 845.5,641.5C 839.5,641.5 833.5,641.5 827.5,641.5C 827.5,639.5 827.5,637.5 827.5,635.5C 823.5,635.5 819.5,635.5 815.5,635.5C 815.5,633.5 815.5,631.5 815.5,629.5C 817.5,629.5 819.5,629.5 821.5,629.5C 821.5,625.5 821.5,621.5 821.5,617.5C 823.5,617.5 825.5,617.5 827.5,617.5C 827.5,615.5 827.5,613.5 827.5,611.5C 829.5,611.5 831.5,611.5 833.5,611.5C 833.5,607.5 833.5,603.5 833.5,599.5C 835.5,599.5 837.5,599.5 839.5,599.5C 839.5,595.5 839.5,591.5 839.5,587.5 Z M 905.5,623.5 C 903.5,623.5 901.5,623.5 899.5,623.5C 899.5,621.5 899.5,619.5 899.5,617.5C 897.5,617.5 895.5,617.5 893.5,617.5C 893.5,615.5 893.5,613.5 893.5,611.5C 897.5,611.5 901.5,611.5 905.5,611.5C 905.5,615.5 905.5,619.5 905.5,623.5 Z M 905.5,623.5 C 907.5,623.5 909.5,623.5 911.5,623.5C 911.5,625.5 911.5,627.5 911.5,629.5C 911.5,627.5 911.5,625.5 911.5,623.5C 909.5,623.5 907.5,623.5 905.5,623.5 Z M 911.5,629.5 C 913.5,629.5 915.5,629.5 917.5,629.5C 917.5,631.5 917.5,633.5 917.5,635.5C 915.5,635.5 913.5,635.5 911.5,635.5C 911.5,633.5 911.5,631.5 911.5,629.5 Z M 779.5,695.5 C 779.5,691.5 779.5,687.5 779.5,683.5C 781.5,683.5 783.5,683.5 785.5,683.5C 785.5,681.5 785.5,679.5 785.5,677.5C 787.5,677.5 789.5,677.5 791.5,677.5C 791.5,673.5 791.5,669.5 791.5,665.5C 793.5,665.5 795.5,665.5 797.5,665.5C 797.5,663.5 797.5,661.5 797.5,659.5C 799.5,659.5 801.5,659.5 803.5,659.5C 803.5,655.5 803.5,651.5 803.5,647.5C 807.5,647.5 811.5,647.5 815.5,647.5C 815.5,649.5 815.5,651.5 815.5,653.5C 819.5,653.5 823.5,653.5 827.5,653.5C 827.5,655.5 827.5,657.5 827.5,659.5C 825.5,659.5 823.5,659.5 821.5,659.5C 821.5,661.5 821.5,663.5 821.5,665.5C 819.5,665.5 817.5,665.5 815.5,665.5C 815.5,667.5 815.5,669.5 815.5,671.5C 813.5,671.5 811.5,671.5 809.5,671.5C 809.5,673.5 809.5,675.5 809.5,677.5C 807.5,677.5 805.5,677.5 803.5,677.5C 803.5,679.5 803.5,681.5 803.5,683.5C 801.5,683.5 799.5,683.5 797.5,683.5C 797.5,685.5 797.5,687.5 797.5,689.5C 795.5,689.5 793.5,689.5 791.5,689.5C 791.5,691.5 791.5,693.5 791.5,695.5C 787.5,695.5 783.5,695.5 779.5,695.5 Z M 779.5,695.5 C 779.5,697.5 779.5,699.5 779.5,701.5C 777.5,701.5 775.5,701.5 773.5,701.5C 773.5,699.5 773.5,697.5 773.5,695.5C 775.5,695.5 777.5,695.5 779.5,695.5 Z"/></g>
<g><path style="opacity:0.475" fill="#c7e3e0" d="M 761.5,359.5 C 761.5,361.5 761.5,363.5 761.5,365.5C 759.5,365.5 757.5,365.5 755.5,365.5C 755.5,363.5 755.5,361.5 755.5,359.5C 757.5,359.5 759.5,359.5 761.5,359.5 Z"/></g>
<g><path style="opacity:0.004" fill="#000000" d="M 911.5,359.5 C 911.5,361.5 911.5,363.5 911.5,365.5C 909.5,365.5 907.5,365.5 905.5,365.5C 905.5,363.5 905.5,361.5 905.5,359.5C 907.5,359.5 909.5,359.5 911.5,359.5 Z"/></g>
<g><path style="opacity:0.008" fill="#7e7f7e" d="M 695.5,365.5 C 697.5,365.5 699.5,365.5 701.5,365.5C 701.5,367.5 701.5,369.5 701.5,371.5C 699.5,371.5 697.5,371.5 695.5,371.5C 695.5,369.5 695.5,367.5 695.5,365.5 Z"/></g>
<g><path style="opacity:0.72" fill="#8ac4bf" d="M 905.5,365.5 C 907.5,365.5 909.5,365.5 911.5,365.5C 911.5,369.5 911.5,373.5 911.5,377.5C 909.5,377.5 907.5,377.5 905.5,377.5C 905.5,373.5 905.5,369.5 905.5,365.5 Z"/></g>
<g><path style="opacity:0.008" fill="#7e7f7e" d="M 737.5,371.5 C 737.5,373.5 737.5,375.5 737.5,377.5C 735.5,377.5 733.5,377.5 731.5,377.5C 731.5,375.5 731.5,373.5 731.5,371.5C 733.5,371.5 735.5,371.5 737.5,371.5 Z"/></g>
<g><path style="opacity:0.724" fill="#49a49d" d="M 953.5,329.5 C 957.5,329.5 961.5,329.5 965.5,329.5C 965.5,331.5 965.5,333.5 965.5,335.5C 967.5,335.5 969.5,335.5 971.5,335.5C 975.5,335.5 979.5,335.5 983.5,335.5C 983.5,337.5 983.5,339.5 983.5,341.5C 985.5,341.5 987.5,341.5 989.5,341.5C 991.5,341.5 993.5,341.5 995.5,341.5C 995.5,343.5 995.5,345.5 995.5,347.5C 997.5,347.5 999.5,347.5 1001.5,347.5C 1001.5,349.5 1001.5,351.5 1001.5,353.5C 1003.5,353.5 1005.5,353.5 1007.5,353.5C 1007.5,355.5 1007.5,357.5 1007.5,359.5C 1009.5,359.5 1011.5,359.5 1013.5,359.5C 1013.5,365.5 1013.5,371.5 1013.5,377.5C 1013.5,379.5 1013.5,381.5 1013.5,383.5C 1015.5,383.5 1017.5,383.5 1019.5,383.5C 1019.5,387.5 1019.5,391.5 1019.5,395.5C 1017.5,395.5 1015.5,395.5 1013.5,395.5C 1013.5,397.5 1013.5,399.5 1013.5,401.5C 1011.5,401.5 1009.5,401.5 1007.5,401.5C 1007.5,405.5 1007.5,409.5 1007.5,413.5C 1007.5,417.5 1007.5,421.5 1007.5,425.5C 1005.5,425.5 1003.5,425.5 1001.5,425.5C 999.5,425.5 997.5,425.5 995.5,425.5C 995.5,427.5 995.5,429.5 995.5,431.5C 995.5,433.5 995.5,435.5 995.5,437.5C 993.5,437.5 991.5,437.5 989.5,437.5C 989.5,439.5 989.5,441.5 989.5,443.5C 983.5,443.5 977.5,443.5 971.5,443.5C 971.5,445.5 971.5,447.5 971.5,449.5C 963.5,449.5 955.5,449.5 947.5,449.5C 947.5,447.5 947.5,445.5 947.5,443.5C 943.5,443.5 939.5,443.5 935.5,443.5C 935.5,441.5 935.5,439.5 935.5,437.5C 933.5,437.5 931.5,437.5 929.5,437.5C 927.5,437.5 925.5,437.5 923.5,437.5C 923.5,435.5 923.5,433.5 923.5,431.5C 921.5,431.5 919.5,431.5 917.5,431.5C 917.5,429.5 917.5,427.5 917.5,425.5C 915.5,425.5 913.5,425.5 911.5,425.5C 911.5,421.5 911.5,417.5 911.5,413.5C 911.5,409.5 911.5,405.5 911.5,401.5C 909.5,401.5 907.5,401.5 905.5,401.5C 905.5,399.5 905.5,397.5 905.5,395.5C 903.5,395.5 901.5,395.5 899.5,395.5C 899.5,391.5 899.5,387.5 899.5,383.5C 901.5,383.5 903.5,383.5 905.5,383.5C 905.5,381.5 905.5,379.5 905.5,377.5C 907.5,377.5 909.5,377.5 911.5,377.5C 911.5,373.5 911.5,369.5 911.5,365.5C 911.5,363.5 911.5,361.5 911.5,359.5C 911.5,357.5 911.5,355.5 911.5,353.5C 913.5,353.5 915.5,353.5 917.5,353.5C 917.5,351.5 917.5,349.5 917.5,347.5C 919.5,347.5 921.5,347.5 923.5,347.5C 923.5,345.5 923.5,343.5 923.5,341.5C 925.5,341.5 927.5,341.5 929.5,341.5C 931.5,341.5 933.5,341.5 935.5,341.5C 935.5,339.5 935.5,337.5 935.5,335.5C 939.5,335.5 943.5,335.5 947.5,335.5C 949.5,335.5 951.5,335.5 953.5,335.5C 953.5,333.5 953.5,331.5 953.5,329.5 Z M 995.5,413.5 C 993.5,413.5 991.5,413.5 989.5,413.5C 989.5,415.5 989.5,417.5 989.5,419.5C 987.5,419.5 985.5,419.5 983.5,419.5C 983.5,421.5 983.5,423.5 983.5,425.5C 981.5,425.5 979.5,425.5 977.5,425.5C 977.5,427.5 977.5,429.5 977.5,431.5C 965.5,431.5 953.5,431.5 941.5,431.5C 941.5,429.5 941.5,427.5 941.5,425.5C 939.5,425.5 937.5,425.5 935.5,425.5C 935.5,423.5 935.5,421.5 935.5,419.5C 933.5,419.5 931.5,419.5 929.5,419.5C 929.5,417.5 929.5,415.5 929.5,413.5C 927.5,413.5 925.5,413.5 923.5,413.5C 923.5,411.5 923.5,409.5 923.5,407.5C 921.5,407.5 919.5,407.5 917.5,407.5C 917.5,395.5 917.5,383.5 917.5,371.5C 919.5,371.5 921.5,371.5 923.5,371.5C 923.5,369.5 923.5,367.5 923.5,365.5C 925.5,365.5 927.5,365.5 929.5,365.5C 929.5,363.5 929.5,361.5 929.5,359.5C 931.5,359.5 933.5,359.5 935.5,359.5C 935.5,357.5 935.5,355.5 935.5,353.5C 937.5,353.5 939.5,353.5 941.5,353.5C 941.5,351.5 941.5,349.5 941.5,347.5C 953.5,347.5 965.5,347.5 977.5,347.5C 977.5,349.5 977.5,351.5 977.5,353.5C 979.5,353.5 981.5,353.5 983.5,353.5C 983.5,355.5 983.5,357.5 983.5,359.5C 985.5,359.5 987.5,359.5 989.5,359.5C 989.5,361.5 989.5,363.5 989.5,365.5C 991.5,365.5 993.5,365.5 995.5,365.5C 995.5,367.5 995.5,369.5 995.5,371.5C 997.5,371.5 999.5,371.5 1001.5,371.5C 1001.5,383.5 1001.5,395.5 1001.5,407.5C 999.5,407.5 997.5,407.5 995.5,407.5C 995.5,409.5 995.5,411.5 995.5,413.5 Z"/></g>
<g><path style="opacity:0.024" fill="#557f7e" d="M 1013.5,377.5 C 1015.5,377.5 1017.5,377.5 1019.5,377.5C 1019.5,379.5 1019.5,381.5 1019.5,383.5C 1019.5,381.5 1019.5,379.5 1019.5,377.5C 1017.5,377.5 1015.5,377.5 1013.5,377.5 Z"/></g>
<g><path style="opacity:0.478" fill="#fefffe" d="M 1013.5,401.5 C 1019.5,401.5 1025.5,401.5 1031.5,401.5C 1031.5,403.5 1031.5,405.5 1031.5,407.5C 1037.5,407.5 1043.5,407.5 1049.5,407.5C 1049.5,409.5 1049.5,411.5 1049.5,413.5C 1055.5,413.5 1061.5,413.5 1067.5,413.5C 1067.5,415.5 1067.5,417.5 1067.5,419.5C 1073.5,419.5 1079.5,419.5 1085.5,419.5C 1085.5,421.5 1085.5,423.5 1085.5,425.5C 1091.5,425.5 1097.5,425.5 1103.5,425.5C 1103.5,427.5 1103.5,429.5 1103.5,431.5C 1109.5,431.5 1115.5,431.5 1121.5,431.5C 1121.5,433.5 1121.5,435.5 1121.5,437.5C 1127.5,437.5 1133.5,437.5 1139.5,437.5C 1139.5,439.5 1139.5,441.5 1139.5,443.5C 1139.5,445.5 1139.5,447.5 1139.5,449.5C 1139.5,451.5 1139.5,453.5 1139.5,455.5C 1135.5,455.5 1131.5,455.5 1127.5,455.5C 1127.5,453.5 1127.5,451.5 1127.5,449.5C 1121.5,449.5 1115.5,449.5 1109.5,449.5C 1109.5,447.5 1109.5,445.5 1109.5,443.5C 1103.5,443.5 1097.5,443.5 1091.5,443.5C 1091.5,441.5 1091.5,439.5 1091.5,437.5C 1085.5,437.5 1079.5,437.5 1073.5,437.5C 1073.5,435.5 1073.5,433.5 1073.5,431.5C 1067.5,431.5 1061.5,431.5 1055.5,431.5C 1055.5,429.5 1055.5,427.5 1055.5,425.5C 1049.5,425.5 1043.5,425.5 1037.5,425.5C 1037.5,423.5 1037.5,421.5 1037.5,419.5C 1031.5,419.5 1025.5,419.5 1019.5,419.5C 1019.5,417.5 1019.5,415.5 1019.5,413.5C 1017.5,413.5 1015.5,413.5 1013.5,413.5C 1013.5,409.5 1013.5,405.5 1013.5,401.5 Z"/></g>
<g><path style="opacity:0.573" fill="#98ccc7" d="M 905.5,401.5 C 907.5,401.5 909.5,401.5 911.5,401.5C 911.5,405.5 911.5,409.5 911.5,413.5C 909.5,413.5 907.5,413.5 905.5,413.5C 905.5,409.5 905.5,405.5 905.5,401.5 Z"/></g>
<g><path style="opacity:0.573" fill="#98ccc7" d="M 1013.5,401.5 C 1013.5,405.5 1013.5,409.5 1013.5,413.5C 1011.5,413.5 1009.5,413.5 1007.5,413.5C 1007.5,409.5 1007.5,405.5 1007.5,401.5C 1009.5,401.5 1011.5,401.5 1013.5,401.5 Z"/></g>
<g><path style="opacity:0.717" fill="#4aa59d" d="M 779.5,437.5 C 779.5,439.5 779.5,441.5 779.5,443.5C 777.5,443.5 775.5,443.5 773.5,443.5C 773.5,445.5 773.5,447.5 773.5,449.5C 775.5,449.5 777.5,449.5 779.5,449.5C 779.5,451.5 779.5,453.5 779.5,455.5C 779.5,457.5 779.5,459.5 779.5,461.5C 781.5,461.5 783.5,461.5 785.5,461.5C 785.5,465.5 785.5,469.5 785.5,473.5C 783.5,473.5 781.5,473.5 779.5,473.5C 779.5,475.5 779.5,477.5 779.5,479.5C 777.5,479.5 775.5,479.5 773.5,479.5C 773.5,483.5 773.5,487.5 773.5,491.5C 773.5,493.5 773.5,495.5 773.5,497.5C 771.5,497.5 769.5,497.5 767.5,497.5C 767.5,499.5 767.5,501.5 767.5,503.5C 765.5,503.5 763.5,503.5 761.5,503.5C 761.5,505.5 761.5,507.5 761.5,509.5C 759.5,509.5 757.5,509.5 755.5,509.5C 755.5,511.5 755.5,513.5 755.5,515.5C 753.5,515.5 751.5,515.5 749.5,515.5C 749.5,517.5 749.5,519.5 749.5,521.5C 733.5,521.5 717.5,521.5 701.5,521.5C 701.5,519.5 701.5,517.5 701.5,515.5C 697.5,515.5 693.5,515.5 689.5,515.5C 689.5,513.5 689.5,511.5 689.5,509.5C 687.5,509.5 685.5,509.5 683.5,509.5C 683.5,507.5 683.5,505.5 683.5,503.5C 681.5,503.5 679.5,503.5 677.5,503.5C 677.5,499.5 677.5,495.5 677.5,491.5C 675.5,491.5 673.5,491.5 671.5,491.5C 671.5,487.5 671.5,483.5 671.5,479.5C 669.5,479.5 667.5,479.5 665.5,479.5C 665.5,471.5 665.5,463.5 665.5,455.5C 667.5,455.5 669.5,455.5 671.5,455.5C 671.5,449.5 671.5,443.5 671.5,437.5C 673.5,437.5 675.5,437.5 677.5,437.5C 677.5,435.5 677.5,433.5 677.5,431.5C 679.5,431.5 681.5,431.5 683.5,431.5C 683.5,429.5 683.5,427.5 683.5,425.5C 685.5,425.5 687.5,425.5 689.5,425.5C 689.5,423.5 689.5,421.5 689.5,419.5C 691.5,419.5 693.5,419.5 695.5,419.5C 695.5,417.5 695.5,415.5 695.5,413.5C 699.5,413.5 703.5,413.5 707.5,413.5C 707.5,411.5 707.5,409.5 707.5,407.5C 719.5,407.5 731.5,407.5 743.5,407.5C 743.5,409.5 743.5,411.5 743.5,413.5C 747.5,413.5 751.5,413.5 755.5,413.5C 755.5,415.5 755.5,417.5 755.5,419.5C 757.5,419.5 759.5,419.5 761.5,419.5C 761.5,421.5 761.5,423.5 761.5,425.5C 763.5,425.5 765.5,425.5 767.5,425.5C 767.5,427.5 767.5,429.5 767.5,431.5C 769.5,431.5 771.5,431.5 773.5,431.5C 773.5,433.5 773.5,435.5 773.5,437.5C 775.5,437.5 777.5,437.5 779.5,437.5 Z M 767.5,479.5 C 765.5,479.5 763.5,479.5 761.5,479.5C 761.5,481.5 761.5,483.5 761.5,485.5C 761.5,487.5 761.5,489.5 761.5,491.5C 759.5,491.5 757.5,491.5 755.5,491.5C 755.5,493.5 755.5,495.5 755.5,497.5C 753.5,497.5 751.5,497.5 749.5,497.5C 749.5,499.5 749.5,501.5 749.5,503.5C 745.5,503.5 741.5,503.5 737.5,503.5C 737.5,505.5 737.5,507.5 737.5,509.5C 729.5,509.5 721.5,509.5 713.5,509.5C 713.5,507.5 713.5,505.5 713.5,503.5C 709.5,503.5 705.5,503.5 701.5,503.5C 701.5,501.5 701.5,499.5 701.5,497.5C 699.5,497.5 697.5,497.5 695.5,497.5C 695.5,495.5 695.5,493.5 695.5,491.5C 693.5,491.5 691.5,491.5 689.5,491.5C 689.5,489.5 689.5,487.5 689.5,485.5C 689.5,483.5 689.5,481.5 689.5,479.5C 687.5,479.5 685.5,479.5 683.5,479.5C 683.5,469.5 683.5,459.5 683.5,449.5C 685.5,449.5 687.5,449.5 689.5,449.5C 689.5,445.5 689.5,441.5 689.5,437.5C 691.5,437.5 693.5,437.5 695.5,437.5C 695.5,435.5 695.5,433.5 695.5,431.5C 699.5,431.5 703.5,431.5 707.5,431.5C 707.5,429.5 707.5,427.5 707.5,425.5C 719.5,425.5 731.5,425.5 743.5,425.5C 743.5,427.5 743.5,429.5 743.5,431.5C 747.5,431.5 751.5,431.5 755.5,431.5C 755.5,433.5 755.5,435.5 755.5,437.5C 757.5,437.5 759.5,437.5 761.5,437.5C 761.5,441.5 761.5,445.5 761.5,449.5C 763.5,449.5 765.5,449.5 767.5,449.5C 767.5,459.5 767.5,469.5 767.5,479.5 Z"/></g>
<g><path style="opacity:0.027" fill="#48b690" d="M 923.5,413.5 C 925.5,413.5 927.5,413.5 929.5,413.5C 929.5,415.5 929.5,417.5 929.5,419.5C 927.5,419.5 925.5,419.5 923.5,419.5C 923.5,417.5 923.5,415.5 923.5,413.5 Z"/></g>
<g><path style="opacity:0.027" fill="#48b690" d="M 995.5,413.5 C 995.5,415.5 995.5,417.5 995.5,419.5C 993.5,419.5 991.5,419.5 989.5,419.5C 989.5,417.5 989.5,415.5 989.5,413.5C 991.5,413.5 993.5,413.5 995.5,413.5 Z"/></g>
<g><path style="opacity:0.716" fill="#4aa59d" d="M 1163.5,515.5 C 1163.5,513.5 1163.5,511.5 1163.5,509.5C 1161.5,509.5 1159.5,509.5 1157.5,509.5C 1157.5,507.5 1157.5,505.5 1157.5,503.5C 1155.5,503.5 1153.5,503.5 1151.5,503.5C 1151.5,501.5 1151.5,499.5 1151.5,497.5C 1149.5,497.5 1147.5,497.5 1145.5,497.5C 1145.5,495.5 1145.5,493.5 1145.5,491.5C 1145.5,487.5 1145.5,483.5 1145.5,479.5C 1143.5,479.5 1141.5,479.5 1139.5,479.5C 1139.5,477.5 1139.5,475.5 1139.5,473.5C 1137.5,473.5 1135.5,473.5 1133.5,473.5C 1133.5,469.5 1133.5,465.5 1133.5,461.5C 1135.5,461.5 1137.5,461.5 1139.5,461.5C 1139.5,459.5 1139.5,457.5 1139.5,455.5C 1139.5,453.5 1139.5,451.5 1139.5,449.5C 1141.5,449.5 1143.5,449.5 1145.5,449.5C 1145.5,447.5 1145.5,445.5 1145.5,443.5C 1143.5,443.5 1141.5,443.5 1139.5,443.5C 1139.5,441.5 1139.5,439.5 1139.5,437.5C 1141.5,437.5 1143.5,437.5 1145.5,437.5C 1145.5,435.5 1145.5,433.5 1145.5,431.5C 1147.5,431.5 1149.5,431.5 1151.5,431.5C 1151.5,429.5 1151.5,427.5 1151.5,425.5C 1153.5,425.5 1155.5,425.5 1157.5,425.5C 1157.5,423.5 1157.5,421.5 1157.5,419.5C 1159.5,419.5 1161.5,419.5 1163.5,419.5C 1163.5,417.5 1163.5,415.5 1163.5,413.5C 1167.5,413.5 1171.5,413.5 1175.5,413.5C 1175.5,411.5 1175.5,409.5 1175.5,407.5C 1187.5,407.5 1199.5,407.5 1211.5,407.5C 1211.5,409.5 1211.5,411.5 1211.5,413.5C 1215.5,413.5 1219.5,413.5 1223.5,413.5C 1223.5,415.5 1223.5,417.5 1223.5,419.5C 1225.5,419.5 1227.5,419.5 1229.5,419.5C 1229.5,421.5 1229.5,423.5 1229.5,425.5C 1231.5,425.5 1233.5,425.5 1235.5,425.5C 1235.5,427.5 1235.5,429.5 1235.5,431.5C 1237.5,431.5 1239.5,431.5 1241.5,431.5C 1241.5,433.5 1241.5,435.5 1241.5,437.5C 1243.5,437.5 1245.5,437.5 1247.5,437.5C 1247.5,443.5 1247.5,449.5 1247.5,455.5C 1249.5,455.5 1251.5,455.5 1253.5,455.5C 1253.5,463.5 1253.5,471.5 1253.5,479.5C 1251.5,479.5 1249.5,479.5 1247.5,479.5C 1247.5,483.5 1247.5,487.5 1247.5,491.5C 1245.5,491.5 1243.5,491.5 1241.5,491.5C 1241.5,495.5 1241.5,499.5 1241.5,503.5C 1239.5,503.5 1237.5,503.5 1235.5,503.5C 1235.5,505.5 1235.5,507.5 1235.5,509.5C 1233.5,509.5 1231.5,509.5 1229.5,509.5C 1229.5,511.5 1229.5,513.5 1229.5,515.5C 1225.5,515.5 1221.5,515.5 1217.5,515.5C 1217.5,517.5 1217.5,519.5 1217.5,521.5C 1201.5,521.5 1185.5,521.5 1169.5,521.5C 1169.5,519.5 1169.5,517.5 1169.5,515.5C 1167.5,515.5 1165.5,515.5 1163.5,515.5 Z M 1235.5,479.5 C 1233.5,479.5 1231.5,479.5 1229.5,479.5C 1229.5,481.5 1229.5,483.5 1229.5,485.5C 1229.5,487.5 1229.5,489.5 1229.5,491.5C 1227.5,491.5 1225.5,491.5 1223.5,491.5C 1223.5,493.5 1223.5,495.5 1223.5,497.5C 1221.5,497.5 1219.5,497.5 1217.5,497.5C 1217.5,499.5 1217.5,501.5 1217.5,503.5C 1213.5,503.5 1209.5,503.5 1205.5,503.5C 1205.5,505.5 1205.5,507.5 1205.5,509.5C 1197.5,509.5 1189.5,509.5 1181.5,509.5C 1181.5,507.5 1181.5,505.5 1181.5,503.5C 1177.5,503.5 1173.5,503.5 1169.5,503.5C 1169.5,501.5 1169.5,499.5 1169.5,497.5C 1167.5,497.5 1165.5,497.5 1163.5,497.5C 1163.5,495.5 1163.5,493.5 1163.5,491.5C 1161.5,491.5 1159.5,491.5 1157.5,491.5C 1157.5,489.5 1157.5,487.5 1157.5,485.5C 1157.5,483.5 1157.5,481.5 1157.5,479.5C 1155.5,479.5 1153.5,479.5 1151.5,479.5C 1151.5,469.5 1151.5,459.5 1151.5,449.5C 1153.5,449.5 1155.5,449.5 1157.5,449.5C 1157.5,445.5 1157.5,441.5 1157.5,437.5C 1159.5,437.5 1161.5,437.5 1163.5,437.5C 1163.5,435.5 1163.5,433.5 1163.5,431.5C 1167.5,431.5 1171.5,431.5 1175.5,431.5C 1175.5,429.5 1175.5,427.5 1175.5,425.5C 1187.5,425.5 1199.5,425.5 1211.5,425.5C 1211.5,427.5 1211.5,429.5 1211.5,431.5C 1215.5,431.5 1219.5,431.5 1223.5,431.5C 1223.5,433.5 1223.5,435.5 1223.5,437.5C 1225.5,437.5 1227.5,437.5 1229.5,437.5C 1229.5,441.5 1229.5,445.5 1229.5,449.5C 1231.5,449.5 1233.5,449.5 1235.5,449.5C 1235.5,459.5 1235.5,469.5 1235.5,479.5 Z"/></g>
<g><path style="opacity:0.894" fill="#c6e3df" d="M 917.5,425.5 C 919.5,425.5 921.5,425.5 923.5,425.5C 923.5,427.5 923.5,429.5 923.5,431.5C 923.5,429.5 923.5,427.5 923.5,425.5C 921.5,425.5 919.5,425.5 917.5,425.5 Z"/></g>
<g><path style="opacity:0.894" fill="#c6e3df" d="M 1001.5,425.5 C 1001.5,427.5 1001.5,429.5 1001.5,431.5C 999.5,431.5 997.5,431.5 995.5,431.5C 995.5,429.5 995.5,427.5 995.5,425.5C 997.5,425.5 999.5,425.5 1001.5,425.5 Z"/></g>
<g><path style="opacity:0.498" fill="#fefefe" d="M 1001.5,425.5 C 1003.5,425.5 1005.5,425.5 1007.5,425.5C 1009.5,425.5 1011.5,425.5 1013.5,425.5C 1013.5,427.5 1013.5,429.5 1013.5,431.5C 1015.5,431.5 1017.5,431.5 1019.5,431.5C 1019.5,433.5 1019.5,435.5 1019.5,437.5C 1021.5,437.5 1023.5,437.5 1025.5,437.5C 1025.5,439.5 1025.5,441.5 1025.5,443.5C 1027.5,443.5 1029.5,443.5 1031.5,443.5C 1031.5,445.5 1031.5,447.5 1031.5,449.5C 1033.5,449.5 1035.5,449.5 1037.5,449.5C 1037.5,451.5 1037.5,453.5 1037.5,455.5C 1039.5,455.5 1041.5,455.5 1043.5,455.5C 1043.5,457.5 1043.5,459.5 1043.5,461.5C 1045.5,461.5 1047.5,461.5 1049.5,461.5C 1049.5,463.5 1049.5,465.5 1049.5,467.5C 1051.5,467.5 1053.5,467.5 1055.5,467.5C 1055.5,469.5 1055.5,471.5 1055.5,473.5C 1057.5,473.5 1059.5,473.5 1061.5,473.5C 1061.5,475.5 1061.5,477.5 1061.5,479.5C 1063.5,479.5 1065.5,479.5 1067.5,479.5C 1067.5,481.5 1067.5,483.5 1067.5,485.5C 1069.5,485.5 1071.5,485.5 1073.5,485.5C 1073.5,487.5 1073.5,489.5 1073.5,491.5C 1081.5,491.5 1089.5,491.5 1097.5,491.5C 1097.5,489.5 1097.5,487.5 1097.5,485.5C 1103.5,485.5 1109.5,485.5 1115.5,485.5C 1115.5,483.5 1115.5,481.5 1115.5,479.5C 1121.5,479.5 1127.5,479.5 1133.5,479.5C 1133.5,477.5 1133.5,475.5 1133.5,473.5C 1135.5,473.5 1137.5,473.5 1139.5,473.5C 1139.5,475.5 1139.5,477.5 1139.5,479.5C 1139.5,483.5 1139.5,487.5 1139.5,491.5C 1135.5,491.5 1131.5,491.5 1127.5,491.5C 1127.5,493.5 1127.5,495.5 1127.5,497.5C 1121.5,497.5 1115.5,497.5 1109.5,497.5C 1109.5,499.5 1109.5,501.5 1109.5,503.5C 1103.5,503.5 1097.5,503.5 1091.5,503.5C 1091.5,505.5 1091.5,507.5 1091.5,509.5C 1093.5,509.5 1095.5,509.5 1097.5,509.5C 1097.5,511.5 1097.5,513.5 1097.5,515.5C 1099.5,515.5 1101.5,515.5 1103.5,515.5C 1103.5,517.5 1103.5,519.5 1103.5,521.5C 1105.5,521.5 1107.5,521.5 1109.5,521.5C 1109.5,523.5 1109.5,525.5 1109.5,527.5C 1113.5,527.5 1117.5,527.5 1121.5,527.5C 1121.5,525.5 1121.5,523.5 1121.5,521.5C 1123.5,521.5 1125.5,521.5 1127.5,521.5C 1127.5,519.5 1127.5,517.5 1127.5,515.5C 1129.5,515.5 1131.5,515.5 1133.5,515.5C 1133.5,513.5 1133.5,511.5 1133.5,509.5C 1135.5,509.5 1137.5,509.5 1139.5,509.5C 1139.5,507.5 1139.5,505.5 1139.5,503.5C 1141.5,503.5 1143.5,503.5 1145.5,503.5C 1147.5,503.5 1149.5,503.5 1151.5,503.5C 1153.5,503.5 1155.5,503.5 1157.5,503.5C 1157.5,505.5 1157.5,507.5 1157.5,509.5C 1157.5,511.5 1157.5,513.5 1157.5,515.5C 1155.5,515.5 1153.5,515.5 1151.5,515.5C 1151.5,517.5 1151.5,519.5 1151.5,521.5C 1149.5,521.5 1147.5,521.5 1145.5,521.5C 1145.5,523.5 1145.5,525.5 1145.5,527.5C 1143.5,527.5 1141.5,527.5 1139.5,527.5C 1139.5,529.5 1139.5,531.5 1139.5,533.5C 1135.5,533.5 1131.5,533.5 1127.5,533.5C 1127.5,537.5 1127.5,541.5 1127.5,545.5C 1129.5,545.5 1131.5,545.5 1133.5,545.5C 1133.5,547.5 1133.5,549.5 1133.5,551.5C 1135.5,551.5 1137.5,551.5 1139.5,551.5C 1139.5,553.5 1139.5,555.5 1139.5,557.5C 1141.5,557.5 1143.5,557.5 1145.5,557.5C 1145.5,559.5 1145.5,561.5 1145.5,563.5C 1147.5,563.5 1149.5,563.5 1151.5,563.5C 1151.5,565.5 1151.5,567.5 1151.5,569.5C 1153.5,569.5 1155.5,569.5 1157.5,569.5C 1157.5,571.5 1157.5,573.5 1157.5,575.5C 1155.5,575.5 1153.5,575.5 1151.5,575.5C 1151.5,577.5 1151.5,579.5 1151.5,581.5C 1149.5,581.5 1147.5,581.5 1145.5,581.5C 1145.5,579.5 1145.5,577.5 1145.5,575.5C 1143.5,575.5 1141.5,575.5 1139.5,575.5C 1139.5,573.5 1139.5,571.5 1139.5,569.5C 1137.5,569.5 1135.5,569.5 1133.5,569.5C 1133.5,567.5 1133.5,565.5 1133.5,563.5C 1131.5,563.5 1129.5,563.5 1127.5,563.5C 1127.5,561.5 1127.5,559.5 1127.5,557.5C 1125.5,557.5 1123.5,557.5 1121.5,557.5C 1121.5,555.5 1121.5,553.5 1121.5,551.5C 1117.5,551.5 1113.5,551.5 1109.5,551.5C 1109.5,553.5 1109.5,555.5 1109.5,557.5C 1107.5,557.5 1105.5,557.5 1103.5,557.5C 1103.5,559.5 1103.5,561.5 1103.5,563.5C 1101.5,563.5 1099.5,563.5 1097.5,563.5C 1097.5,565.5 1097.5,567.5 1097.5,569.5C 1095.5,569.5 1093.5,569.5 1091.5,569.5C 1091.5,571.5 1091.5,573.5 1091.5,575.5C 1095.5,575.5 1099.5,575.5 1103.5,575.5C 1103.5,577.5 1103.5,579.5 1103.5,581.5C 1111.5,581.5 1119.5,581.5 1127.5,581.5C 1127.5,583.5 1127.5,585.5 1127.5,587.5C 1131.5,587.5 1135.5,587.5 1139.5,587.5C 1139.5,589.5 1139.5,591.5 1139.5,593.5C 1139.5,595.5 1139.5,597.5 1139.5,599.5C 1139.5,601.5 1139.5,603.5 1139.5,605.5C 1137.5,605.5 1135.5,605.5 1133.5,605.5C 1133.5,603.5 1133.5,601.5 1133.5,599.5C 1127.5,599.5 1121.5,599.5 1115.5,599.5C 1115.5,597.5 1115.5,595.5 1115.5,593.5C 1107.5,593.5 1099.5,593.5 1091.5,593.5C 1091.5,591.5 1091.5,589.5 1091.5,587.5C 1085.5,587.5 1079.5,587.5 1073.5,587.5C 1073.5,589.5 1073.5,591.5 1073.5,593.5C 1071.5,593.5 1069.5,593.5 1067.5,593.5C 1067.5,595.5 1067.5,597.5 1067.5,599.5C 1065.5,599.5 1063.5,599.5 1061.5,599.5C 1061.5,601.5 1061.5,603.5 1061.5,605.5C 1059.5,605.5 1057.5,605.5 1055.5,605.5C 1055.5,607.5 1055.5,609.5 1055.5,611.5C 1053.5,611.5 1051.5,611.5 1049.5,611.5C 1049.5,613.5 1049.5,615.5 1049.5,617.5C 1047.5,617.5 1045.5,617.5 1043.5,617.5C 1043.5,619.5 1043.5,621.5 1043.5,623.5C 1041.5,623.5 1039.5,623.5 1037.5,623.5C 1037.5,625.5 1037.5,627.5 1037.5,629.5C 1035.5,629.5 1033.5,629.5 1031.5,629.5C 1031.5,631.5 1031.5,633.5 1031.5,635.5C 1029.5,635.5 1027.5,635.5 1025.5,635.5C 1025.5,637.5 1025.5,639.5 1025.5,641.5C 1023.5,641.5 1021.5,641.5 1019.5,641.5C 1019.5,643.5 1019.5,645.5 1019.5,647.5C 1017.5,647.5 1015.5,647.5 1013.5,647.5C 1013.5,649.5 1013.5,651.5 1013.5,653.5C 1011.5,653.5 1009.5,653.5 1007.5,653.5C 1005.5,653.5 1003.5,653.5 1001.5,653.5C 1001.5,651.5 1001.5,649.5 1001.5,647.5C 999.5,647.5 997.5,647.5 995.5,647.5C 995.5,645.5 995.5,643.5 995.5,641.5C 997.5,641.5 999.5,641.5 1001.5,641.5C 1001.5,639.5 1001.5,637.5 1001.5,635.5C 1003.5,635.5 1005.5,635.5 1007.5,635.5C 1007.5,633.5 1007.5,631.5 1007.5,629.5C 1009.5,629.5 1011.5,629.5 1013.5,629.5C 1013.5,627.5 1013.5,625.5 1013.5,623.5C 1015.5,623.5 1017.5,623.5 1019.5,623.5C 1019.5,621.5 1019.5,619.5 1019.5,617.5C 1021.5,617.5 1023.5,617.5 1025.5,617.5C 1025.5,615.5 1025.5,613.5 1025.5,611.5C 1027.5,611.5 1029.5,611.5 1031.5,611.5C 1031.5,609.5 1031.5,607.5 1031.5,605.5C 1033.5,605.5 1035.5,605.5 1037.5,605.5C 1037.5,603.5 1037.5,601.5 1037.5,599.5C 1039.5,599.5 1041.5,599.5 1043.5,599.5C 1043.5,597.5 1043.5,595.5 1043.5,593.5C 1045.5,593.5 1047.5,593.5 1049.5,593.5C 1049.5,591.5 1049.5,589.5 1049.5,587.5C 1053.5,587.5 1057.5,587.5 1061.5,587.5C 1061.5,585.5 1061.5,583.5 1061.5,581.5C 1059.5,581.5 1057.5,581.5 1055.5,581.5C 1055.5,579.5 1055.5,577.5 1055.5,575.5C 1049.5,575.5 1043.5,575.5 1037.5,575.5C 1037.5,573.5 1037.5,571.5 1037.5,569.5C 1031.5,569.5 1025.5,569.5 1019.5,569.5C 1019.5,567.5 1019.5,565.5 1019.5,563.5C 1017.5,563.5 1015.5,563.5 1013.5,563.5C 1013.5,559.5 1013.5,555.5 1013.5,551.5C 1019.5,551.5 1025.5,551.5 1031.5,551.5C 1031.5,553.5 1031.5,555.5 1031.5,557.5C 1037.5,557.5 1043.5,557.5 1049.5,557.5C 1049.5,559.5 1049.5,561.5 1049.5,563.5C 1055.5,563.5 1061.5,563.5 1067.5,563.5C 1067.5,565.5 1067.5,567.5 1067.5,569.5C 1071.5,569.5 1075.5,569.5 1079.5,569.5C 1079.5,567.5 1079.5,565.5 1079.5,563.5C 1081.5,563.5 1083.5,563.5 1085.5,563.5C 1085.5,561.5 1085.5,559.5 1085.5,557.5C 1087.5,557.5 1089.5,557.5 1091.5,557.5C 1091.5,555.5 1091.5,553.5 1091.5,551.5C 1093.5,551.5 1095.5,551.5 1097.5,551.5C 1097.5,549.5 1097.5,547.5 1097.5,545.5C 1099.5,545.5 1101.5,545.5 1103.5,545.5C 1103.5,541.5 1103.5,537.5 1103.5,533.5C 1101.5,533.5 1099.5,533.5 1097.5,533.5C 1097.5,531.5 1097.5,529.5 1097.5,527.5C 1095.5,527.5 1093.5,527.5 1091.5,527.5C 1091.5,525.5 1091.5,523.5 1091.5,521.5C 1089.5,521.5 1087.5,521.5 1085.5,521.5C 1085.5,519.5 1085.5,517.5 1085.5,515.5C 1083.5,515.5 1081.5,515.5 1079.5,515.5C 1079.5,513.5 1079.5,511.5 1079.5,509.5C 1075.5,509.5 1071.5,509.5 1067.5,509.5C 1067.5,511.5 1067.5,513.5 1067.5,515.5C 1061.5,515.5 1055.5,515.5 1049.5,515.5C 1049.5,517.5 1049.5,519.5 1049.5,521.5C 1043.5,521.5 1037.5,521.5 1031.5,521.5C 1031.5,523.5 1031.5,525.5 1031.5,527.5C 1025.5,527.5 1019.5,527.5 1013.5,527.5C 1013.5,523.5 1013.5,519.5 1013.5,515.5C 1015.5,515.5 1017.5,515.5 1019.5,515.5C 1019.5,513.5 1019.5,511.5 1019.5,509.5C 1025.5,509.5 1031.5,509.5 1037.5,509.5C 1037.5,507.5 1037.5,505.5 1037.5,503.5C 1045.5,503.5 1053.5,503.5 1061.5,503.5C 1061.5,501.5 1061.5,499.5 1061.5,497.5C 1059.5,497.5 1057.5,497.5 1055.5,497.5C 1055.5,495.5 1055.5,493.5 1055.5,491.5C 1053.5,491.5 1051.5,491.5 1049.5,491.5C 1049.5,489.5 1049.5,487.5 1049.5,485.5C 1047.5,485.5 1045.5,485.5 1043.5,485.5C 1043.5,483.5 1043.5,481.5 1043.5,479.5C 1041.5,479.5 1039.5,479.5 1037.5,479.5C 1037.5,477.5 1037.5,475.5 1037.5,473.5C 1035.5,473.5 1033.5,473.5 1031.5,473.5C 1031.5,471.5 1031.5,469.5 1031.5,467.5C 1029.5,467.5 1027.5,467.5 1025.5,467.5C 1025.5,465.5 1025.5,463.5 1025.5,461.5C 1023.5,461.5 1021.5,461.5 1019.5,461.5C 1019.5,459.5 1019.5,457.5 1019.5,455.5C 1017.5,455.5 1015.5,455.5 1013.5,455.5C 1013.5,453.5 1013.5,451.5 1013.5,449.5C 1011.5,449.5 1009.5,449.5 1007.5,449.5C 1007.5,447.5 1007.5,445.5 1007.5,443.5C 1005.5,443.5 1003.5,443.5 1001.5,443.5C 1001.5,441.5 1001.5,439.5 1001.5,437.5C 999.5,437.5 997.5,437.5 995.5,437.5C 995.5,435.5 995.5,433.5 995.5,431.5C 997.5,431.5 999.5,431.5 1001.5,431.5C 1001.5,429.5 1001.5,427.5 1001.5,425.5 Z"/></g>
<g><path style="opacity:0.478" fill="#b6dbd8" d="M 923.5,431.5 C 925.5,431.5 927.5,431.5 929.5,431.5C 929.5,433.5 929.5,435.5 929.5,437.5C 929.5,435.5 929.5,433.5 929.5,431.5C 927.5,431.5 925.5,431.5 923.5,431.5 Z"/></g>
<g><path style="opacity:0.773" fill="#a8d4cf" d="M 779.5,443.5 C 779.5,445.5 779.5,447.5 779.5,449.5C 777.5,449.5 775.5,449.5 773.5,449.5C 773.5,447.5 773.5,445.5 773.5,443.5C 775.5,443.5 777.5,443.5 779.5,443.5 Z"/></g>
<g><path style="opacity:0.773" fill="#a8d4cf" d="M 1139.5,443.5 C 1141.5,443.5 1143.5,443.5 1145.5,443.5C 1145.5,445.5 1145.5,447.5 1145.5,449.5C 1143.5,449.5 1141.5,449.5 1139.5,449.5C 1139.5,447.5 1139.5,445.5 1139.5,443.5 Z"/></g>
<g><path style="opacity:0.016" fill="#3fbf7e" d="M 683.5,479.5 C 685.5,479.5 687.5,479.5 689.5,479.5C 689.5,481.5 689.5,483.5 689.5,485.5C 687.5,485.5 685.5,485.5 683.5,485.5C 683.5,483.5 683.5,481.5 683.5,479.5 Z"/></g>
<g><path style="opacity:0.027" fill="#48b690" d="M 767.5,479.5 C 767.5,481.5 767.5,483.5 767.5,485.5C 765.5,485.5 763.5,485.5 761.5,485.5C 761.5,483.5 761.5,481.5 761.5,479.5C 763.5,479.5 765.5,479.5 767.5,479.5 Z"/></g>
<g><path style="opacity:0.024" fill="#55aa7e" d="M 953.5,479.5 C 953.5,481.5 953.5,483.5 953.5,485.5C 951.5,485.5 949.5,485.5 947.5,485.5C 947.5,483.5 947.5,481.5 947.5,479.5C 949.5,479.5 951.5,479.5 953.5,479.5 Z"/></g>
<g><path style="opacity:0.024" fill="#55aa7e" d="M 965.5,479.5 C 967.5,479.5 969.5,479.5 971.5,479.5C 971.5,481.5 971.5,483.5 971.5,485.5C 971.5,483.5 971.5,481.5 971.5,479.5C 969.5,479.5 967.5,479.5 965.5,479.5 Z"/></g>
<g><path style="opacity:0.027" fill="#48b690" d="M 1151.5,479.5 C 1153.5,479.5 1155.5,479.5 1157.5,479.5C 1157.5,481.5 1157.5,483.5 1157.5,485.5C 1155.5,485.5 1153.5,485.5 1151.5,485.5C 1151.5,483.5 1151.5,481.5 1151.5,479.5 Z"/></g>
<g><path style="opacity:0.016" fill="#3fbf7e" d="M 1235.5,479.5 C 1235.5,481.5 1235.5,483.5 1235.5,485.5C 1233.5,485.5 1231.5,485.5 1229.5,485.5C 1229.5,483.5 1229.5,481.5 1229.5,479.5C 1231.5,479.5 1233.5,479.5 1235.5,479.5 Z"/></g>
<g><path style="opacity:0.271" fill="#8cc6c0" d="M 779.5,479.5 C 779.5,483.5 779.5,487.5 779.5,491.5C 777.5,491.5 775.5,491.5 773.5,491.5C 773.5,487.5 773.5,483.5 773.5,479.5C 775.5,479.5 777.5,479.5 779.5,479.5 Z"/></g>
<g><path style="opacity:0.016" fill="#3f7f7e" d="M 935.5,485.5 C 935.5,487.5 935.5,489.5 935.5,491.5C 933.5,491.5 931.5,491.5 929.5,491.5C 929.5,489.5 929.5,487.5 929.5,485.5C 931.5,485.5 933.5,485.5 935.5,485.5 Z"/></g>
<g><path style="opacity:0.764" fill="#4aa59d" d="M 953.5,479.5 C 957.5,479.5 961.5,479.5 965.5,479.5C 965.5,481.5 965.5,483.5 965.5,485.5C 967.5,485.5 969.5,485.5 971.5,485.5C 975.5,485.5 979.5,485.5 983.5,485.5C 983.5,487.5 983.5,489.5 983.5,491.5C 985.5,491.5 987.5,491.5 989.5,491.5C 991.5,491.5 993.5,491.5 995.5,491.5C 995.5,493.5 995.5,495.5 995.5,497.5C 997.5,497.5 999.5,497.5 1001.5,497.5C 1001.5,499.5 1001.5,501.5 1001.5,503.5C 1003.5,503.5 1005.5,503.5 1007.5,503.5C 1007.5,505.5 1007.5,507.5 1007.5,509.5C 1007.5,511.5 1007.5,513.5 1007.5,515.5C 1007.5,519.5 1007.5,523.5 1007.5,527.5C 1009.5,527.5 1011.5,527.5 1013.5,527.5C 1013.5,529.5 1013.5,531.5 1013.5,533.5C 1015.5,533.5 1017.5,533.5 1019.5,533.5C 1019.5,537.5 1019.5,541.5 1019.5,545.5C 1017.5,545.5 1015.5,545.5 1013.5,545.5C 1013.5,547.5 1013.5,549.5 1013.5,551.5C 1011.5,551.5 1009.5,551.5 1007.5,551.5C 1007.5,555.5 1007.5,559.5 1007.5,563.5C 1007.5,567.5 1007.5,571.5 1007.5,575.5C 1005.5,575.5 1003.5,575.5 1001.5,575.5C 1001.5,577.5 1001.5,579.5 1001.5,581.5C 999.5,581.5 997.5,581.5 995.5,581.5C 995.5,583.5 995.5,585.5 995.5,587.5C 993.5,587.5 991.5,587.5 989.5,587.5C 987.5,587.5 985.5,587.5 983.5,587.5C 983.5,589.5 983.5,591.5 983.5,593.5C 979.5,593.5 975.5,593.5 971.5,593.5C 969.5,593.5 967.5,593.5 965.5,593.5C 965.5,595.5 965.5,597.5 965.5,599.5C 961.5,599.5 957.5,599.5 953.5,599.5C 953.5,597.5 953.5,595.5 953.5,593.5C 951.5,593.5 949.5,593.5 947.5,593.5C 943.5,593.5 939.5,593.5 935.5,593.5C 935.5,591.5 935.5,589.5 935.5,587.5C 933.5,587.5 931.5,587.5 929.5,587.5C 927.5,587.5 925.5,587.5 923.5,587.5C 923.5,585.5 923.5,583.5 923.5,581.5C 921.5,581.5 919.5,581.5 917.5,581.5C 917.5,579.5 917.5,577.5 917.5,575.5C 915.5,575.5 913.5,575.5 911.5,575.5C 911.5,571.5 911.5,567.5 911.5,563.5C 911.5,559.5 911.5,555.5 911.5,551.5C 909.5,551.5 907.5,551.5 905.5,551.5C 905.5,549.5 905.5,547.5 905.5,545.5C 903.5,545.5 901.5,545.5 899.5,545.5C 899.5,541.5 899.5,537.5 899.5,533.5C 901.5,533.5 903.5,533.5 905.5,533.5C 905.5,531.5 905.5,529.5 905.5,527.5C 907.5,527.5 909.5,527.5 911.5,527.5C 911.5,523.5 911.5,519.5 911.5,515.5C 911.5,513.5 911.5,511.5 911.5,509.5C 911.5,507.5 911.5,505.5 911.5,503.5C 913.5,503.5 915.5,503.5 917.5,503.5C 919.5,503.5 921.5,503.5 923.5,503.5C 923.5,501.5 923.5,499.5 923.5,497.5C 923.5,495.5 923.5,493.5 923.5,491.5C 925.5,491.5 927.5,491.5 929.5,491.5C 931.5,491.5 933.5,491.5 935.5,491.5C 935.5,489.5 935.5,487.5 935.5,485.5C 939.5,485.5 943.5,485.5 947.5,485.5C 949.5,485.5 951.5,485.5 953.5,485.5C 953.5,483.5 953.5,481.5 953.5,479.5 Z M 941.5,497.5 C 953.5,497.5 965.5,497.5 977.5,497.5C 977.5,499.5 977.5,501.5 977.5,503.5C 979.5,503.5 981.5,503.5 983.5,503.5C 983.5,505.5 983.5,507.5 983.5,509.5C 985.5,509.5 987.5,509.5 989.5,509.5C 989.5,511.5 989.5,513.5 989.5,515.5C 991.5,515.5 993.5,515.5 995.5,515.5C 995.5,517.5 995.5,519.5 995.5,521.5C 997.5,521.5 999.5,521.5 1001.5,521.5C 1001.5,533.5 1001.5,545.5 1001.5,557.5C 999.5,557.5 997.5,557.5 995.5,557.5C 995.5,559.5 995.5,561.5 995.5,563.5C 993.5,563.5 991.5,563.5 989.5,563.5C 989.5,565.5 989.5,567.5 989.5,569.5C 987.5,569.5 985.5,569.5 983.5,569.5C 983.5,571.5 983.5,573.5 983.5,575.5C 981.5,575.5 979.5,575.5 977.5,575.5C 977.5,577.5 977.5,579.5 977.5,581.5C 965.5,581.5 953.5,581.5 941.5,581.5C 941.5,579.5 941.5,577.5 941.5,575.5C 939.5,575.5 937.5,575.5 935.5,575.5C 935.5,573.5 935.5,571.5 935.5,569.5C 933.5,569.5 931.5,569.5 929.5,569.5C 929.5,567.5 929.5,565.5 929.5,563.5C 927.5,563.5 925.5,563.5 923.5,563.5C 923.5,561.5 923.5,559.5 923.5,557.5C 921.5,557.5 919.5,557.5 917.5,557.5C 917.5,545.5 917.5,533.5 917.5,521.5C 919.5,521.5 921.5,521.5 923.5,521.5C 923.5,519.5 923.5,517.5 923.5,515.5C 925.5,515.5 927.5,515.5 929.5,515.5C 929.5,513.5 929.5,511.5 929.5,509.5C 931.5,509.5 933.5,509.5 935.5,509.5C 935.5,507.5 935.5,505.5 935.5,503.5C 937.5,503.5 939.5,503.5 941.5,503.5C 941.5,501.5 941.5,499.5 941.5,497.5 Z"/></g>
<g><path style="opacity:0.016" fill="#3f7f7e" d="M 983.5,485.5 C 985.5,485.5 987.5,485.5 989.5,485.5C 989.5,487.5 989.5,489.5 989.5,491.5C 989.5,489.5 989.5,487.5 989.5,485.5C 987.5,485.5 985.5,485.5 983.5,485.5 Z"/></g>
<g><path style="opacity:0.271" fill="#8cc6c0" d="M 1139.5,479.5 C 1141.5,479.5 1143.5,479.5 1145.5,479.5C 1145.5,483.5 1145.5,487.5 1145.5,491.5C 1143.5,491.5 1141.5,491.5 1139.5,491.5C 1139.5,487.5 1139.5,483.5 1139.5,479.5 Z"/></g>
<g><path style="opacity:0.157" fill="#c4dfde" d="M 773.5,497.5 C 773.5,499.5 773.5,501.5 773.5,503.5C 771.5,503.5 769.5,503.5 767.5,503.5C 767.5,501.5 767.5,499.5 767.5,497.5C 769.5,497.5 771.5,497.5 773.5,497.5 Z"/></g>
<g><path style="opacity:0.863" fill="#c6e3df" d="M 923.5,497.5 C 923.5,499.5 923.5,501.5 923.5,503.5C 921.5,503.5 919.5,503.5 917.5,503.5C 917.5,501.5 917.5,499.5 917.5,497.5C 919.5,497.5 921.5,497.5 923.5,497.5 Z"/></g>
<g><path style="opacity:0.157" fill="#c4dfde" d="M 1145.5,497.5 C 1147.5,497.5 1149.5,497.5 1151.5,497.5C 1151.5,499.5 1151.5,501.5 1151.5,503.5C 1149.5,503.5 1147.5,503.5 1145.5,503.5C 1145.5,501.5 1145.5,499.5 1145.5,497.5 Z"/></g>
<g><path style="opacity:0.039" fill="#197f7e" d="M 761.5,509.5 C 761.5,511.5 761.5,513.5 761.5,515.5C 759.5,515.5 757.5,515.5 755.5,515.5C 755.5,513.5 755.5,511.5 755.5,509.5C 757.5,509.5 759.5,509.5 761.5,509.5 Z"/></g>
<g><path style="opacity:0.004" fill="#000000" d="M 911.5,509.5 C 911.5,511.5 911.5,513.5 911.5,515.5C 909.5,515.5 907.5,515.5 905.5,515.5C 905.5,513.5 905.5,511.5 905.5,509.5C 907.5,509.5 909.5,509.5 911.5,509.5 Z"/></g>
<g><path style="opacity:0.004" fill="#000000" d="M 1007.5,509.5 C 1009.5,509.5 1011.5,509.5 1013.5,509.5C 1013.5,511.5 1013.5,513.5 1013.5,515.5C 1011.5,515.5 1009.5,515.5 1007.5,515.5C 1007.5,513.5 1007.5,511.5 1007.5,509.5 Z"/></g>
<g><path style="opacity:0.039" fill="#197f7e" d="M 1157.5,509.5 C 1159.5,509.5 1161.5,509.5 1163.5,509.5C 1163.5,511.5 1163.5,513.5 1163.5,515.5C 1161.5,515.5 1159.5,515.5 1157.5,515.5C 1157.5,513.5 1157.5,511.5 1157.5,509.5 Z"/></g>
<g><path style="opacity:0.976" fill="#8cc5c0" d="M 905.5,515.5 C 907.5,515.5 909.5,515.5 911.5,515.5C 911.5,519.5 911.5,523.5 911.5,527.5C 909.5,527.5 907.5,527.5 905.5,527.5C 905.5,523.5 905.5,519.5 905.5,515.5 Z"/></g>
<g><path style="opacity:0.976" fill="#8cc5c0" d="M 1007.5,515.5 C 1009.5,515.5 1011.5,515.5 1013.5,515.5C 1013.5,519.5 1013.5,523.5 1013.5,527.5C 1011.5,527.5 1009.5,527.5 1007.5,527.5C 1007.5,523.5 1007.5,519.5 1007.5,515.5 Z"/></g>
<g><path style="opacity:0.008" fill="#007f7e" d="M 707.5,557.5 C 707.5,559.5 707.5,561.5 707.5,563.5C 705.5,563.5 703.5,563.5 701.5,563.5C 701.5,561.5 701.5,559.5 701.5,557.5C 703.5,557.5 705.5,557.5 707.5,557.5 Z"/></g>
<g><path style="opacity:0.004" fill="#000000" d="M 743.5,557.5 C 745.5,557.5 747.5,557.5 749.5,557.5C 749.5,559.5 749.5,561.5 749.5,563.5C 749.5,561.5 749.5,559.5 749.5,557.5C 747.5,557.5 745.5,557.5 743.5,557.5 Z"/></g>
<g><path style="opacity:0.525" fill="#95cac5" d="M 905.5,551.5 C 907.5,551.5 909.5,551.5 911.5,551.5C 911.5,555.5 911.5,559.5 911.5,563.5C 909.5,563.5 907.5,563.5 905.5,563.5C 905.5,559.5 905.5,555.5 905.5,551.5 Z"/></g>
<g><path style="opacity:0.525" fill="#95cac5" d="M 1013.5,551.5 C 1013.5,555.5 1013.5,559.5 1013.5,563.5C 1011.5,563.5 1009.5,563.5 1007.5,563.5C 1007.5,559.5 1007.5,555.5 1007.5,551.5C 1009.5,551.5 1011.5,551.5 1013.5,551.5 Z"/></g>
<g><path style="opacity:0.004" fill="#000000" d="M 1175.5,557.5 C 1175.5,559.5 1175.5,561.5 1175.5,563.5C 1173.5,563.5 1171.5,563.5 1169.5,563.5C 1169.5,561.5 1169.5,559.5 1169.5,557.5C 1171.5,557.5 1173.5,557.5 1175.5,557.5 Z"/></g>
<g><path style="opacity:0.008" fill="#007f7e" d="M 1211.5,557.5 C 1213.5,557.5 1215.5,557.5 1217.5,557.5C 1217.5,559.5 1217.5,561.5 1217.5,563.5C 1217.5,561.5 1217.5,559.5 1217.5,557.5C 1215.5,557.5 1213.5,557.5 1211.5,557.5 Z"/></g>
<g><path style="opacity:0.976" fill="#8ac5bf" d="M 761.5,575.5 C 763.5,575.5 765.5,575.5 767.5,575.5C 767.5,577.5 767.5,579.5 767.5,581.5C 765.5,581.5 763.5,581.5 761.5,581.5C 761.5,579.5 761.5,577.5 761.5,575.5 Z"/></g>
<g><path style="opacity:0.875" fill="#c8e3e0" d="M 917.5,575.5 C 919.5,575.5 921.5,575.5 923.5,575.5C 923.5,577.5 923.5,579.5 923.5,581.5C 923.5,579.5 923.5,577.5 923.5,575.5C 921.5,575.5 919.5,575.5 917.5,575.5 Z"/></g>
<g><path style="opacity:0.976" fill="#8ac5bf" d="M 1157.5,575.5 C 1157.5,577.5 1157.5,579.5 1157.5,581.5C 1155.5,581.5 1153.5,581.5 1151.5,581.5C 1151.5,579.5 1151.5,577.5 1151.5,575.5C 1153.5,575.5 1155.5,575.5 1157.5,575.5 Z"/></g>
<g><path style="opacity:0.016" fill="#3f7f7e" d="M 929.5,587.5 C 931.5,587.5 933.5,587.5 935.5,587.5C 935.5,589.5 935.5,591.5 935.5,593.5C 933.5,593.5 931.5,593.5 929.5,593.5C 929.5,591.5 929.5,589.5 929.5,587.5 Z"/></g>
<g><path style="opacity:0.016" fill="#3f7f7e" d="M 989.5,587.5 C 989.5,589.5 989.5,591.5 989.5,593.5C 987.5,593.5 985.5,593.5 983.5,593.5C 983.5,591.5 983.5,589.5 983.5,587.5C 985.5,587.5 987.5,587.5 989.5,587.5 Z"/></g>
<g><path style="opacity:0.886" fill="#a3d2cd" d="M 779.5,593.5 C 779.5,595.5 779.5,597.5 779.5,599.5C 777.5,599.5 775.5,599.5 773.5,599.5C 773.5,597.5 773.5,595.5 773.5,593.5C 775.5,593.5 777.5,593.5 779.5,593.5 Z"/></g>
<g><path style="opacity:0.024" fill="#55aa7e" d="M 947.5,593.5 C 949.5,593.5 951.5,593.5 953.5,593.5C 953.5,595.5 953.5,597.5 953.5,599.5C 951.5,599.5 949.5,599.5 947.5,599.5C 947.5,597.5 947.5,595.5 947.5,593.5 Z"/></g>
<g><path style="opacity:0.024" fill="#55aa7e" d="M 971.5,593.5 C 971.5,595.5 971.5,597.5 971.5,599.5C 969.5,599.5 967.5,599.5 965.5,599.5C 965.5,597.5 965.5,595.5 965.5,593.5C 967.5,593.5 969.5,593.5 971.5,593.5 Z"/></g>
<g><path style="opacity:0.886" fill="#a3d2cd" d="M 1139.5,593.5 C 1141.5,593.5 1143.5,593.5 1145.5,593.5C 1145.5,595.5 1145.5,597.5 1145.5,599.5C 1143.5,599.5 1141.5,599.5 1139.5,599.5C 1139.5,597.5 1139.5,595.5 1139.5,593.5 Z"/></g>
<g><path style="opacity:0.008" fill="#7e7f7e" d="M 671.5,599.5 C 671.5,601.5 671.5,603.5 671.5,605.5C 669.5,605.5 667.5,605.5 665.5,605.5C 665.5,603.5 665.5,601.5 665.5,599.5C 667.5,599.5 669.5,599.5 671.5,599.5 Z"/></g>
<g><path style="opacity:0.008" fill="#7e7f7e" d="M 1247.5,599.5 C 1249.5,599.5 1251.5,599.5 1253.5,599.5C 1253.5,601.5 1253.5,603.5 1253.5,605.5C 1253.5,603.5 1253.5,601.5 1253.5,599.5C 1251.5,599.5 1249.5,599.5 1247.5,599.5 Z"/></g>
<g><path style="opacity:0.024" fill="#005554" d="M 779.5,605.5 C 781.5,605.5 783.5,605.5 785.5,605.5C 785.5,607.5 785.5,609.5 785.5,611.5C 783.5,611.5 781.5,611.5 779.5,611.5C 779.5,609.5 779.5,607.5 779.5,605.5 Z"/></g>
<g><path style="opacity:0.024" fill="#005554" d="M 1133.5,605.5 C 1135.5,605.5 1137.5,605.5 1139.5,605.5C 1139.5,607.5 1139.5,609.5 1139.5,611.5C 1137.5,611.5 1135.5,611.5 1133.5,611.5C 1133.5,609.5 1133.5,607.5 1133.5,605.5 Z"/></g>
<g><path style="opacity:0.024" fill="#005554" d="M 785.5,617.5 C 785.5,619.5 785.5,621.5 785.5,623.5C 783.5,623.5 781.5,623.5 779.5,623.5C 779.5,621.5 779.5,619.5 779.5,617.5C 781.5,617.5 783.5,617.5 785.5,617.5 Z"/></g>
<g><path style="opacity:0.024" fill="#005554" d="M 1133.5,617.5 C 1135.5,617.5 1137.5,617.5 1139.5,617.5C 1139.5,619.5 1139.5,621.5 1139.5,623.5C 1137.5,623.5 1135.5,623.5 1133.5,623.5C 1133.5,621.5 1133.5,619.5 1133.5,617.5 Z"/></g>
<g><path style="opacity:0.008" fill="#7e7f7e" d="M 665.5,623.5 C 667.5,623.5 669.5,623.5 671.5,623.5C 671.5,625.5 671.5,627.5 671.5,629.5C 671.5,627.5 671.5,625.5 671.5,623.5C 669.5,623.5 667.5,623.5 665.5,623.5 Z"/></g>
<g><path style="opacity:0.486" fill="#fefffe" d="M 1133.5,623.5 C 1135.5,623.5 1137.5,623.5 1139.5,623.5C 1139.5,625.5 1139.5,627.5 1139.5,629.5C 1139.5,631.5 1139.5,633.5 1139.5,635.5C 1139.5,637.5 1139.5,639.5 1139.5,641.5C 1135.5,641.5 1131.5,641.5 1127.5,641.5C 1127.5,643.5 1127.5,645.5 1127.5,647.5C 1119.5,647.5 1111.5,647.5 1103.5,647.5C 1103.5,649.5 1103.5,651.5 1103.5,653.5C 1097.5,653.5 1091.5,653.5 1085.5,653.5C 1085.5,655.5 1085.5,657.5 1085.5,659.5C 1079.5,659.5 1073.5,659.5 1067.5,659.5C 1067.5,661.5 1067.5,663.5 1067.5,665.5C 1061.5,665.5 1055.5,665.5 1049.5,665.5C 1049.5,667.5 1049.5,669.5 1049.5,671.5C 1043.5,671.5 1037.5,671.5 1031.5,671.5C 1031.5,673.5 1031.5,675.5 1031.5,677.5C 1025.5,677.5 1019.5,677.5 1013.5,677.5C 1013.5,673.5 1013.5,669.5 1013.5,665.5C 1015.5,665.5 1017.5,665.5 1019.5,665.5C 1019.5,663.5 1019.5,661.5 1019.5,659.5C 1025.5,659.5 1031.5,659.5 1037.5,659.5C 1037.5,657.5 1037.5,655.5 1037.5,653.5C 1043.5,653.5 1049.5,653.5 1055.5,653.5C 1055.5,651.5 1055.5,649.5 1055.5,647.5C 1061.5,647.5 1067.5,647.5 1073.5,647.5C 1073.5,645.5 1073.5,643.5 1073.5,641.5C 1079.5,641.5 1085.5,641.5 1091.5,641.5C 1091.5,639.5 1091.5,637.5 1091.5,635.5C 1099.5,635.5 1107.5,635.5 1115.5,635.5C 1115.5,633.5 1115.5,631.5 1115.5,629.5C 1121.5,629.5 1127.5,629.5 1133.5,629.5C 1133.5,627.5 1133.5,625.5 1133.5,623.5 Z"/></g>
<g><path style="opacity:0.008" fill="#7e7f7e" d="M 1253.5,623.5 C 1253.5,625.5 1253.5,627.5 1253.5,629.5C 1251.5,629.5 1249.5,629.5 1247.5,629.5C 1247.5,627.5 1247.5,625.5 1247.5,623.5C 1249.5,623.5 1251.5,623.5 1253.5,623.5 Z"/></g>
<g><path style="opacity:0.886" fill="#a3d1cd" d="M 779.5,629.5 C 779.5,631.5 779.5,633.5 779.5,635.5C 777.5,635.5 775.5,635.5 773.5,635.5C 773.5,633.5 773.5,631.5 773.5,629.5C 775.5,629.5 777.5,629.5 779.5,629.5 Z"/></g>
<g><path style="opacity:0.886" fill="#a3d1cd" d="M 1139.5,629.5 C 1141.5,629.5 1143.5,629.5 1145.5,629.5C 1145.5,631.5 1145.5,633.5 1145.5,635.5C 1143.5,635.5 1141.5,635.5 1139.5,635.5C 1139.5,633.5 1139.5,631.5 1139.5,629.5 Z"/></g>
<g><path style="opacity:0.49" fill="#b8dcd7" d="M 929.5,641.5 C 929.5,643.5 929.5,645.5 929.5,647.5C 927.5,647.5 925.5,647.5 923.5,647.5C 923.5,645.5 923.5,643.5 923.5,641.5C 925.5,641.5 927.5,641.5 929.5,641.5 Z"/></g>
<g><path style="opacity:0.824" fill="#4ba59d" d="M 1175.5,557.5 C 1187.5,557.5 1199.5,557.5 1211.5,557.5C 1211.5,559.5 1211.5,561.5 1211.5,563.5C 1213.5,563.5 1215.5,563.5 1217.5,563.5C 1219.5,563.5 1221.5,563.5 1223.5,563.5C 1223.5,565.5 1223.5,567.5 1223.5,569.5C 1227.5,569.5 1231.5,569.5 1235.5,569.5C 1235.5,571.5 1235.5,573.5 1235.5,575.5C 1237.5,575.5 1239.5,575.5 1241.5,575.5C 1241.5,579.5 1241.5,583.5 1241.5,587.5C 1243.5,587.5 1245.5,587.5 1247.5,587.5C 1247.5,591.5 1247.5,595.5 1247.5,599.5C 1247.5,601.5 1247.5,603.5 1247.5,605.5C 1249.5,605.5 1251.5,605.5 1253.5,605.5C 1253.5,611.5 1253.5,617.5 1253.5,623.5C 1251.5,623.5 1249.5,623.5 1247.5,623.5C 1247.5,625.5 1247.5,627.5 1247.5,629.5C 1247.5,633.5 1247.5,637.5 1247.5,641.5C 1245.5,641.5 1243.5,641.5 1241.5,641.5C 1241.5,645.5 1241.5,649.5 1241.5,653.5C 1239.5,653.5 1237.5,653.5 1235.5,653.5C 1235.5,655.5 1235.5,657.5 1235.5,659.5C 1231.5,659.5 1227.5,659.5 1223.5,659.5C 1223.5,661.5 1223.5,663.5 1223.5,665.5C 1221.5,665.5 1219.5,665.5 1217.5,665.5C 1215.5,665.5 1213.5,665.5 1211.5,665.5C 1211.5,667.5 1211.5,669.5 1211.5,671.5C 1199.5,671.5 1187.5,671.5 1175.5,671.5C 1175.5,669.5 1175.5,667.5 1175.5,665.5C 1173.5,665.5 1171.5,665.5 1169.5,665.5C 1167.5,665.5 1165.5,665.5 1163.5,665.5C 1163.5,663.5 1163.5,661.5 1163.5,659.5C 1161.5,659.5 1159.5,659.5 1157.5,659.5C 1157.5,657.5 1157.5,655.5 1157.5,653.5C 1155.5,653.5 1153.5,653.5 1151.5,653.5C 1151.5,651.5 1151.5,649.5 1151.5,647.5C 1149.5,647.5 1147.5,647.5 1145.5,647.5C 1145.5,645.5 1145.5,643.5 1145.5,641.5C 1143.5,641.5 1141.5,641.5 1139.5,641.5C 1139.5,639.5 1139.5,637.5 1139.5,635.5C 1141.5,635.5 1143.5,635.5 1145.5,635.5C 1145.5,633.5 1145.5,631.5 1145.5,629.5C 1143.5,629.5 1141.5,629.5 1139.5,629.5C 1139.5,627.5 1139.5,625.5 1139.5,623.5C 1139.5,621.5 1139.5,619.5 1139.5,617.5C 1137.5,617.5 1135.5,617.5 1133.5,617.5C 1133.5,615.5 1133.5,613.5 1133.5,611.5C 1135.5,611.5 1137.5,611.5 1139.5,611.5C 1139.5,609.5 1139.5,607.5 1139.5,605.5C 1139.5,603.5 1139.5,601.5 1139.5,599.5C 1141.5,599.5 1143.5,599.5 1145.5,599.5C 1145.5,597.5 1145.5,595.5 1145.5,593.5C 1143.5,593.5 1141.5,593.5 1139.5,593.5C 1139.5,591.5 1139.5,589.5 1139.5,587.5C 1141.5,587.5 1143.5,587.5 1145.5,587.5C 1145.5,585.5 1145.5,583.5 1145.5,581.5C 1147.5,581.5 1149.5,581.5 1151.5,581.5C 1153.5,581.5 1155.5,581.5 1157.5,581.5C 1157.5,579.5 1157.5,577.5 1157.5,575.5C 1157.5,573.5 1157.5,571.5 1157.5,569.5C 1159.5,569.5 1161.5,569.5 1163.5,569.5C 1163.5,567.5 1163.5,565.5 1163.5,563.5C 1165.5,563.5 1167.5,563.5 1169.5,563.5C 1171.5,563.5 1173.5,563.5 1175.5,563.5C 1175.5,561.5 1175.5,559.5 1175.5,557.5 Z M 1187.5,575.5 C 1189.5,575.5 1191.5,575.5 1193.5,575.5C 1201.5,575.5 1209.5,575.5 1217.5,575.5C 1217.5,577.5 1217.5,579.5 1217.5,581.5C 1219.5,581.5 1221.5,581.5 1223.5,581.5C 1223.5,583.5 1223.5,585.5 1223.5,587.5C 1225.5,587.5 1227.5,587.5 1229.5,587.5C 1229.5,591.5 1229.5,595.5 1229.5,599.5C 1231.5,599.5 1233.5,599.5 1235.5,599.5C 1235.5,609.5 1235.5,619.5 1235.5,629.5C 1233.5,629.5 1231.5,629.5 1229.5,629.5C 1229.5,633.5 1229.5,637.5 1229.5,641.5C 1227.5,641.5 1225.5,641.5 1223.5,641.5C 1223.5,643.5 1223.5,645.5 1223.5,647.5C 1221.5,647.5 1219.5,647.5 1217.5,647.5C 1217.5,649.5 1217.5,651.5 1217.5,653.5C 1209.5,653.5 1201.5,653.5 1193.5,653.5C 1191.5,653.5 1189.5,653.5 1187.5,653.5C 1181.5,653.5 1175.5,653.5 1169.5,653.5C 1169.5,651.5 1169.5,649.5 1169.5,647.5C 1167.5,647.5 1165.5,647.5 1163.5,647.5C 1163.5,645.5 1163.5,643.5 1163.5,641.5C 1161.5,641.5 1159.5,641.5 1157.5,641.5C 1157.5,637.5 1157.5,633.5 1157.5,629.5C 1155.5,629.5 1153.5,629.5 1151.5,629.5C 1151.5,619.5 1151.5,609.5 1151.5,599.5C 1153.5,599.5 1155.5,599.5 1157.5,599.5C 1157.5,595.5 1157.5,591.5 1157.5,587.5C 1159.5,587.5 1161.5,587.5 1163.5,587.5C 1163.5,585.5 1163.5,583.5 1163.5,581.5C 1165.5,581.5 1167.5,581.5 1169.5,581.5C 1169.5,579.5 1169.5,577.5 1169.5,575.5C 1175.5,575.5 1181.5,575.5 1187.5,575.5 Z"/></g>
<g><path style="opacity:0.016" fill="#3f7f7e" d="M 1193.5,575.5 C 1191.5,575.5 1189.5,575.5 1187.5,575.5C 1187.5,573.5 1187.5,571.5 1187.5,569.5C 1189.5,569.5 1191.5,569.5 1193.5,569.5C 1193.5,571.5 1193.5,573.5 1193.5,575.5 Z"/></g>
<g><path style="opacity:0.016" fill="#3fbf7e" d="M 773.5,647.5 C 773.5,649.5 773.5,651.5 773.5,653.5C 771.5,653.5 769.5,653.5 767.5,653.5C 767.5,651.5 767.5,649.5 767.5,647.5C 769.5,647.5 771.5,647.5 773.5,647.5 Z"/></g>
<g><path style="opacity:0.882" fill="#c5e2df" d="M 923.5,647.5 C 923.5,649.5 923.5,651.5 923.5,653.5C 921.5,653.5 919.5,653.5 917.5,653.5C 917.5,651.5 917.5,649.5 917.5,647.5C 919.5,647.5 921.5,647.5 923.5,647.5 Z"/></g>
<g><path style="opacity:0.882" fill="#c5e2df" d="M 995.5,647.5 C 997.5,647.5 999.5,647.5 1001.5,647.5C 1001.5,649.5 1001.5,651.5 1001.5,653.5C 999.5,653.5 997.5,653.5 995.5,653.5C 995.5,651.5 995.5,649.5 995.5,647.5 Z"/></g>
<g><path style="opacity:0.016" fill="#3fbf7e" d="M 1145.5,647.5 C 1147.5,647.5 1149.5,647.5 1151.5,647.5C 1151.5,649.5 1151.5,651.5 1151.5,653.5C 1149.5,653.5 1147.5,653.5 1145.5,653.5C 1145.5,651.5 1145.5,649.5 1145.5,647.5 Z"/></g>
<g><path style="opacity:0.778" fill="#4ba59d" d="M 707.5,557.5 C 719.5,557.5 731.5,557.5 743.5,557.5C 743.5,559.5 743.5,561.5 743.5,563.5C 745.5,563.5 747.5,563.5 749.5,563.5C 751.5,563.5 753.5,563.5 755.5,563.5C 755.5,565.5 755.5,567.5 755.5,569.5C 757.5,569.5 759.5,569.5 761.5,569.5C 761.5,571.5 761.5,573.5 761.5,575.5C 761.5,577.5 761.5,579.5 761.5,581.5C 763.5,581.5 765.5,581.5 767.5,581.5C 769.5,581.5 771.5,581.5 773.5,581.5C 773.5,583.5 773.5,585.5 773.5,587.5C 775.5,587.5 777.5,587.5 779.5,587.5C 779.5,589.5 779.5,591.5 779.5,593.5C 777.5,593.5 775.5,593.5 773.5,593.5C 773.5,595.5 773.5,597.5 773.5,599.5C 775.5,599.5 777.5,599.5 779.5,599.5C 779.5,601.5 779.5,603.5 779.5,605.5C 779.5,607.5 779.5,609.5 779.5,611.5C 781.5,611.5 783.5,611.5 785.5,611.5C 785.5,613.5 785.5,615.5 785.5,617.5C 783.5,617.5 781.5,617.5 779.5,617.5C 779.5,619.5 779.5,621.5 779.5,623.5C 779.5,625.5 779.5,627.5 779.5,629.5C 777.5,629.5 775.5,629.5 773.5,629.5C 773.5,631.5 773.5,633.5 773.5,635.5C 775.5,635.5 777.5,635.5 779.5,635.5C 779.5,637.5 779.5,639.5 779.5,641.5C 777.5,641.5 775.5,641.5 773.5,641.5C 773.5,643.5 773.5,645.5 773.5,647.5C 771.5,647.5 769.5,647.5 767.5,647.5C 767.5,649.5 767.5,651.5 767.5,653.5C 765.5,653.5 763.5,653.5 761.5,653.5C 761.5,655.5 761.5,657.5 761.5,659.5C 759.5,659.5 757.5,659.5 755.5,659.5C 755.5,661.5 755.5,663.5 755.5,665.5C 753.5,665.5 751.5,665.5 749.5,665.5C 747.5,665.5 745.5,665.5 743.5,665.5C 743.5,667.5 743.5,669.5 743.5,671.5C 731.5,671.5 719.5,671.5 707.5,671.5C 707.5,669.5 707.5,667.5 707.5,665.5C 705.5,665.5 703.5,665.5 701.5,665.5C 699.5,665.5 697.5,665.5 695.5,665.5C 695.5,663.5 695.5,661.5 695.5,659.5C 691.5,659.5 687.5,659.5 683.5,659.5C 683.5,657.5 683.5,655.5 683.5,653.5C 681.5,653.5 679.5,653.5 677.5,653.5C 677.5,649.5 677.5,645.5 677.5,641.5C 675.5,641.5 673.5,641.5 671.5,641.5C 671.5,637.5 671.5,633.5 671.5,629.5C 671.5,627.5 671.5,625.5 671.5,623.5C 669.5,623.5 667.5,623.5 665.5,623.5C 665.5,617.5 665.5,611.5 665.5,605.5C 667.5,605.5 669.5,605.5 671.5,605.5C 671.5,603.5 671.5,601.5 671.5,599.5C 671.5,595.5 671.5,591.5 671.5,587.5C 673.5,587.5 675.5,587.5 677.5,587.5C 677.5,583.5 677.5,579.5 677.5,575.5C 679.5,575.5 681.5,575.5 683.5,575.5C 683.5,573.5 683.5,571.5 683.5,569.5C 687.5,569.5 691.5,569.5 695.5,569.5C 695.5,567.5 695.5,565.5 695.5,563.5C 697.5,563.5 699.5,563.5 701.5,563.5C 703.5,563.5 705.5,563.5 707.5,563.5C 707.5,561.5 707.5,559.5 707.5,557.5 Z M 725.5,575.5 C 727.5,575.5 729.5,575.5 731.5,575.5C 737.5,575.5 743.5,575.5 749.5,575.5C 749.5,577.5 749.5,579.5 749.5,581.5C 751.5,581.5 753.5,581.5 755.5,581.5C 755.5,583.5 755.5,585.5 755.5,587.5C 757.5,587.5 759.5,587.5 761.5,587.5C 761.5,591.5 761.5,595.5 761.5,599.5C 763.5,599.5 765.5,599.5 767.5,599.5C 767.5,609.5 767.5,619.5 767.5,629.5C 765.5,629.5 763.5,629.5 761.5,629.5C 761.5,633.5 761.5,637.5 761.5,641.5C 759.5,641.5 757.5,641.5 755.5,641.5C 755.5,643.5 755.5,645.5 755.5,647.5C 753.5,647.5 751.5,647.5 749.5,647.5C 749.5,649.5 749.5,651.5 749.5,653.5C 743.5,653.5 737.5,653.5 731.5,653.5C 729.5,653.5 727.5,653.5 725.5,653.5C 717.5,653.5 709.5,653.5 701.5,653.5C 701.5,651.5 701.5,649.5 701.5,647.5C 699.5,647.5 697.5,647.5 695.5,647.5C 695.5,645.5 695.5,643.5 695.5,641.5C 693.5,641.5 691.5,641.5 689.5,641.5C 689.5,637.5 689.5,633.5 689.5,629.5C 687.5,629.5 685.5,629.5 683.5,629.5C 683.5,619.5 683.5,609.5 683.5,599.5C 685.5,599.5 687.5,599.5 689.5,599.5C 689.5,595.5 689.5,591.5 689.5,587.5C 691.5,587.5 693.5,587.5 695.5,587.5C 695.5,585.5 695.5,583.5 695.5,581.5C 697.5,581.5 699.5,581.5 701.5,581.5C 701.5,579.5 701.5,577.5 701.5,575.5C 709.5,575.5 717.5,575.5 725.5,575.5 Z"/></g>
<g><path style="opacity:0.016" fill="#3f7f7e" d="M 725.5,653.5 C 727.5,653.5 729.5,653.5 731.5,653.5C 731.5,655.5 731.5,657.5 731.5,659.5C 729.5,659.5 727.5,659.5 725.5,659.5C 725.5,657.5 725.5,655.5 725.5,653.5 Z"/></g>
<g><path style="opacity:0.016" fill="#3f7f7e" d="M 731.5,575.5 C 729.5,575.5 727.5,575.5 725.5,575.5C 725.5,573.5 725.5,571.5 725.5,569.5C 727.5,569.5 729.5,569.5 731.5,569.5C 731.5,571.5 731.5,573.5 731.5,575.5 Z"/></g>
<g><path style="opacity:0.031" fill="#3f9f7e" d="M 767.5,653.5 C 767.5,655.5 767.5,657.5 767.5,659.5C 765.5,659.5 763.5,659.5 761.5,659.5C 761.5,657.5 761.5,655.5 761.5,653.5C 763.5,653.5 765.5,653.5 767.5,653.5 Z"/></g>
<g><path style="opacity:0.031" fill="#3f9f7e" d="M 1151.5,653.5 C 1153.5,653.5 1155.5,653.5 1157.5,653.5C 1157.5,655.5 1157.5,657.5 1157.5,659.5C 1155.5,659.5 1153.5,659.5 1151.5,659.5C 1151.5,657.5 1151.5,655.5 1151.5,653.5 Z"/></g>
<g><path style="opacity:0.016" fill="#3f7f7e" d="M 1187.5,653.5 C 1189.5,653.5 1191.5,653.5 1193.5,653.5C 1193.5,655.5 1193.5,657.5 1193.5,659.5C 1191.5,659.5 1189.5,659.5 1187.5,659.5C 1187.5,657.5 1187.5,655.5 1187.5,653.5 Z"/></g>
<g><path style="opacity:0.004" fill="#000000" d="M 911.5,659.5 C 911.5,661.5 911.5,663.5 911.5,665.5C 909.5,665.5 907.5,665.5 905.5,665.5C 905.5,663.5 905.5,661.5 905.5,659.5C 907.5,659.5 909.5,659.5 911.5,659.5 Z"/></g>
<g><path style="opacity:0.004" fill="#000000" d="M 1007.5,659.5 C 1009.5,659.5 1011.5,659.5 1013.5,659.5C 1013.5,661.5 1013.5,663.5 1013.5,665.5C 1011.5,665.5 1009.5,665.5 1007.5,665.5C 1007.5,663.5 1007.5,661.5 1007.5,659.5 Z"/></g>
<g><path style="opacity:0.008" fill="#007f7e" d="M 701.5,665.5 C 703.5,665.5 705.5,665.5 707.5,665.5C 707.5,667.5 707.5,669.5 707.5,671.5C 705.5,671.5 703.5,671.5 701.5,671.5C 701.5,669.5 701.5,667.5 701.5,665.5 Z"/></g>
<g><path style="opacity:0.004" fill="#000000" d="M 749.5,665.5 C 749.5,667.5 749.5,669.5 749.5,671.5C 747.5,671.5 745.5,671.5 743.5,671.5C 743.5,669.5 743.5,667.5 743.5,665.5C 745.5,665.5 747.5,665.5 749.5,665.5 Z"/></g>
<g><path style="opacity:0.004" fill="#000000" d="M 1169.5,665.5 C 1171.5,665.5 1173.5,665.5 1175.5,665.5C 1175.5,667.5 1175.5,669.5 1175.5,671.5C 1173.5,671.5 1171.5,671.5 1169.5,671.5C 1169.5,669.5 1169.5,667.5 1169.5,665.5 Z"/></g>
<g><path style="opacity:0.008" fill="#007f7e" d="M 1217.5,665.5 C 1217.5,667.5 1217.5,669.5 1217.5,671.5C 1215.5,671.5 1213.5,671.5 1211.5,671.5C 1211.5,669.5 1211.5,667.5 1211.5,665.5C 1213.5,665.5 1215.5,665.5 1217.5,665.5 Z"/></g>
<g><path style="opacity:0.965" fill="#8dc7c0" d="M 905.5,665.5 C 907.5,665.5 909.5,665.5 911.5,665.5C 911.5,669.5 911.5,673.5 911.5,677.5C 909.5,677.5 907.5,677.5 905.5,677.5C 905.5,673.5 905.5,669.5 905.5,665.5 Z"/></g>
<g><path style="opacity:0.965" fill="#8dc7c0" d="M 1007.5,665.5 C 1009.5,665.5 1011.5,665.5 1013.5,665.5C 1013.5,669.5 1013.5,673.5 1013.5,677.5C 1011.5,677.5 1009.5,677.5 1007.5,677.5C 1007.5,673.5 1007.5,669.5 1007.5,665.5 Z"/></g>
<g><path style="opacity:0.774" fill="#4aa49d" d="M 995.5,641.5 C 995.5,643.5 995.5,645.5 995.5,647.5C 995.5,649.5 995.5,651.5 995.5,653.5C 997.5,653.5 999.5,653.5 1001.5,653.5C 1003.5,653.5 1005.5,653.5 1007.5,653.5C 1007.5,655.5 1007.5,657.5 1007.5,659.5C 1007.5,661.5 1007.5,663.5 1007.5,665.5C 1007.5,669.5 1007.5,673.5 1007.5,677.5C 1009.5,677.5 1011.5,677.5 1013.5,677.5C 1013.5,679.5 1013.5,681.5 1013.5,683.5C 1015.5,683.5 1017.5,683.5 1019.5,683.5C 1019.5,687.5 1019.5,691.5 1019.5,695.5C 1017.5,695.5 1015.5,695.5 1013.5,695.5C 1013.5,697.5 1013.5,699.5 1013.5,701.5C 1013.5,707.5 1013.5,713.5 1013.5,719.5C 1011.5,719.5 1009.5,719.5 1007.5,719.5C 1007.5,721.5 1007.5,723.5 1007.5,725.5C 1005.5,725.5 1003.5,725.5 1001.5,725.5C 1001.5,727.5 1001.5,729.5 1001.5,731.5C 999.5,731.5 997.5,731.5 995.5,731.5C 995.5,733.5 995.5,735.5 995.5,737.5C 993.5,737.5 991.5,737.5 989.5,737.5C 987.5,737.5 985.5,737.5 983.5,737.5C 983.5,739.5 983.5,741.5 983.5,743.5C 979.5,743.5 975.5,743.5 971.5,743.5C 969.5,743.5 967.5,743.5 965.5,743.5C 965.5,745.5 965.5,747.5 965.5,749.5C 961.5,749.5 957.5,749.5 953.5,749.5C 953.5,747.5 953.5,745.5 953.5,743.5C 951.5,743.5 949.5,743.5 947.5,743.5C 943.5,743.5 939.5,743.5 935.5,743.5C 935.5,741.5 935.5,739.5 935.5,737.5C 933.5,737.5 931.5,737.5 929.5,737.5C 927.5,737.5 925.5,737.5 923.5,737.5C 923.5,735.5 923.5,733.5 923.5,731.5C 921.5,731.5 919.5,731.5 917.5,731.5C 917.5,729.5 917.5,727.5 917.5,725.5C 915.5,725.5 913.5,725.5 911.5,725.5C 911.5,721.5 911.5,717.5 911.5,713.5C 911.5,709.5 911.5,705.5 911.5,701.5C 909.5,701.5 907.5,701.5 905.5,701.5C 905.5,699.5 905.5,697.5 905.5,695.5C 903.5,695.5 901.5,695.5 899.5,695.5C 899.5,691.5 899.5,687.5 899.5,683.5C 901.5,683.5 903.5,683.5 905.5,683.5C 905.5,681.5 905.5,679.5 905.5,677.5C 907.5,677.5 909.5,677.5 911.5,677.5C 911.5,673.5 911.5,669.5 911.5,665.5C 911.5,663.5 911.5,661.5 911.5,659.5C 911.5,657.5 911.5,655.5 911.5,653.5C 913.5,653.5 915.5,653.5 917.5,653.5C 919.5,653.5 921.5,653.5 923.5,653.5C 923.5,651.5 923.5,649.5 923.5,647.5C 925.5,647.5 927.5,647.5 929.5,647.5C 929.5,645.5 929.5,643.5 929.5,641.5C 931.5,641.5 933.5,641.5 935.5,641.5C 935.5,639.5 935.5,637.5 935.5,635.5C 939.5,635.5 943.5,635.5 947.5,635.5C 947.5,633.5 947.5,631.5 947.5,629.5C 955.5,629.5 963.5,629.5 971.5,629.5C 971.5,631.5 971.5,633.5 971.5,635.5C 977.5,635.5 983.5,635.5 989.5,635.5C 989.5,637.5 989.5,639.5 989.5,641.5C 991.5,641.5 993.5,641.5 995.5,641.5 Z M 989.5,659.5 C 989.5,661.5 989.5,663.5 989.5,665.5C 991.5,665.5 993.5,665.5 995.5,665.5C 995.5,667.5 995.5,669.5 995.5,671.5C 997.5,671.5 999.5,671.5 1001.5,671.5C 1001.5,683.5 1001.5,695.5 1001.5,707.5C 999.5,707.5 997.5,707.5 995.5,707.5C 995.5,709.5 995.5,711.5 995.5,713.5C 993.5,713.5 991.5,713.5 989.5,713.5C 989.5,715.5 989.5,717.5 989.5,719.5C 987.5,719.5 985.5,719.5 983.5,719.5C 983.5,721.5 983.5,723.5 983.5,725.5C 981.5,725.5 979.5,725.5 977.5,725.5C 977.5,727.5 977.5,729.5 977.5,731.5C 965.5,731.5 953.5,731.5 941.5,731.5C 941.5,729.5 941.5,727.5 941.5,725.5C 939.5,725.5 937.5,725.5 935.5,725.5C 935.5,723.5 935.5,721.5 935.5,719.5C 933.5,719.5 931.5,719.5 929.5,719.5C 929.5,717.5 929.5,715.5 929.5,713.5C 927.5,713.5 925.5,713.5 923.5,713.5C 923.5,711.5 923.5,709.5 923.5,707.5C 921.5,707.5 919.5,707.5 917.5,707.5C 917.5,695.5 917.5,683.5 917.5,671.5C 919.5,671.5 921.5,671.5 923.5,671.5C 923.5,669.5 923.5,667.5 923.5,665.5C 925.5,665.5 927.5,665.5 929.5,665.5C 929.5,663.5 929.5,661.5 929.5,659.5C 931.5,659.5 933.5,659.5 935.5,659.5C 935.5,657.5 935.5,655.5 935.5,653.5C 937.5,653.5 939.5,653.5 941.5,653.5C 941.5,651.5 941.5,649.5 941.5,647.5C 953.5,647.5 965.5,647.5 977.5,647.5C 977.5,649.5 977.5,651.5 977.5,653.5C 979.5,653.5 981.5,653.5 983.5,653.5C 983.5,655.5 983.5,657.5 983.5,659.5C 985.5,659.5 987.5,659.5 989.5,659.5 Z"/></g>
<g><path style="opacity:0.027" fill="#48b690" d="M 989.5,659.5 C 991.5,659.5 993.5,659.5 995.5,659.5C 995.5,661.5 995.5,663.5 995.5,665.5C 995.5,663.5 995.5,661.5 995.5,659.5C 993.5,659.5 991.5,659.5 989.5,659.5 Z"/></g>
<g><path style="opacity:0.027" fill="#48b690" d="M 929.5,659.5 C 929.5,661.5 929.5,663.5 929.5,665.5C 927.5,665.5 925.5,665.5 923.5,665.5C 923.5,663.5 923.5,661.5 923.5,659.5C 925.5,659.5 927.5,659.5 929.5,659.5 Z"/></g>
<g><path style="opacity:0.024" fill="#557f7e" d="M 1019.5,695.5 C 1019.5,697.5 1019.5,699.5 1019.5,701.5C 1017.5,701.5 1015.5,701.5 1013.5,701.5C 1013.5,699.5 1013.5,697.5 1013.5,695.5C 1015.5,695.5 1017.5,695.5 1019.5,695.5 Z"/></g>
<g><path style="opacity:0.476" fill="#fefffe" d="M 905.5,701.5 C 905.5,705.5 905.5,709.5 905.5,713.5C 903.5,713.5 901.5,713.5 899.5,713.5C 899.5,715.5 899.5,717.5 899.5,719.5C 893.5,719.5 887.5,719.5 881.5,719.5C 881.5,721.5 881.5,723.5 881.5,725.5C 875.5,725.5 869.5,725.5 863.5,725.5C 863.5,727.5 863.5,729.5 863.5,731.5C 855.5,731.5 847.5,731.5 839.5,731.5C 839.5,733.5 839.5,735.5 839.5,737.5C 833.5,737.5 827.5,737.5 821.5,737.5C 821.5,739.5 821.5,741.5 821.5,743.5C 815.5,743.5 809.5,743.5 803.5,743.5C 803.5,745.5 803.5,747.5 803.5,749.5C 797.5,749.5 791.5,749.5 785.5,749.5C 785.5,751.5 785.5,753.5 785.5,755.5C 783.5,755.5 781.5,755.5 779.5,755.5C 779.5,753.5 779.5,751.5 779.5,749.5C 779.5,745.5 779.5,741.5 779.5,737.5C 783.5,737.5 787.5,737.5 791.5,737.5C 791.5,735.5 791.5,733.5 791.5,731.5C 797.5,731.5 803.5,731.5 809.5,731.5C 809.5,729.5 809.5,727.5 809.5,725.5C 815.5,725.5 821.5,725.5 827.5,725.5C 827.5,723.5 827.5,721.5 827.5,719.5C 833.5,719.5 839.5,719.5 845.5,719.5C 845.5,717.5 845.5,715.5 845.5,713.5C 853.5,713.5 861.5,713.5 869.5,713.5C 869.5,711.5 869.5,709.5 869.5,707.5C 875.5,707.5 881.5,707.5 887.5,707.5C 887.5,705.5 887.5,703.5 887.5,701.5C 893.5,701.5 899.5,701.5 905.5,701.5 Z"/></g>
<g><path style="opacity:0.486" fill="#90c7c3" d="M 905.5,701.5 C 907.5,701.5 909.5,701.5 911.5,701.5C 911.5,705.5 911.5,709.5 911.5,713.5C 909.5,713.5 907.5,713.5 905.5,713.5C 905.5,709.5 905.5,705.5 905.5,701.5 Z"/></g>
<g><path style="opacity:0.906" fill="#9ccfca" d="M 749.5,713.5 C 751.5,713.5 753.5,713.5 755.5,713.5C 755.5,715.5 755.5,717.5 755.5,719.5C 753.5,719.5 751.5,719.5 749.5,719.5C 749.5,717.5 749.5,715.5 749.5,713.5 Z"/></g>
<g><path style="opacity:0.157" fill="#bedfde" d="M 767.5,725.5 C 769.5,725.5 771.5,725.5 773.5,725.5C 773.5,727.5 773.5,729.5 773.5,731.5C 771.5,731.5 769.5,731.5 767.5,731.5C 767.5,729.5 767.5,727.5 767.5,725.5 Z"/></g>
<g><path style="opacity:0.012" fill="#55aa54" d="M 929.5,737.5 C 931.5,737.5 933.5,737.5 935.5,737.5C 935.5,739.5 935.5,741.5 935.5,743.5C 933.5,743.5 931.5,743.5 929.5,743.5C 929.5,741.5 929.5,739.5 929.5,737.5 Z"/></g>
<g><path style="opacity:0.012" fill="#55aa54" d="M 989.5,737.5 C 989.5,739.5 989.5,741.5 989.5,743.5C 987.5,743.5 985.5,743.5 983.5,743.5C 983.5,741.5 983.5,739.5 983.5,737.5C 985.5,737.5 987.5,737.5 989.5,737.5 Z"/></g>
<g><path style="opacity:0.953" fill="#94cac5" d="M 773.5,737.5 C 775.5,737.5 777.5,737.5 779.5,737.5C 779.5,741.5 779.5,745.5 779.5,749.5C 777.5,749.5 775.5,749.5 773.5,749.5C 773.5,745.5 773.5,741.5 773.5,737.5 Z"/></g>
<g><path style="opacity:0.016" fill="#3fbf7e" d="M 947.5,743.5 C 949.5,743.5 951.5,743.5 953.5,743.5C 953.5,745.5 953.5,747.5 953.5,749.5C 951.5,749.5 949.5,749.5 947.5,749.5C 947.5,747.5 947.5,745.5 947.5,743.5 Z"/></g>
<g><path style="opacity:0.016" fill="#3fbf7e" d="M 971.5,743.5 C 971.5,745.5 971.5,747.5 971.5,749.5C 969.5,749.5 967.5,749.5 965.5,749.5C 965.5,747.5 965.5,745.5 965.5,743.5C 967.5,743.5 969.5,743.5 971.5,743.5 Z"/></g>
<g><path style="opacity:0.027" fill="#48b690" d="M 785.5,767.5 C 785.5,769.5 785.5,771.5 785.5,773.5C 783.5,773.5 781.5,773.5 779.5,773.5C 779.5,771.5 779.5,769.5 779.5,767.5C 781.5,767.5 783.5,767.5 785.5,767.5 Z"/></g>
<g><path style="opacity:0.716" fill="#4aa59d" d="M 749.5,707.5 C 749.5,709.5 749.5,711.5 749.5,713.5C 749.5,715.5 749.5,717.5 749.5,719.5C 751.5,719.5 753.5,719.5 755.5,719.5C 757.5,719.5 759.5,719.5 761.5,719.5C 761.5,721.5 761.5,723.5 761.5,725.5C 763.5,725.5 765.5,725.5 767.5,725.5C 767.5,727.5 767.5,729.5 767.5,731.5C 769.5,731.5 771.5,731.5 773.5,731.5C 773.5,733.5 773.5,735.5 773.5,737.5C 773.5,741.5 773.5,745.5 773.5,749.5C 775.5,749.5 777.5,749.5 779.5,749.5C 779.5,751.5 779.5,753.5 779.5,755.5C 781.5,755.5 783.5,755.5 785.5,755.5C 785.5,759.5 785.5,763.5 785.5,767.5C 783.5,767.5 781.5,767.5 779.5,767.5C 779.5,769.5 779.5,771.5 779.5,773.5C 779.5,779.5 779.5,785.5 779.5,791.5C 777.5,791.5 775.5,791.5 773.5,791.5C 773.5,793.5 773.5,795.5 773.5,797.5C 771.5,797.5 769.5,797.5 767.5,797.5C 767.5,799.5 767.5,801.5 767.5,803.5C 765.5,803.5 763.5,803.5 761.5,803.5C 761.5,805.5 761.5,807.5 761.5,809.5C 759.5,809.5 757.5,809.5 755.5,809.5C 755.5,811.5 755.5,813.5 755.5,815.5C 751.5,815.5 747.5,815.5 743.5,815.5C 743.5,817.5 743.5,819.5 743.5,821.5C 731.5,821.5 719.5,821.5 707.5,821.5C 707.5,819.5 707.5,817.5 707.5,815.5C 703.5,815.5 699.5,815.5 695.5,815.5C 695.5,813.5 695.5,811.5 695.5,809.5C 693.5,809.5 691.5,809.5 689.5,809.5C 689.5,807.5 689.5,805.5 689.5,803.5C 687.5,803.5 685.5,803.5 683.5,803.5C 683.5,801.5 683.5,799.5 683.5,797.5C 681.5,797.5 679.5,797.5 677.5,797.5C 677.5,795.5 677.5,793.5 677.5,791.5C 675.5,791.5 673.5,791.5 671.5,791.5C 671.5,785.5 671.5,779.5 671.5,773.5C 669.5,773.5 667.5,773.5 665.5,773.5C 665.5,765.5 665.5,757.5 665.5,749.5C 667.5,749.5 669.5,749.5 671.5,749.5C 671.5,745.5 671.5,741.5 671.5,737.5C 673.5,737.5 675.5,737.5 677.5,737.5C 677.5,733.5 677.5,729.5 677.5,725.5C 679.5,725.5 681.5,725.5 683.5,725.5C 683.5,723.5 683.5,721.5 683.5,719.5C 685.5,719.5 687.5,719.5 689.5,719.5C 689.5,717.5 689.5,715.5 689.5,713.5C 693.5,713.5 697.5,713.5 701.5,713.5C 701.5,711.5 701.5,709.5 701.5,707.5C 717.5,707.5 733.5,707.5 749.5,707.5 Z M 761.5,743.5 C 761.5,745.5 761.5,747.5 761.5,749.5C 763.5,749.5 765.5,749.5 767.5,749.5C 767.5,759.5 767.5,769.5 767.5,779.5C 765.5,779.5 763.5,779.5 761.5,779.5C 761.5,783.5 761.5,787.5 761.5,791.5C 759.5,791.5 757.5,791.5 755.5,791.5C 755.5,793.5 755.5,795.5 755.5,797.5C 751.5,797.5 747.5,797.5 743.5,797.5C 743.5,799.5 743.5,801.5 743.5,803.5C 731.5,803.5 719.5,803.5 707.5,803.5C 707.5,801.5 707.5,799.5 707.5,797.5C 703.5,797.5 699.5,797.5 695.5,797.5C 695.5,795.5 695.5,793.5 695.5,791.5C 693.5,791.5 691.5,791.5 689.5,791.5C 689.5,787.5 689.5,783.5 689.5,779.5C 687.5,779.5 685.5,779.5 683.5,779.5C 683.5,769.5 683.5,759.5 683.5,749.5C 685.5,749.5 687.5,749.5 689.5,749.5C 689.5,747.5 689.5,745.5 689.5,743.5C 689.5,741.5 689.5,739.5 689.5,737.5C 691.5,737.5 693.5,737.5 695.5,737.5C 695.5,735.5 695.5,733.5 695.5,731.5C 697.5,731.5 699.5,731.5 701.5,731.5C 701.5,729.5 701.5,727.5 701.5,725.5C 705.5,725.5 709.5,725.5 713.5,725.5C 713.5,723.5 713.5,721.5 713.5,719.5C 721.5,719.5 729.5,719.5 737.5,719.5C 737.5,721.5 737.5,723.5 737.5,725.5C 741.5,725.5 745.5,725.5 749.5,725.5C 749.5,727.5 749.5,729.5 749.5,731.5C 751.5,731.5 753.5,731.5 755.5,731.5C 755.5,733.5 755.5,735.5 755.5,737.5C 757.5,737.5 759.5,737.5 761.5,737.5C 761.5,739.5 761.5,741.5 761.5,743.5 Z"/></g>
<g><path style="opacity:0.027" fill="#48b690" d="M 761.5,743.5 C 763.5,743.5 765.5,743.5 767.5,743.5C 767.5,745.5 767.5,747.5 767.5,749.5C 767.5,747.5 767.5,745.5 767.5,743.5C 765.5,743.5 763.5,743.5 761.5,743.5 Z"/></g>
<g><path style="opacity:0.016" fill="#3fbf7e" d="M 689.5,743.5 C 689.5,745.5 689.5,747.5 689.5,749.5C 687.5,749.5 685.5,749.5 683.5,749.5C 683.5,747.5 683.5,745.5 683.5,743.5C 685.5,743.5 687.5,743.5 689.5,743.5 Z"/></g>
</svg>
