<?xml version="1.0" encoding="UTF-8" standalone="no"?>
<svg
   xmlns:dc="http://purl.org/dc/elements/1.1/"
   xmlns:cc="http://creativecommons.org/ns#"
   xmlns:rdf="http://www.w3.org/1999/02/22-rdf-syntax-ns#"
   xmlns:svg="http://www.w3.org/2000/svg"
   xmlns="http://www.w3.org/2000/svg"
   viewBox="0 0 2560 1440"
   height="1440"
   width="2560"
   xml:space="preserve"
   id="svg2"
   version="1.1"><metadata
     id="metadata8"><rdf:RDF><cc:Work
         rdf:about=""><dc:format>image/svg+xml</dc:format><dc:type
           rdf:resource="http://purl.org/dc/dcmitype/StillImage" /></cc:Work></rdf:RDF></metadata><defs
     id="defs6"><clipPath
       id="clipPath20"
       clipPathUnits="userSpaceOnUse"><path
         id="path18"
         d="M 0,0 H 1920 V 1080 H 0 Z" /></clipPath><clipPath
       id="clipPath100"
       clipPathUnits="userSpaceOnUse"><path
         id="path98"
         d="m 670.8583,560.6035 h 108 v 112.9091 h -108 z" /></clipPath><clipPath
       id="clipPath110"
       clipPathUnits="userSpaceOnUse"><path
         id="path108"
         d="m 906.0001,481.0909 h 108 V 594 h -108 z" /></clipPath><clipPath
       id="clipPath120"
       clipPathUnits="userSpaceOnUse"><path
         id="path118"
         d="m 906.0001,635.8978 h 108 v 112.9091 h -108 z" /></clipPath><clipPath
       id="clipPath130"
       clipPathUnits="userSpaceOnUse"><path
         id="path128"
         d="m 906,331.1931 h 108 V 444.1022 H 906 Z" /></clipPath><clipPath
       id="clipPath140"
       clipPathUnits="userSpaceOnUse"><path
         id="path138"
         d="m 671.8583,410.9999 h 108 V 523.909 h -108 z" /></clipPath><clipPath
       id="clipPath150"
       clipPathUnits="userSpaceOnUse"><path
         id="path148"
         d="m 671.8583,262.3964 h 108 v 112.9091 h -108 z" /></clipPath><clipPath
       id="clipPath160"
       clipPathUnits="userSpaceOnUse"><path
         id="path158"
         d="m 671.8583,705.7525 h 108 v 112.9091 h -108 z" /></clipPath><clipPath
       id="clipPath170"
       clipPathUnits="userSpaceOnUse"><path
         id="path168"
         d="m 1140.142,559.6035 h 108 v 112.9091 h -108 z" /></clipPath><clipPath
       id="clipPath180"
       clipPathUnits="userSpaceOnUse"><path
         id="path178"
         d="m 1140.142,410.9999 h 108 V 523.909 h -108 z" /></clipPath></defs><g
     transform="matrix(1.3333333,0,0,-1.3333333,0,1440)"
     id="g10"><g
       id="g12" /><g
       id="g14"><g
         clip-path="url(#clipPath20)"
         id="g16"><g
           transform="matrix(0.740154,-0.6724374,-0.6724374,-0.740154,760.4,576.3906)"
           id="g22"><path
             id="path24"
             style="fill:none;stroke:#ffffff;stroke-width:7;stroke-linecap:butt;stroke-linejoin:miter;stroke-miterlimit:4;stroke-dasharray:none;stroke-opacity:1"
             d="M 0,0 H 220.0809" /></g><g
           transform="matrix(0.740154,-0.6724374,-0.6724374,-0.740154,759.4,720.9906)"
           id="g26"><path
             id="path28"
             style="fill:none;stroke:#ffffff;stroke-width:7;stroke-linecap:butt;stroke-linejoin:miter;stroke-miterlimit:4;stroke-dasharray:none;stroke-opacity:1"
             d="M 0,0 H 220.0809" /></g><g
           transform="matrix(0.740154,0.6724374,0.6724374,-0.740154,760.4,508.8)"
           id="g30"><path
             id="path32"
             style="fill:none;stroke:#ffffff;stroke-width:7;stroke-linecap:butt;stroke-linejoin:miter;stroke-miterlimit:4;stroke-dasharray:none;stroke-opacity:1"
             d="M 0,0 H 220.0809" /></g><g
           transform="matrix(0.740154,-0.6724374,-0.6724374,-0.740154,988.8,649.9906)"
           id="g34"><path
             id="path36"
             style="fill:none;stroke:#ffffff;stroke-width:7;stroke-linecap:butt;stroke-linejoin:miter;stroke-miterlimit:4;stroke-dasharray:none;stroke-opacity:1"
             d="M 0,0 H 220.0809" /></g><g
           transform="matrix(0.740154,0.6724374,0.6724374,-0.740154,760.4,354.4)"
           id="g38"><path
             id="path40"
             style="fill:none;stroke:#ffffff;stroke-width:7;stroke-linecap:butt;stroke-linejoin:miter;stroke-miterlimit:4;stroke-dasharray:none;stroke-opacity:1"
             d="M 0,0 H 220.0809" /></g><g
           transform="matrix(0.740154,0.6724374,0.6724374,-0.740154,995.2,428.4)"
           id="g42"><path
             id="path44"
             style="fill:none;stroke:#ffffff;stroke-width:7;stroke-linecap:butt;stroke-linejoin:miter;stroke-miterlimit:4;stroke-dasharray:none;stroke-opacity:1"
             d="M 0,0 H 220.0809" /></g><g
           transform="matrix(1,0,0,-1,1014,674.7566)"
           id="g46"><path
             id="path48"
             style="fill:none;stroke:#ffffff;stroke-width:7;stroke-linecap:butt;stroke-linejoin:miter;stroke-miterlimit:4;stroke-dasharray:none;stroke-opacity:1"
             d="M 126.1417,41.10284 0,0" /></g><g
           transform="matrix(1,0,0,-1,779.8583,746.0965)"
           id="g50"><path
             id="path52"
             style="fill:none;stroke:#ffffff;stroke-width:7;stroke-linecap:butt;stroke-linejoin:miter;stroke-miterlimit:4;stroke-dasharray:none;stroke-opacity:1"
             d="M 126.1418,37.63361 0,0" /></g><g
           transform="matrix(1,0,0,-1,779.8583,746.0965)"
           id="g54"><path
             id="path56"
             style="fill:none;stroke:#ffffff;stroke-width:7;stroke-linecap:butt;stroke-linejoin:miter;stroke-miterlimit:4;stroke-dasharray:none;stroke-opacity:1"
             d="M 126.1418,37.63361 0,0" /></g><g
           transform="matrix(1,0,0,-1,779.8583,371.7811)"
           id="g58"><path
             id="path60"
             style="fill:none;stroke:#ffffff;stroke-width:7;stroke-linecap:butt;stroke-linejoin:miter;stroke-miterlimit:4;stroke-dasharray:none;stroke-opacity:1"
             d="M 126.1417,0 0,37.0636" /></g><g
           transform="matrix(1,0,0,-1,1014,449.0487)"
           id="g62"><path
             id="path64"
             style="fill:none;stroke:#ffffff;stroke-width:7;stroke-linecap:butt;stroke-linejoin:miter;stroke-miterlimit:4;stroke-dasharray:none;stroke-opacity:1"
             d="M 0,42.99521 126.1417,0" /></g><g
           transform="matrix(1,0,0,-1,779.8583,521.3804)"
           id="g66"><path
             id="path68"
             style="fill:none;stroke:#ffffff;stroke-width:7;stroke-linecap:butt;stroke-linejoin:miter;stroke-miterlimit:4;stroke-dasharray:none;stroke-opacity:1"
             d="M 0,37.76086 126.1417,0" /></g><g
           transform="matrix(1,0,0,-1,778.8583,598.7981)"
           id="g70"><path
             id="path72"
             style="fill:none;stroke:#ffffff;stroke-width:7;stroke-linecap:butt;stroke-linejoin:miter;stroke-miterlimit:4;stroke-dasharray:none;stroke-opacity:1"
             d="M 127.1418,42.99269 0,0" /></g><g
           transform="matrix(1,0,0,-1,778.8583,675.0611)"
           id="g74"><path
             id="path76"
             style="fill:none;stroke:#ffffff;stroke-width:7;stroke-linecap:butt;stroke-linejoin:miter;stroke-miterlimit:4;stroke-dasharray:none;stroke-opacity:1"
             d="M 127.1418,0 0,40.71182" /></g><g
           transform="matrix(1,0,0,-1,779.8583,449.0487)"
           id="g78"><path
             id="path80"
             style="fill:none;stroke:#ffffff;stroke-width:7;stroke-linecap:butt;stroke-linejoin:miter;stroke-miterlimit:4;stroke-dasharray:none;stroke-opacity:1"
             d="M 0,0 126.1417,42.9952" /></g><g
           transform="matrix(1,0,0,-1,1014,449.0487)"
           id="g82"><path
             id="path84"
             style="fill:none;stroke:#ffffff;stroke-width:7;stroke-linecap:butt;stroke-linejoin:miter;stroke-miterlimit:4;stroke-dasharray:none;stroke-opacity:1"
             d="M 0,42.99521 126.1417,0" /></g><g
           transform="matrix(1,0,0,-1,1014,521.3804)"
           id="g86"><path
             id="path88"
             style="fill:none;stroke:#ffffff;stroke-width:7;stroke-linecap:butt;stroke-linejoin:miter;stroke-miterlimit:4;stroke-dasharray:none;stroke-opacity:1"
             d="M 0,0 126.1417,37.76085" /></g><g
           transform="matrix(1,0,0,-1,1014,597.9507)"
           id="g90"><path
             id="path92"
             style="fill:none;stroke:#ffffff;stroke-width:7;stroke-linecap:butt;stroke-linejoin:miter;stroke-miterlimit:4;stroke-dasharray:none;stroke-opacity:1"
             d="M 0,42.29795 126.1417,0" /></g></g></g><g
       id="g94"><g
         clip-path="url(#clipPath100)"
         id="g96"><path
           id="path102"
           style="fill:#64b1aa;fill-opacity:1;fill-rule:nonzero;stroke:none"
           d="M 724.8583,560.6035 H 710.131 v 4.9091 h -9.8182 v 4.9091 h -9.8182 v 4.9091 h -4.909 v 4.9091 h -4.9091 v 4.9091 h -4.9091 v 9.8182 h -4.9091 v 44.1818 h 4.9091 v 9.8182 h 4.9091 v 4.9091 h 4.9091 v 4.9091 h 4.909 v 4.909 h 9.8182 v 4.9091 h 9.8182 v 4.9091 h 29.4546 v -4.9091 h 9.8181 v -4.9091 h 9.8182 v -4.909 h 4.9091 v -4.9091 h 4.9091 v -4.9091 h 4.9091 v -9.8182 h 4.9091 v -44.1818 h -4.9091 v -9.8182 h -4.9091 v -4.9091 h -4.9091 v -4.9091 h -4.9091 v -4.9091 h -9.8182 v -4.9091 h -9.8181 v -4.9091 z m 0,9.8182 h 19.6364 v 4.9091 h 9.8181 v 4.9091 h 4.9091 v 4.9091 h 4.9091 v 4.9091 h 4.9091 v 9.8181 h 4.9091 v 34.3637 h -4.9091 v 9.8182 h -4.9091 v 4.9091 h -4.9091 v 4.9091 h -4.9091 v 4.9091 h -9.8181 v 4.909 h -39.2728 v -4.909 h -9.8182 v -4.9091 h -4.9091 v -4.9091 h -4.909 v -4.9091 h -4.9091 v -9.8182 h -4.9091 v -34.3637 h 4.9091 v -9.8181 h 4.9091 v -4.9091 h 4.909 v -4.9091 h 4.9091 v -4.9091 h 9.8182 v -4.9091 z" /></g></g><g
       id="g104"><g
         clip-path="url(#clipPath110)"
         id="g106"><path
           id="path112"
           style="fill:#64b1aa;fill-opacity:1;fill-rule:nonzero;stroke:none"
           d="M 960.0001,481.0909 H 945.2728 V 486 h -9.8182 v 4.9091 h -9.8182 v 4.9091 h -4.9091 v 4.9091 h -4.9091 v 4.909 h -4.909 v 9.8182 h -4.9091 v 44.1819 h 4.9091 v 9.8181 h 4.909 v 4.9091 h 4.9091 v 4.9091 h 4.9091 v 4.9091 h 9.8182 v 4.9091 h 9.8182 V 594 h 29.4545 v -4.9091 h 9.8182 v -4.9091 h 9.8182 v -4.9091 h 4.9091 v -4.9091 h 4.9092 v -4.9091 h 4.909 v -9.8181 H 1014 v -44.1819 h -4.909 v -9.8182 h -4.909 v -4.909 h -4.9092 v -4.9091 h -4.9091 v -4.9091 h -9.8182 V 486 h -9.8182 v -4.9091 z m 0,9.8182 h 19.6363 v 4.9091 h 9.8182 v 4.9091 h 4.9091 v 4.909 h 4.9091 v 4.9091 h 4.9092 v 9.8182 h 4.909 v 34.3637 h -4.909 v 9.8181 h -4.9092 v 4.9091 h -4.9091 v 4.9091 h -4.9091 v 4.9091 h -9.8182 v 4.9091 h -39.2727 v -4.9091 h -9.8182 v -4.9091 h -4.9091 v -4.9091 h -4.9091 v -4.9091 h -4.9091 v -9.8181 h -4.909 v -34.3637 h 4.909 v -9.8182 h 4.9091 v -4.9091 h 4.9091 v -4.909 h 4.9091 v -4.9091 h 9.8182 v -4.9091 z" /></g></g><g
       id="g114"><g
         clip-path="url(#clipPath120)"
         id="g116"><path
           id="path122"
           style="fill:#64b1aa;fill-opacity:1;fill-rule:nonzero;stroke:none"
           d="m 960.0001,635.8978 h -14.7273 v 4.9091 h -9.8182 v 4.9091 h -9.8182 v 4.9091 h -4.9091 v 4.9091 h -4.9091 v 4.9091 h -4.909 v 9.8181 h -4.9091 v 44.1819 h 4.9091 v 9.8181 h 4.909 v 4.9091 h 4.9091 v 4.9091 h 4.9091 v 4.9091 h 9.8182 v 4.9091 h 9.8182 v 4.9091 h 29.4545 v -4.9091 h 9.8182 v -4.9091 h 9.8182 v -4.9091 h 4.9091 v -4.9091 h 4.9092 v -4.9091 h 4.909 v -9.8181 H 1014 v -44.1819 h -4.909 v -9.8181 h -4.909 v -4.9091 h -4.9092 v -4.9091 h -4.9091 v -4.9091 h -9.8182 v -4.9091 h -9.8182 v -4.9091 z m 0,9.8182 h 19.6363 v 4.9091 h 9.8182 v 4.9091 h 4.9091 v 4.9091 h 4.9091 v 4.909 h 4.9092 v 9.8182 h 4.909 v 34.3637 h -4.909 v 9.8182 h -4.9092 v 4.909 h -4.9091 v 4.9091 h -4.9091 v 4.9091 h -9.8182 v 4.9091 h -39.2727 v -4.9091 h -9.8182 v -4.9091 h -4.9091 v -4.9091 h -4.9091 v -4.909 h -4.9091 v -9.8182 h -4.909 v -34.3637 h 4.909 v -9.8182 h 4.9091 v -4.909 h 4.9091 v -4.9091 h 4.9091 v -4.9091 h 9.8182 v -4.9091 z" /></g></g><g
       id="g124"><g
         clip-path="url(#clipPath130)"
         id="g126"><path
           id="path132"
           style="fill:#64b1aa;fill-opacity:1;fill-rule:nonzero;stroke:none"
           d="m 960,331.1931 h -14.7273 v 4.9091 h -9.8182 v 4.9091 h -9.8181 v 4.9091 h -4.9091 v 4.9091 h -4.9091 v 4.9091 h -4.9091 v 9.8181 H 906 v 44.1819 h 4.9091 v 9.8181 h 4.9091 v 4.9091 h 4.9091 v 4.9091 h 4.9091 v 4.9091 h 9.8181 v 4.9091 h 9.8182 v 4.9091 h 29.4546 v -4.9091 h 9.8182 v -4.9091 h 9.8181 v -4.9091 h 4.9091 v -4.9091 h 4.9093 v -4.9091 h 4.909 v -9.8181 H 1014 v -44.1819 h -4.909 v -9.8181 h -4.909 v -4.9091 h -4.9093 v -4.9091 h -4.9091 v -4.9091 h -9.8181 v -4.9091 h -9.8182 v -4.9091 z m 0,9.8182 h 19.6364 v 4.9091 h 9.8182 v 4.9091 h 4.909 v 4.9091 h 4.9091 v 4.909 h 4.9093 v 9.8182 h 4.909 v 34.3637 h -4.909 v 9.8182 h -4.9093 v 4.909 h -4.9091 v 4.9091 h -4.909 v 4.9091 h -9.8182 v 4.9091 h -39.2728 v -4.9091 h -9.8181 v -4.9091 h -4.9091 v -4.9091 h -4.9091 v -4.909 h -4.9091 v -9.8182 h -4.9091 v -34.3637 h 4.9091 v -9.8182 h 4.9091 v -4.909 h 4.9091 v -4.9091 h 4.9091 v -4.9091 h 9.8181 v -4.9091 z" /></g></g><g
       id="g134"><g
         clip-path="url(#clipPath140)"
         id="g136"><path
           id="path142"
           style="fill:#64b1aa;fill-opacity:1;fill-rule:nonzero;stroke:none"
           d="m 725.8583,410.9999 h -14.7272 v 4.9091 h -9.8182 v 4.9091 h -9.8182 v 4.9091 h -4.9091 v 4.9091 h -4.9091 v 4.9091 h -4.9091 v 9.8182 h -4.9091 v 44.1818 h 4.9091 v 9.8182 h 4.9091 v 4.9091 h 4.9091 v 4.9091 h 4.9091 v 4.9091 h 9.8182 V 519 h 9.8182 v 4.9091 h 29.4545 V 519 h 9.8182 v -4.9091 h 9.8182 v -4.9091 h 4.9091 v -4.9091 h 4.9091 v -4.9091 h 4.9091 v -9.8182 h 4.9091 v -44.1818 h -4.9091 v -9.8182 h -4.9091 v -4.9091 h -4.9091 v -4.9091 h -4.9091 v -4.9091 h -9.8182 v -4.9091 h -9.8182 v -4.9091 z m 0,9.8182 h 19.6364 v 4.9091 h 9.8182 v 4.9091 h 4.9091 v 4.9091 h 4.9091 v 4.9091 h 4.9091 v 9.8182 h 4.9091 v 34.3636 h -4.9091 v 9.8182 h -4.9091 v 4.9091 h -4.9091 v 4.9091 h -4.9091 v 4.9091 h -9.8182 v 4.9091 H 706.222 v -4.9091 h -9.8182 v -4.9091 h -4.9091 v -4.9091 h -4.9091 v -4.9091 h -4.9091 v -9.8182 h -4.9091 v -34.3636 h 4.9091 v -9.8182 h 4.9091 v -4.9091 h 4.9091 v -4.9091 h 4.9091 v -4.9091 h 9.8182 v -4.9091 z" /></g></g><g
       id="g144"><g
         clip-path="url(#clipPath150)"
         id="g146"><path
           id="path152"
           style="fill:#64b1aa;fill-opacity:1;fill-rule:nonzero;stroke:none"
           d="m 725.8583,262.3964 h -14.7272 v 4.9091 h -9.8182 v 4.909 h -9.8182 v 4.9091 h -4.9091 v 4.9091 h -4.9091 v 4.9091 h -4.9091 v 9.8182 h -4.9091 v 44.1818 h 4.9091 v 9.8182 h 4.9091 v 4.9091 h 4.9091 v 4.9091 h 4.9091 v 4.9091 h 9.8182 v 4.9091 h 9.8182 v 4.9091 h 29.4545 v -4.9091 h 9.8182 v -4.9091 h 9.8182 v -4.9091 h 4.9091 v -4.9091 h 4.9091 V 350.76 h 4.9091 v -9.8182 h 4.9091 V 296.76 h -4.9091 v -9.8182 h -4.9091 v -4.9091 h -4.9091 v -4.9091 h -4.9091 v -4.9091 h -9.8182 v -4.909 h -9.8182 v -4.9091 z m 0,9.8181 h 19.6364 v 4.9091 h 9.8182 v 4.9091 h 4.9091 v 4.9091 h 4.9091 v 4.9091 h 4.9091 v 9.8182 h 4.9091 v 34.3636 h -4.9091 v 9.8182 h -4.9091 v 4.9091 h -4.9091 v 4.9091 h -4.9091 v 4.9091 h -9.8182 v 4.9091 H 706.222 v -4.9091 h -9.8182 v -4.9091 h -4.9091 V 350.76 h -4.9091 v -4.9091 h -4.9091 v -9.8182 h -4.9091 v -34.3636 h 4.9091 v -9.8182 h 4.9091 v -4.9091 h 4.9091 v -4.9091 h 4.9091 v -4.9091 h 9.8182 v -4.9091 z" /></g></g><g
       id="g154"><g
         clip-path="url(#clipPath160)"
         id="g156"><path
           id="path162"
           style="fill:#64b1aa;fill-opacity:1;fill-rule:nonzero;stroke:none"
           d="M 725.8583,705.7525 H 711.131 v 4.9091 h -9.8182 v 4.9091 h -9.8182 v 4.9091 h -4.909 v 4.9091 h -4.9091 v 4.9091 h -4.9091 v 9.8182 h -4.9091 v 44.1818 h 4.9091 v 9.8182 h 4.9091 v 4.9091 h 4.9091 v 4.9091 h 4.909 v 4.9091 h 9.8182 v 4.9091 h 9.8182 v 4.909 h 29.4546 v -4.909 h 9.8181 v -4.9091 h 9.8182 v -4.9091 h 4.9091 v -4.9091 h 4.9091 v -4.9091 h 4.9091 v -9.8182 h 4.9091 v -44.1818 h -4.9091 v -9.8182 h -4.9091 v -4.9091 h -4.9091 v -4.9091 h -4.9091 v -4.9091 h -9.8182 v -4.9091 h -9.8181 v -4.9091 z m 0,9.8182 h 19.6364 v 4.9091 h 9.8181 v 4.9091 h 4.9091 v 4.9091 h 4.9091 v 4.9091 h 4.9091 v 9.8182 h 4.9091 v 34.3636 h -4.9091 v 9.8182 h -4.9091 v 4.9091 h -4.9091 v 4.9091 h -4.9091 v 4.9091 h -9.8181 v 4.9091 h -39.2728 v -4.9091 h -9.8182 v -4.9091 h -4.9091 v -4.9091 h -4.909 v -4.9091 h -4.9091 v -9.8182 h -4.9091 v -34.3636 h 4.9091 v -9.8182 h 4.9091 v -4.9091 h 4.909 v -4.9091 h 4.9091 v -4.9091 h 9.8182 v -4.9091 z" /></g></g><g
       id="g164"><g
         clip-path="url(#clipPath170)"
         id="g166"><path
           id="path172"
           style="fill:#64b1aa;fill-opacity:1;fill-rule:nonzero;stroke:none"
           d="m 1194.142,559.6035 h -14.728 v 4.9091 h -9.818 v 4.9091 h -9.818 v 4.9091 h -4.909 v 4.9091 h -4.909 v 4.9091 h -4.909 v 9.8182 h -4.909 v 44.1818 h 4.909 v 9.8182 h 4.909 v 4.9091 h 4.909 v 4.9091 h 4.909 v 4.909 h 9.818 v 4.9091 h 9.818 v 4.9091 h 29.455 v -4.9091 h 9.818 v -4.9091 h 9.818 v -4.909 h 4.909 v -4.9091 h 4.91 v -4.9091 h 4.909 v -9.8182 h 4.909 v -44.1818 h -4.909 v -9.8182 h -4.909 v -4.9091 h -4.91 v -4.9091 h -4.909 v -4.9091 h -9.818 v -4.9091 h -9.818 v -4.9091 z m 0,9.8182 h 19.636 v 4.9091 h 9.818 v 4.9091 h 4.909 v 4.9091 h 4.909 v 4.9091 h 4.91 v 9.8181 h 4.909 v 34.3637 h -4.909 v 9.8182 h -4.91 v 4.9091 h -4.909 v 4.9091 h -4.909 v 4.9091 h -9.818 v 4.909 h -39.273 v -4.909 h -9.818 v -4.9091 h -4.909 v -4.9091 h -4.909 v -4.9091 h -4.909 v -9.8182 h -4.909 v -34.3637 h 4.909 v -9.8181 h 4.909 v -4.9091 h 4.909 v -4.9091 h 4.909 v -4.9091 h 9.818 v -4.9091 z" /></g></g><g
       id="g174"><g
         clip-path="url(#clipPath180)"
         id="g176"><path
           id="path182"
           style="fill:#64b1aa;fill-opacity:1;fill-rule:nonzero;stroke:none"
           d="m 1194.142,410.9999 h -14.728 v 4.9091 h -9.818 v 4.9091 h -9.818 v 4.9091 h -4.909 v 4.9091 h -4.909 v 4.9091 h -4.909 v 9.8182 h -4.909 v 44.1818 h 4.909 v 9.8182 h 4.909 v 4.9091 h 4.909 v 4.9091 h 4.909 v 4.9091 h 9.818 V 519 h 9.818 v 4.9091 h 29.455 V 519 h 9.818 v -4.9091 h 9.818 v -4.9091 h 4.909 v -4.9091 h 4.91 v -4.9091 h 4.909 v -9.8182 h 4.909 v -44.1818 h -4.909 v -9.8182 h -4.909 v -4.9091 h -4.91 v -4.9091 h -4.909 v -4.9091 h -9.818 v -4.9091 h -9.818 v -4.9091 z m 0,9.8182 h 19.636 v 4.9091 h 9.818 v 4.9091 h 4.909 v 4.9091 h 4.909 v 4.9091 h 4.91 v 9.8182 h 4.909 v 34.3636 h -4.909 v 9.8182 h -4.91 v 4.9091 h -4.909 v 4.9091 h -4.909 v 4.9091 h -9.818 v 4.9091 h -39.273 v -4.9091 h -9.818 v -4.9091 h -4.909 v -4.9091 h -4.909 v -4.9091 h -4.909 v -9.8182 h -4.909 v -34.3636 h 4.909 v -9.8182 h 4.909 v -4.9091 h 4.909 v -4.9091 h 4.909 v -4.9091 h 9.818 v -4.9091 z" /></g></g></g></svg>